<svg width="30" height="30" fill="none" xmlns="http://www.w3.org/2000/svg"><g clip-path="url(#clip0_94_2468)"><path d="M22.811 16.762c-.982 1.992-2.314 3.976-3.675 5.757A59.078 59.078 0 0115 27.338a59.02 59.02 0 01-4.136-4.82c-1.362-1.78-2.693-3.764-3.675-5.756-.994-2.011-1.564-3.896-1.564-5.512a9.375 9.375 0 0118.75 0c0 1.616-.572 3.5-1.564 5.512zM15 30s11.25-10.661 11.25-18.75a11.25 11.25 0 00-22.5 0C3.75 19.339 15 30 15 30z" fill="#646F41"/><path d="M22.811 16.762c-.982 1.992-2.314 3.976-3.675 5.757A59.078 59.078 0 0115 27.338a59.02 59.02 0 01-4.136-4.82c-1.362-1.78-2.693-3.764-3.675-5.756-.994-2.011-1.564-3.896-1.564-5.512a9.375 9.375 0 0118.75 0c0 1.616-.572 3.5-1.564 5.512zM15 30s11.25-10.661 11.25-18.75a11.25 11.25 0 00-22.5 0C3.75 19.339 15 30 15 30z" fill="#A7BE71"/><path d="M15 15a3.75 3.75 0 110-7.5 3.75 3.75 0 010 7.5zm0 1.875a5.625 5.625 0 100-11.25 5.625 5.625 0 000 11.25z" fill="#646F41"/><path d="M15 15a3.75 3.75 0 110-7.5 3.75 3.75 0 010 7.5zm0 1.875a5.625 5.625 0 100-11.25 5.625 5.625 0 000 11.25z" fill="#A7BE71"/></g><defs><clipPath id="clip0_94_2468"><path fill="#fff" d="M0 0h30v30H0z"/></clipPath></defs></svg>