<svg width="30" height="30" fill="none" xmlns="http://www.w3.org/2000/svg"><g clip-path="url(#clip0_94_2463)"><path d="M6.851 2.49a1.271 1.271 0 00-1.903-.118l-1.939 1.94c-.905.908-1.24 2.192-.843 3.32a32.94 32.94 0 007.815 12.39 32.942 32.942 0 0012.39 7.814c1.126.396 2.41.062 3.318-.843l1.939-1.94a1.27 1.27 0 00-.118-1.902l-4.326-3.364a1.274 1.274 0 00-1.087-.229l-4.107 1.026a3.272 3.272 0 01-3.106-.86l-4.605-4.608a3.271 3.271 0 01-.863-3.107l1.028-4.106a1.272 1.272 0 00-.23-1.087L6.852 2.49zM3.532.958a3.272 3.272 0 014.898.306l3.364 4.324c.617.793.834 1.826.59 2.8l-1.025 4.107a1.27 1.27 0 00.333 1.206l4.607 4.607a1.272 1.272 0 001.208.333l4.104-1.025a3.27 3.27 0 012.801.59l4.324 3.364a3.271 3.271 0 01.306 4.896l-1.939 1.938c-1.388 1.388-3.461 1.997-5.394 1.317a34.938 34.938 0 01-13.144-8.288A34.939 34.939 0 01.277 8.291C-.4 6.361.208 4.284 1.596 2.897L3.534.958h-.002z" fill="#646F41"/><path d="M6.851 2.49a1.271 1.271 0 00-1.903-.118l-1.939 1.94c-.905.908-1.24 2.192-.843 3.32a32.94 32.94 0 007.815 12.39 32.942 32.942 0 0012.39 7.814c1.126.396 2.41.062 3.318-.843l1.939-1.94a1.27 1.27 0 00-.118-1.902l-4.326-3.364a1.274 1.274 0 00-1.087-.229l-4.107 1.026a3.272 3.272 0 01-3.106-.86l-4.605-4.608a3.271 3.271 0 01-.863-3.107l1.028-4.106a1.272 1.272 0 00-.23-1.087L6.852 2.49zM3.532.958a3.272 3.272 0 014.898.306l3.364 4.324c.617.793.834 1.826.59 2.8l-1.025 4.107a1.27 1.27 0 00.333 1.206l4.607 4.607a1.272 1.272 0 001.208.333l4.104-1.025a3.27 3.27 0 012.801.59l4.324 3.364a3.271 3.271 0 01.306 4.896l-1.939 1.938c-1.388 1.388-3.461 1.997-5.394 1.317a34.938 34.938 0 01-13.144-8.288A34.939 34.939 0 01.277 8.291C-.4 6.361.208 4.284 1.596 2.897L3.534.958h-.002z" fill="#A7BE71"/></g><defs><clipPath id="clip0_94_2463"><path fill="#fff" d="M0 0h30v30H0z"/></clipPath></defs></svg>