<svg width="29" height="9" fill="none" xmlns="http://www.w3.org/2000/svg"><g opacity=".55" fill-rule="evenodd" clip-rule="evenodd"><path d="M.397.822A1.094 1.094 0 011.863.335L14.5 6.65 27.135.332a1.093 1.093 0 11.98 1.956L14.99 8.851a1.094 1.094 0 01-.98 0L.885 2.288A1.094 1.094 0 01.397.822z" fill="#000"/><path d="M.397.822A1.094 1.094 0 011.863.335L14.5 6.65 27.135.332a1.093 1.093 0 11.98 1.956L14.99 8.851a1.094 1.094 0 01-.98 0L.885 2.288A1.094 1.094 0 01.397.822z" fill="#5D576B"/></g></svg>