<svg width="35" height="35" fill="none" xmlns="http://www.w3.org/2000/svg"><path d="M10.994 32.813c13.209 0 20.434-10.945 20.434-20.419 0-.306 0-.616-.013-.923A14.624 14.624 0 0035 7.748c-1.314.58-2.706.961-4.132 1.133a7.22 7.22 0 003.165-3.974 14.29 14.29 0 01-4.565 1.734 7.188 7.188 0 00-12.241 6.55A20.399 20.399 0 012.424 5.69a7.195 7.195 0 002.227 9.585 7.27 7.27 0 01-3.251-.892v.098a7.192 7.192 0 005.758 7.04 7.004 7.004 0 01-1.893.251c-.45.002-.9-.04-1.343-.124a7.182 7.182 0 006.71 4.98 14.411 14.411 0 01-8.926 3.078A13.7 13.7 0 010 29.608a20.44 20.44 0 0010.994 3.205z" fill="currentColor"/></svg>