<svg width="14" height="26" fill="none" xmlns="http://www.w3.org/2000/svg"><path fill-rule="evenodd" clip-rule="evenodd" d="M.711 24.914a.938.938 0 010-1.328L11.299 13 .711 2.414a.939.939 0 011.327-1.328l11.25 11.25a.938.938 0 010 1.328l-11.25 11.25a.936.936 0 01-1.327 0z" fill="#000"/><path fill-rule="evenodd" clip-rule="evenodd" d="M.711 24.914a.938.938 0 010-1.328L11.299 13 .711 2.414a.939.939 0 011.327-1.328l11.25 11.25a.938.938 0 010 1.328l-11.25 11.25a.936.936 0 01-1.327 0z" fill="#fff"/></svg>