<svg width="35" height="35" fill="none" xmlns="http://www.w3.org/2000/svg"><path d="M17.5 0c-4.75 0-5.346.022-7.212.105-1.866.088-3.137.38-4.25.814a8.568 8.568 0 00-3.1 2.019 8.59 8.59 0 00-2.02 3.1C.487 7.147.19 8.421.106 10.28.022 12.151 0 12.747 0 17.502c0 4.751.022 5.346.105 7.212.088 1.864.38 3.135.814 4.248a8.596 8.596 0 002.019 3.1 8.54 8.54 0 003.097 2.02c1.116.432 2.385.728 4.248.813 1.869.083 2.464.105 7.217.105s5.346-.022 7.214-.105c1.862-.088 3.137-.38 4.25-.814a8.565 8.565 0 003.098-2.019 8.595 8.595 0 002.02-3.1c.43-1.113.725-2.384.813-4.248.083-1.866.105-2.46.105-7.214 0-4.753-.022-5.348-.105-7.217-.088-1.861-.383-3.134-.814-4.245a8.587 8.587 0 00-2.019-3.1 8.555 8.555 0 00-3.1-2.02C27.848.487 26.575.19 24.712.106 22.844.022 22.252 0 17.496 0h.006-.002zm-1.568 3.154h1.57c4.673 0 5.226.016 7.07.101 1.706.077 2.634.363 3.25.602a5.43 5.43 0 012.013 1.31 5.406 5.406 0 011.308 2.012c.241.615.525 1.543.602 3.249.085 1.844.103 2.397.103 7.068 0 4.67-.018 5.226-.103 7.07-.077 1.706-.363 2.631-.602 3.248a5.402 5.402 0 01-1.31 2.01 5.406 5.406 0 01-2.012 1.308c-.613.241-1.54.525-3.249.604-1.844.083-2.397.103-7.07.103-4.672 0-5.228-.02-7.072-.103-1.706-.079-2.632-.363-3.248-.604a5.422 5.422 0 01-2.013-1.308 5.425 5.425 0 01-1.312-2.012c-.239-.615-.525-1.542-.602-3.249-.083-1.844-.1-2.397-.1-7.072 0-4.672.017-5.223.1-7.068.079-1.706.363-2.633.604-3.25a5.43 5.43 0 011.31-2.013 5.407 5.407 0 012.013-1.308c.616-.24 1.542-.525 3.248-.604 1.614-.074 2.24-.096 5.502-.098v.004zm10.91 2.905a2.1 2.1 0 100 4.2 2.1 2.1 0 000-4.2zm-9.34 2.455a8.989 8.989 0 10-.28 17.975 8.989 8.989 0 00.28-17.975zm0 3.152a5.834 5.834 0 110 11.668 5.834 5.834 0 010-11.668z" fill="currentColor"/></svg>