<svg width="30" height="30" fill="none" xmlns="http://www.w3.org/2000/svg"><path d="M4.024 5.351a.938.938 0 111.327-1.327l9.65 9.65 9.648-9.65a.938.938 0 111.328 1.327L16.326 15l9.65 9.649a.94.94 0 01-1.327 1.327L15 16.326l-9.649 9.65a.939.939 0 11-1.327-1.327L13.674 15l-9.65-9.649z" fill="#646F41"/><path d="M4.024 5.351a.938.938 0 111.327-1.327l9.65 9.65 9.648-9.65a.938.938 0 111.328 1.327L16.326 15l9.65 9.649a.94.94 0 01-1.327 1.327L15 16.326l-9.649 9.65a.939.939 0 11-1.327-1.327L13.674 15l-9.65-9.649z" fill="#5D576B"/></svg>