<svg width="48" height="42" fill="none" xmlns="http://www.w3.org/2000/svg"><path d="M12.185 24.554c1.943.538 3.429 1.562 4.457 3.07 1.143 1.4 1.714 3.122 1.714 5.168 0 2.585-.857 4.685-2.571 6.3-1.714 1.616-3.829 2.423-6.343 2.423-2.743 0-4.971-.807-6.686-2.423-1.6-1.723-2.4-3.823-2.4-6.3 0-1.292.115-2.53.343-3.715.343-1.292.972-3.123 1.886-5.492l7.2-22.293h8.229l-5.829 23.262zm29.143 0c1.943.538 3.428 1.562 4.457 3.07 1.143 1.4 1.714 3.122 1.714 5.168 0 2.585-.857 4.685-2.571 6.3-1.714 1.616-3.829 2.423-6.343 2.423-2.743 0-4.971-.807-6.686-2.423-1.6-1.723-2.4-3.823-2.4-6.3 0-1.292.115-2.53.343-3.715.343-1.292.972-3.123 1.886-5.492l7.2-22.293h8.228l-5.828 23.262z" fill="#333"/><path d="M12.185 24.554c1.943.538 3.429 1.562 4.457 3.07 1.143 1.4 1.714 3.122 1.714 5.168 0 2.585-.857 4.685-2.571 6.3-1.714 1.616-3.829 2.423-6.343 2.423-2.743 0-4.971-.807-6.686-2.423-1.6-1.723-2.4-3.823-2.4-6.3 0-1.292.115-2.53.343-3.715.343-1.292.972-3.123 1.886-5.492l7.2-22.293h8.229l-5.829 23.262zm29.143 0c1.943.538 3.428 1.562 4.457 3.07 1.143 1.4 1.714 3.122 1.714 5.168 0 2.585-.857 4.685-2.571 6.3-1.714 1.616-3.829 2.423-6.343 2.423-2.743 0-4.971-.807-6.686-2.423-1.6-1.723-2.4-3.823-2.4-6.3 0-1.292.115-2.53.343-3.715.343-1.292.972-3.123 1.886-5.492l7.2-22.293h8.228l-5.828 23.262z" fill="#fff"/></svg>