<svg width="30" height="30" fill="none" xmlns="http://www.w3.org/2000/svg"><path d="M0 7.5a3.75 3.75 0 013.75-3.75h22.5A3.75 3.75 0 0130 7.5v15a3.75 3.75 0 01-3.75 3.75H3.75A3.75 3.75 0 010 22.5v-15zm3.75-1.875A1.875 1.875 0 001.875 7.5v.407L15 15.782l13.125-7.875V7.5a1.875 1.875 0 00-1.875-1.875H3.75zm24.375 4.468l-8.828 5.297 8.828 5.432V10.093zm-.064 12.893l-10.575-6.509L15 17.968l-2.486-1.49-10.575 6.506a1.875 1.875 0 001.811 1.391h22.5a1.875 1.875 0 001.811-1.39zM1.875 20.822l8.828-5.432-8.828-5.297v10.729z" fill="#000"/><path d="M0 7.5a3.75 3.75 0 013.75-3.75h22.5A3.75 3.75 0 0130 7.5v15a3.75 3.75 0 01-3.75 3.75H3.75A3.75 3.75 0 010 22.5v-15zm3.75-1.875A1.875 1.875 0 001.875 7.5v.407L15 15.782l13.125-7.875V7.5a1.875 1.875 0 00-1.875-1.875H3.75zm24.375 4.468l-8.828 5.297 8.828 5.432V10.093zm-.064 12.893l-10.575-6.509L15 17.968l-2.486-1.49-10.575 6.506a1.875 1.875 0 001.811 1.391h22.5a1.875 1.875 0 001.811-1.39zM1.875 20.822l8.828-5.432-8.828-5.297v10.729z" fill="#646F41"/><path d="M0 7.5a3.75 3.75 0 013.75-3.75h22.5A3.75 3.75 0 0130 7.5v15a3.75 3.75 0 01-3.75 3.75H3.75A3.75 3.75 0 010 22.5v-15zm3.75-1.875A1.875 1.875 0 001.875 7.5v.407L15 15.782l13.125-7.875V7.5a1.875 1.875 0 00-1.875-1.875H3.75zm24.375 4.468l-8.828 5.297 8.828 5.432V10.093zm-.064 12.893l-10.575-6.509L15 17.968l-2.486-1.49-10.575 6.506a1.875 1.875 0 001.811 1.391h22.5a1.875 1.875 0 001.811-1.39zM1.875 20.822l8.828-5.432-8.828-5.297v10.729z" fill="#A7BE71"/></svg>