<svg width="37" height="402" fill="none" xmlns="http://www.w3.org/2000/svg"><path d="M31 122.5C30.847 73.751 1 .5 1 .5s34.135 72.885 34.5 122c.415 55.739-34 94-34 155.5 0-61.5 29.674-100.158 29.5-155.5z" fill="#D9D9D9"/><path d="M31 122.5C30.847 73.751 1 .5 1 .5s34.135 72.885 34.5 122c.415 55.739-34 94-34 155.5 0-61.5 29.674-100.158 29.5-155.5z" fill="#FBF9EA"/><path d="M1.5 278c0-61.5 29.674-100.158 29.5-155.5C30.847 73.751 1 .5 1 .5s34.135 72.885 34.5 122c.415 55.739-34 94-34 155.5zm0 0C1.5 312 35 401 35 401" stroke="#A56868"/><path d="M1.5 278c0-61.5 29.674-100.158 29.5-155.5C30.847 73.751 1 .5 1 .5s34.135 72.885 34.5 122c.415 55.739-34 94-34 155.5zm0 0C1.5 312 35 401 35 401" stroke="#FBF9EA"/></svg>