<svg width="1521" height="122" fill="none" xmlns="http://www.w3.org/2000/svg"><g opacity=".12"><path d="M1057.28 105.337C1242.17 104.804 1520 1 1520 1s-276.43 118.716-462.72 119.987C845.879 122.43 700.764 2.739 467.509 2.739c233.255-.002 379.877 103.202 589.771 102.598z" fill="#D9D9D9"/><path d="M1057.28 105.337C1242.17 104.804 1520 1 1520 1s-276.43 118.716-462.72 119.987C845.879 122.43 700.764 2.739 467.509 2.739c233.255-.002 379.877 103.202 589.771 102.598z" fill="#FBF9EA"/><path d="M1057.28 105.337C1242.17 104.804 1520 1 1520 1s-276.43 118.716-462.72 119.987C845.879 122.43 700.764 2.739 467.509 2.739c233.255-.002 379.877 103.202 589.771 102.598z" fill="#A7BE71"/><path d="M467.509 2.739c233.255-.002 379.877 103.202 589.771 102.598C1242.17 104.804 1520 1 1520 1s-276.43 118.716-462.72 119.987C845.879 122.43 700.764 2.739 467.509 2.739zm0 0C338.556 2.739 1 119.248 1 119.248" stroke="#A56868"/><path d="M467.509 2.739c233.255-.002 379.877 103.202 589.771 102.598C1242.17 104.804 1520 1 1520 1s-276.43 118.716-462.72 119.987C845.879 122.43 700.764 2.739 467.509 2.739zm0 0C338.556 2.739 1 119.248 1 119.248" stroke="#FBF9EA"/><path d="M467.509 2.739c233.255-.002 379.877 103.202 589.771 102.598C1242.17 104.804 1520 1 1520 1s-276.43 118.716-462.72 119.987C845.879 122.43 700.764 2.739 467.509 2.739zm0 0C338.556 2.739 1 119.248 1 119.248" stroke="#A7BE71"/></g></svg>