<svg width="147" height="45" fill="none" xmlns="http://www.w3.org/2000/svg"><path d="M7.078 14.693v-3.84H0v23.14h7.078v-10.75c0-3.994 1.934-5.171 5.295-5.171h1.884v-7.475c-3.055 0-5.601 1.638-7.18 4.096z" fill="#F1E8A0"/><path d="M7.078 14.693v-3.84H0v23.14h7.078v-10.75c0-3.994 1.934-5.171 5.295-5.171h1.884v-7.475c-3.055 0-5.601 1.638-7.18 4.096z" fill="#fff"/><path d="M23.32 20.17c.408-2.559 2.19-3.992 4.482-3.992 2.342 0 4.328 1.433 4.328 3.993h-8.81zm4.583-9.675c-6.874 0-11.66 4.556-11.66 11.928 0 7.321 4.888 11.929 11.66 11.929 5.754 0 9.828-3.481 10.948-7.987h-7.536c-.56 1.23-1.68 2.253-3.666 2.253-2.291 0-4.125-1.433-4.38-4.454h15.99c.1-.717.1-1.433.1-2.099 0-7.065-4.735-11.57-11.456-11.57z" fill="#F1E8A0"/><path d="M23.32 20.17c.408-2.559 2.19-3.992 4.482-3.992 2.342 0 4.328 1.433 4.328 3.993h-8.81zm4.583-9.675c-6.874 0-11.66 4.556-11.66 11.928 0 7.321 4.888 11.929 11.66 11.929 5.754 0 9.828-3.481 10.948-7.987h-7.536c-.56 1.23-1.68 2.253-3.666 2.253-2.291 0-4.125-1.433-4.38-4.454h15.99c.1-.717.1-1.433.1-2.099 0-7.065-4.735-11.57-11.456-11.57z" fill="#fff"/><path d="M53.922 28.157c-2.648 0-5.041-2.1-5.041-5.785 0-3.686 2.393-5.683 5.04-5.683 2.7 0 5.042 2.048 5.042 5.734s-2.394 5.734-5.041 5.734zm5.04-17.765v3.635c-1.425-2.099-4.022-3.532-7.077-3.532-5.652 0-10.133 4.556-10.133 11.877-.05 7.32 4.43 11.928 10.082 11.928 3.36 0 5.805-1.536 7.078-3.635v3.328h7.077V3.276c-3.87 0-7.026 3.174-7.026 7.116z" fill="#F1E8A0"/><path d="M53.922 28.157c-2.648 0-5.041-2.1-5.041-5.785 0-3.686 2.393-5.683 5.04-5.683 2.7 0 5.042 2.048 5.042 5.734s-2.394 5.734-5.041 5.734zm5.04-17.765v3.635c-1.425-2.099-4.022-3.532-7.077-3.532-5.652 0-10.133 4.556-10.133 11.877-.05 7.32 4.43 11.928 10.082 11.928 3.36 0 5.805-1.536 7.078-3.635v3.328h7.077V3.276c-3.87 0-7.026 3.174-7.026 7.116z" fill="#fff"/><path d="M81.927 28.157c-2.648 0-5.04-2.099-5.04-5.785s2.392-5.682 5.04-5.682c2.699 0 5.041 2.047 5.041 5.733 0 3.687-2.342 5.734-5.04 5.734zm5.041-14.027c-1.222-2.048-3.666-3.635-7.078-3.635-5.651 0-10.132 4.556-10.132 11.877 0 7.321 4.48 11.929 10.133 11.929 3.411 0 5.855-1.587 7.128-3.635v3.276h7.078V10.854h-7.078v3.276h-.05z" fill="#F1E8A0"/><path d="M81.927 28.157c-2.648 0-5.04-2.099-5.04-5.785s2.392-5.682 5.04-5.682c2.699 0 5.041 2.047 5.041 5.733 0 3.687-2.342 5.734-5.04 5.734zm5.041-14.027c-1.222-2.048-3.666-3.635-7.078-3.635-5.651 0-10.132 4.556-10.132 11.877 0 7.321 4.48 11.929 10.133 11.929 3.411 0 5.855-1.587 7.128-3.635v3.276h7.078V10.854h-7.078v3.276h-.05z" fill="#fff"/><path d="M106.214 10.854h-7.077v23.14h7.077v-23.14z" fill="#F1E8A0"/><path d="M106.214 10.854h-7.077v23.14h7.077v-23.14z" fill="#fff"/><path d="M111.446 7.065V33.89h7.078V0a7.07 7.07 0 00-7.078 7.065z" fill="#F1E8A0"/><path d="M111.446 7.065V33.89h7.078V0a7.07 7.07 0 00-7.078 7.065z" fill="#fff"/><path d="M139.362 10.853l-5.244 14.488-5.347-14.488h-7.892l9.369 22.372L124.952 45h7.638L147 10.853h-7.638z" fill="#F1E8A0"/><path d="M139.362 10.853l-5.244 14.488-5.347-14.488h-7.892l9.369 22.372L124.952 45h7.638L147 10.853h-7.638z" fill="#fff"/><path d="M99.442 6.962h6.925V0c-3.819 0-6.925 3.123-6.925 6.962z" fill="#F1E8A0"/><path d="M99.442 6.962h6.925V0c-3.819 0-6.925 3.123-6.925 6.962z" fill="#fff"/></svg>