<svg width="65" height="65" fill="none" xmlns="http://www.w3.org/2000/svg"><path d="M15.602 7.96c-.818.112-1.612.343-2.373.646-1.789.717-3.288 1.848-4.667 3.155-.818.781-1.612 1.586-2.446 2.407-.216-.359-.256-.694-.08-1.052.794-1.57 1.716-3.06 2.847-4.407 2.092-2.486 4.674-4.326 7.641-5.657 2.333-1.044 4.779-1.729 7.273-2.255a37.976 37.976 0 015.612-.741c1.829-.104 3.649-.056 5.469.08 2.622.199 5.204.621 7.737 1.29a31.131 31.131 0 014.996 1.801 28.546 28.546 0 016.414 4.008c2.181 1.81 4.114 3.857 5.75 6.168 1.643 2.326 2.95 4.82 3.808 7.537.57 1.81.962 3.65 1.179 5.538.2 1.745.28 3.49.216 5.235-.104 3.052-.569 6.048-1.467 8.98a34.224 34.224 0 01-2.373 5.817c-1.331 2.566-2.951 4.94-4.811 7.164-2.11 2.526-4.507 4.733-7.273 6.541a28.853 28.853 0 01-10.536 4.224c-1.612.302-3.24.438-4.875.526-1.363.071-2.718.023-4.073-.048a35.53 35.53 0 01-4.587-.55c-2.26-.414-4.466-1.012-6.59-1.889a32.165 32.165 0 01-8.276-4.924c-3.167-2.605-5.636-5.745-7.36-9.45a29.225 29.225 0 01-2.253-7.227 34.69 34.69 0 01-.49-4.733c-.128-3.897.602-7.634 2.077-11.227 1.3-3.172 3.143-6.016 5.284-8.678 1.427-1.777 2.943-3.466 4.595-5.028a42.899 42.899 0 012.974-2.533c.249-.192.465-.423.69-.638.008-.016-.008-.048-.032-.08z" fill="#D9D9D9"/><path d="M15.602 7.96c-.818.112-1.612.343-2.373.646-1.789.717-3.288 1.848-4.667 3.155-.818.781-1.612 1.586-2.446 2.407-.216-.359-.256-.694-.08-1.052.794-1.57 1.716-3.06 2.847-4.407 2.092-2.486 4.674-4.326 7.641-5.657 2.333-1.044 4.779-1.729 7.273-2.255a37.976 37.976 0 015.612-.741c1.829-.104 3.649-.056 5.469.08 2.622.199 5.204.621 7.737 1.29a31.131 31.131 0 014.996 1.801 28.546 28.546 0 016.414 4.008c2.181 1.81 4.114 3.857 5.75 6.168 1.643 2.326 2.95 4.82 3.808 7.537.57 1.81.962 3.65 1.179 5.538.2 1.745.28 3.49.216 5.235-.104 3.052-.569 6.048-1.467 8.98a34.224 34.224 0 01-2.373 5.817c-1.331 2.566-2.951 4.94-4.811 7.164-2.11 2.526-4.507 4.733-7.273 6.541a28.853 28.853 0 01-10.536 4.224c-1.612.302-3.24.438-4.875.526-1.363.071-2.718.023-4.073-.048a35.53 35.53 0 01-4.587-.55c-2.26-.414-4.466-1.012-6.59-1.889a32.165 32.165 0 01-8.276-4.924c-3.167-2.605-5.636-5.745-7.36-9.45a29.225 29.225 0 01-2.253-7.227 34.69 34.69 0 01-.49-4.733c-.128-3.897.602-7.634 2.077-11.227 1.3-3.172 3.143-6.016 5.284-8.678 1.427-1.777 2.943-3.466 4.595-5.028a42.899 42.899 0 012.974-2.533c.249-.192.465-.423.69-.638.008-.016-.008-.048-.032-.08z" fill="#FBF9EA"/><path d="M34.508 18.702c2.767-3.77 6.279-6.295 11.01-7.036v.43c0 4.2-.008 8.39.008 12.59 0 .374-.113.454-.466.446-1.66-.032-3.303.056-4.93.43-3.096.725-4.772 2.733-5.365 5.745-.208 1.076-.264 2.16-.264 3.251v18.486c0 .598.064.518-.498.518-4.009 0-8.018-.008-12.027.008-.36 0-.433-.095-.433-.438.008-13.57.008-27.14 0-40.71 0-.358.08-.461.457-.461 4.025.015 8.042.015 12.068 0 .384 0 .449.127.449.47-.017 1.952-.009 3.904-.009 5.856v.415z" fill="#4B5A31"/><path d="M34.508 18.702c2.767-3.77 6.279-6.295 11.01-7.036v.43c0 4.2-.008 8.39.008 12.59 0 .374-.113.454-.466.446-1.66-.032-3.303.056-4.93.43-3.096.725-4.772 2.733-5.365 5.745-.208 1.076-.264 2.16-.264 3.251v18.486c0 .598.064.518-.498.518-4.009 0-8.018-.008-12.027.008-.36 0-.433-.095-.433-.438.008-13.57.008-27.14 0-40.71 0-.358.08-.461.457-.461 4.025.015 8.042.015 12.068 0 .384 0 .449.127.449.47-.017 1.952-.009 3.904-.009 5.856v.415z" fill="#333"/><path d="M34.508 18.702c2.767-3.77 6.279-6.295 11.01-7.036v.43c0 4.2-.008 8.39.008 12.59 0 .374-.113.454-.466.446-1.66-.032-3.303.056-4.93.43-3.096.725-4.772 2.733-5.365 5.745-.208 1.076-.264 2.16-.264 3.251v18.486c0 .598.064.518-.498.518-4.009 0-8.018-.008-12.027.008-.36 0-.433-.095-.433-.438.008-13.57.008-27.14 0-40.71 0-.358.08-.461.457-.461 4.025.015 8.042.015 12.068 0 .384 0 .449.127.449.47-.017 1.952-.009 3.904-.009 5.856v.415z" fill="#A7BE71"/><path d="M15.602 7.96c-.818.112-1.612.343-2.373.646-1.789.717-3.288 1.848-4.667 3.155-.818.781-1.612 1.586-2.446 2.407-.216-.359-.256-.694-.08-1.052.794-1.57 1.716-3.06 2.847-4.407 2.092-2.486 4.674-4.326 7.641-5.657 2.333-1.044 4.779-1.729 7.273-2.255a37.976 37.976 0 015.612-.741c1.829-.104 3.649-.056 5.469.08 2.622.199 5.204.621 7.737 1.29a31.131 31.131 0 014.996 1.801 28.546 28.546 0 016.414 4.008c2.181 1.81 4.114 3.857 5.75 6.168 1.643 2.326 2.95 4.82 3.808 7.537.57 1.81.962 3.65 1.179 5.538.2 1.745.28 3.49.216 5.235-.104 3.052-.569 6.048-1.467 8.98a34.224 34.224 0 01-2.373 5.817c-1.331 2.566-2.951 4.94-4.811 7.164-2.11 2.526-4.507 4.733-7.273 6.541a28.853 28.853 0 01-10.536 4.224c-1.612.302-3.24.438-4.875.526-1.363.071-2.718.023-4.073-.048a35.53 35.53 0 01-4.587-.55c-2.26-.414-4.466-1.012-6.59-1.889a32.165 32.165 0 01-8.276-4.924c-3.167-2.605-5.636-5.745-7.36-9.45a29.225 29.225 0 01-2.253-7.227 34.69 34.69 0 01-.49-4.733c-.128-3.897.602-7.634 2.077-11.227 1.3-3.172 3.143-6.016 5.284-8.678 1.427-1.777 2.943-3.466 4.595-5.028a42.899 42.899 0 012.974-2.533c.249-.192.465-.423.69-.638.008-.016-.008-.048-.032-.08z" fill="#D9D9D9"/><path d="M15.602 7.96c-.818.112-1.612.343-2.373.646-1.789.717-3.288 1.848-4.667 3.155-.818.781-1.612 1.586-2.446 2.407-.216-.359-.256-.694-.08-1.052.794-1.57 1.716-3.06 2.847-4.407 2.092-2.486 4.674-4.326 7.641-5.657 2.333-1.044 4.779-1.729 7.273-2.255a37.976 37.976 0 015.612-.741c1.829-.104 3.649-.056 5.469.08 2.622.199 5.204.621 7.737 1.29a31.131 31.131 0 014.996 1.801 28.546 28.546 0 016.414 4.008c2.181 1.81 4.114 3.857 5.75 6.168 1.643 2.326 2.95 4.82 3.808 7.537.57 1.81.962 3.65 1.179 5.538.2 1.745.28 3.49.216 5.235-.104 3.052-.569 6.048-1.467 8.98a34.224 34.224 0 01-2.373 5.817c-1.331 2.566-2.951 4.94-4.811 7.164-2.11 2.526-4.507 4.733-7.273 6.541a28.853 28.853 0 01-10.536 4.224c-1.612.302-3.24.438-4.875.526-1.363.071-2.718.023-4.073-.048a35.53 35.53 0 01-4.587-.55c-2.26-.414-4.466-1.012-6.59-1.889a32.165 32.165 0 01-8.276-4.924c-3.167-2.605-5.636-5.745-7.36-9.45a29.225 29.225 0 01-2.253-7.227 34.69 34.69 0 01-.49-4.733c-.128-3.897.602-7.634 2.077-11.227 1.3-3.172 3.143-6.016 5.284-8.678 1.427-1.777 2.943-3.466 4.595-5.028a42.899 42.899 0 012.974-2.533c.249-.192.465-.423.69-.638.008-.016-.008-.048-.032-.08z" fill="#FBF9EA"/><path d="M15.602 7.96c-.818.112-1.612.343-2.373.646-1.789.717-3.288 1.848-4.667 3.155-.818.781-1.612 1.586-2.446 2.407-.216-.359-.256-.694-.08-1.052.794-1.57 1.716-3.06 2.847-4.407 2.092-2.486 4.674-4.326 7.641-5.657 2.333-1.044 4.779-1.729 7.273-2.255a37.976 37.976 0 015.612-.741c1.829-.104 3.649-.056 5.469.08 2.622.199 5.204.621 7.737 1.29a31.131 31.131 0 014.996 1.801 28.546 28.546 0 016.414 4.008c2.181 1.81 4.114 3.857 5.75 6.168 1.643 2.326 2.95 4.82 3.808 7.537.57 1.81.962 3.65 1.179 5.538.2 1.745.28 3.49.216 5.235-.104 3.052-.569 6.048-1.467 8.98a34.224 34.224 0 01-2.373 5.817c-1.331 2.566-2.951 4.94-4.811 7.164-2.11 2.526-4.507 4.733-7.273 6.541a28.853 28.853 0 01-10.536 4.224c-1.612.302-3.24.438-4.875.526-1.363.071-2.718.023-4.073-.048a35.53 35.53 0 01-4.587-.55c-2.26-.414-4.466-1.012-6.59-1.889a32.165 32.165 0 01-8.276-4.924c-3.167-2.605-5.636-5.745-7.36-9.45a29.225 29.225 0 01-2.253-7.227 34.69 34.69 0 01-.49-4.733c-.128-3.897.602-7.634 2.077-11.227 1.3-3.172 3.143-6.016 5.284-8.678 1.427-1.777 2.943-3.466 4.595-5.028a42.899 42.899 0 012.974-2.533c.249-.192.465-.423.69-.638.008-.016-.008-.048-.032-.08z" fill="#A7BE71"/><path d="M34.508 18.702c2.767-3.77 6.279-6.295 11.01-7.036v.43c0 4.2-.008 8.39.008 12.59 0 .374-.113.454-.466.446-1.66-.032-3.303.056-4.93.43-3.096.725-4.772 2.733-5.365 5.745-.208 1.076-.264 2.16-.264 3.251v18.486c0 .598.064.518-.498.518-4.009 0-8.018-.008-12.027.008-.36 0-.433-.095-.433-.438.008-13.57.008-27.14 0-40.71 0-.358.08-.461.457-.461 4.025.015 8.042.015 12.068 0 .384 0 .449.127.449.47-.017 1.952-.009 3.904-.009 5.856v.415z" fill="#4B5A31"/><path d="M34.508 18.702c2.767-3.77 6.279-6.295 11.01-7.036v.43c0 4.2-.008 8.39.008 12.59 0 .374-.113.454-.466.446-1.66-.032-3.303.056-4.93.43-3.096.725-4.772 2.733-5.365 5.745-.208 1.076-.264 2.16-.264 3.251v18.486c0 .598.064.518-.498.518-4.009 0-8.018-.008-12.027.008-.36 0-.433-.095-.433-.438.008-13.57.008-27.14 0-40.71 0-.358.08-.461.457-.461 4.025.015 8.042.015 12.068 0 .384 0 .449.127.449.47-.017 1.952-.009 3.904-.009 5.856v.415z" fill="#333"/><path d="M34.508 18.702c2.767-3.77 6.279-6.295 11.01-7.036v.43c0 4.2-.008 8.39.008 12.59 0 .374-.113.454-.466.446-1.66-.032-3.303.056-4.93.43-3.096.725-4.772 2.733-5.365 5.745-.208 1.076-.264 2.16-.264 3.251v18.486c0 .598.064.518-.498.518-4.009 0-8.018-.008-12.027.008-.36 0-.433-.095-.433-.438.008-13.57.008-27.14 0-40.71 0-.358.08-.461.457-.461 4.025.015 8.042.015 12.068 0 .384 0 .449.127.449.47-.017 1.952-.009 3.904-.009 5.856v.415z" fill="#A7BE71"/><path d="M34.508 18.702c2.767-3.77 6.279-6.295 11.01-7.036v.43c0 4.2-.008 8.39.008 12.59 0 .374-.113.454-.466.446-1.66-.032-3.303.056-4.93.43-3.096.725-4.772 2.733-5.365 5.745-.208 1.076-.264 2.16-.264 3.251v18.486c0 .598.064.518-.498.518-4.009 0-8.018-.008-12.027.008-.36 0-.433-.095-.433-.438.008-13.57.008-27.14 0-40.71 0-.358.08-.461.457-.461 4.025.015 8.042.015 12.068 0 .384 0 .449.127.449.47-.017 1.952-.009 3.904-.009 5.856v.415z" fill="#FBF9EA"/></svg>