<svg width="178" height="69" fill="none" xmlns="http://www.w3.org/2000/svg"><g clip-path="url(#clip0_94_2199)" fill="#FBF9EA"><path d="M20.483 15.996v-3.962H13.18V35.91h7.303V24.818c0-4.12 1.997-5.336 5.464-5.336h1.944V11.77c-3.152 0-5.78 1.69-7.408 4.226zm16.761 5.652c.42-2.641 2.259-4.12 4.623-4.12 2.417 0 4.466 1.479 4.466 4.12h-9.09zm4.728-9.984c-7.093 0-12.032 4.702-12.032 12.309 0 7.554 5.044 12.308 12.032 12.308 5.938 0 10.14-3.592 11.297-8.24h-7.776c-.578 1.267-1.734 2.324-3.783 2.324-2.365 0-4.256-1.48-4.519-4.596H53.69c.105-.74.105-1.48.105-2.166 0-7.29-4.886-11.939-11.822-11.939zM68.82 29.89c-2.732 0-5.201-2.167-5.201-5.97 0-3.804 2.47-5.864 5.201-5.864 2.785 0 5.202 2.113 5.202 5.917 0 3.803-2.47 5.916-5.202 5.916zm5.202-18.332v3.751c-1.471-2.166-4.15-3.645-7.303-3.645-5.832 0-10.456 4.702-10.456 12.256-.052 7.554 4.571 12.308 10.403 12.308 3.468 0 5.99-1.584 7.304-3.75v3.433h7.303V4.215c-3.993 0-7.25 3.276-7.25 7.343zM97.719 29.89c-2.733 0-5.202-2.167-5.202-5.97 0-3.804 2.47-5.864 5.202-5.864 2.784 0 5.201 2.113 5.201 5.917 0 3.803-2.417 5.916-5.201 5.916zm5.201-14.475c-1.261-2.113-3.783-3.75-7.303-3.75-5.832 0-10.456 4.7-10.456 12.255 0 7.554 4.624 12.308 10.456 12.308 3.52 0 6.042-1.637 7.356-3.75v3.38h7.303V12.035h-7.303v3.38h-.053zm19.861-3.381h-7.303V35.91h7.303V12.034zm5.254-3.698v27.681h7.303V1.046c-4.045 0-7.303 3.275-7.303 7.29zm28.951 3.698l-5.412 14.95-5.517-14.95h-8.144l9.668 23.085-5.465 12.15h7.882l14.869-35.235h-7.881zm-41.193-4.015h7.146V.834c-3.941 0-7.146 3.223-7.146 7.185z"/></g><path d="M161.326 60.28c.07.07.282 0 .423-.14.142.21.283-.07.354 0 .212.14.353.14.565 0 .071-.07.353.21.495.21h.141c.212-.07.424-.07.565-.07.141 0 .707.14.989.209l.212-.14h.142c.211.07.494.21.706.21h.212c.212-.14.283 0 .283.21l.353-.28.283-.21c.282.14.706.14.918.07.212-.07.848.28 1.06.21.212 0 .989.21 1.201.279v-.28l.141-.069.283.21c.353-.07.706 0 .848.07.141.069.565-.14.706-.07.142.07.566.139.707.07.141-.07.989-.07 1.413 0l.424.139c.141.07.353-.14.565-.14h.141c.142.07.354.07.424 0l.354.28c.424-.14.847-.14.918.069.071.21.424.628.495.628.07 0 .353 0 .353.07s-.071.279-.212.349c-.141.07-.141.697-.424.977l.071.418v.07c0 .14-.071.21-.142.21-.07-.07-.211-.07-.282.07.424.139-.071.418.141.627v.14l-.282.14c0 .209-.354.418-.707.488l-.353-.28-.071-.07c-.212.07-.565.14-.777.21-.212 0-.919-.07-1.131 0h-.424c-.212 0-.423-.07-.494-.07h-.495c-.07 0-.777.07-1.342.07-.495 0-2.12 0-2.402-.07-.283 0-1.06.21-1.131.21h-.424c-.424-.07-.918-.07-1.13-.07-.212.07-.848-.07-.989-.07-.142 0-.707.07-.919 0-.212-.07-1.13.07-1.554.07h-1.696c-.283 0-.636.07-.707 0-.212-.21-.424.07-.565-.14 0-.07-.212-.07-.282 0-.212 0-.495.14-.566.07l-.282-.21c-.212.14-.495.21-.636.14-.142-.07-.424-.07-.636-.14-.141-.069-.636.14-.848.07-.141-.07-.636.21-.777.21-.141 0-.777-.21-1.06-.28l-.283.21-.141.28c-.424-.07-.848-.14-.989-.21-.071-.07-.495-.07-.707-.14-.212-.07-1.059.28-1.483.42l-.283-.35s-.212-.07-.283 0c-.282.21-.635-.14-.989.07-.07.07-.282.07-.424.07-.282 0-.494-.14-.777-.14h-.212c-.282.07-.565.14-.706.07-.142 0-.636 0-.778-.07-.141-.07-.565.14-.777.21-.141.07-.565-.21-.706-.14-.142.07-.848 0-1.131 0h-.212c-.212 0-.494.07-.706.07h-.424c-.495-.07-1.272-.07-1.767-.07l-.424.14-.353.07a8.796 8.796 0 00-1.413-.14h-5.087c-.283.07-.495.14-.565.14-.071 0-.424-.07-.707-.07-.282-.07-1.907.07-2.049 0-.141-.07-.424 0-.565-.07-.141 0-.707.14-.989.14h-4.946c-.283 0-1.272 0-2.049.07-.848 0-3.25.208-3.603.278l-.071-.07-.212-.14c-.141.14-.495.14-.707 0l-.282.21c-.141.07-.495 0-.777 0h-.424c-.424 0-.989 0-1.201.07-.212.07-.848-.14-1.06-.28l-.142.21-.212.28c-.141-.14-.494-.28-.706-.21-.212 0-.989.07-1.201.07-.212 0-.919.07-1.201.07h-.566c-.353 0-.777.07-.989.07-.212.07-.706.07-.989.209l-.353-.07c-.283-.07-.636 0-.919 0h-.353c-.353 0-.777.07-.989.14h-.283c-.212-.07-.918-.14-1.695-.07-.778 0-2.827.209-2.968.348l-.212-.209c-.07-.07-.353.07-.565.07h-.212c-.212 0-.495-.07-.707-.21-.212-.139-.847.21-1.06.21h-1.13c-.212 0-.99.07-1.201.07h-.212c-.212 0-.424-.07-.636-.07h-1.908c-.353 0-1.483.14-1.766.14h-.494c-.354.07-.778.07-.919 0-.141-.07-.777.209-.99.209H86.29c-.282 0-1.413 0-1.978.07s-2.473.07-3.038.07-2.12 0-2.261.07c-.141.069-.636-.07-.777-.14-.142 0-.707.209-.99.209H75.48c-.424 0-1.907 0-2.331.07-.424.07-2.261.07-3.038.07h-3.675l-.14.14c-.142.139-.284-.28-.566 0l-.07.069c-.213 0-.495 0-.637.07-.141.07-.777-.14-1.13-.07h-2.826c-2.756 0-5.229-.07-5.582-.14l-.283.21-.07.07c-.142 0-.354-.07-.566-.07-.212 0-.777 0-.847.07-.071.07-.354-.07-.495-.07-.07 0-.495.07-.706.07h-.212l-.707-.14h-.212c-.212 0-.424-.07-.424-.14-.07-.07-.424.07-.636.07h-.141c-.07 0-.212-.07-.212-.07l-.707.28c-.777-.07-1.978-.14-2.755-.14h-2.473c-.424 0-.99 0-1.201-.07-.212 0-.99.28-1.343.419l-.212-.35c0-.069-.212-.069-.282 0l-.353.21c-.354-.07-.919-.14-1.343-.07h-6.147c-.353 0-.918 0-1.201-.07-.283-.07-1.13.21-1.201.14-.07-.07-.777-.07-1.201-.07-.424 0-1.767.14-1.908.14-.141 0-.636 0-.777-.07-.141-.07-.636.14-.777.14-.142 0-.636-.14-.848-.07-.212.07-.848.07-1.06.14-.212 0-.777-.14-.918-.07-.142 0-.778.07-1.131.07s-1.766 0-2.402-.07l-.495.279-.07.07c-.142 0-.495-.07-.848 0l-.212-.07-.424-.419c-.212.14-.566.21-.777.14l-.212.07-.283.07c-.353 0-.707-.07-.848 0-.141 0-1.13-.21-2.049-.28l-.706.35-.283.139c-.283-.07-.707-.07-.848-.07h-1.06c-.212 0-.636-.07-.706-.07h-.777c-.212 0-1.06 0-1.272-.07h-.99c-.14-.07-.565.14-.635.14-.07-.07-.283-.14-.354-.07-.07.07-.423.14-.635.14H3.766c-.07-.14-.212-.21-.212-.21s-.141.07-.141.14-.495.07-.848 0H2.07c-.283 0-.494 0-.424-.07.07 0 .141-.14.07-.21-.07-.069-.14-.418-.07-.558.07-.07.07-.348-.07-.348-.142 0-.354.07-.354.07v.209c-.07 0-.212-.07-.353-.14-.07-.07-.636-.279-.707-.349-.07-.14-.282-.488-.07-.558.212-.07.424.419.565.558h.141c.071 0 .142-.07.142-.14 0-.069-.071-.139-.071-.139-.07 0-.212 0-.212-.07s.141-.279.353-.349c.212-.07.777-.279.777-.348 0-.07.071-.35.142-.28.07.14.424.35.565.21l.07-.14c.071-.14.071-.14.213-.07l.07.07h.848c.353 0 1.06-.279.99-.279-.071 0 .14-.21.706-.349l.565.21c.141.07.212.07.353.07h.071c.141-.07.212-.14.07-.21-.07-.07-.211-.349-.14-.349h.07c.07 0 .212.14.283.07l.353-.14c.212.21.424.35.495.35.07 0 .423 0 .282-.07-.07-.07 0-.21.141-.35.142-.139.707-.139.848-.139h.707c.141 0 .636 0 .848.07.212.07.636-.35.777-.35.141 0 .353.21.353.28 0 .07.141.07.141 0v-.488c.354.07.848.209 1.131.279l.283-.14.282-.14c.354-.07.777-.139.99-.209.14-.07.494.21.565.14v-.07l.07-.07c.07 0 .283 0 .495.07h.424c.282-.07.565-.14.706-.14.142 0 .636-.07.848-.07.212 0 .99-.07 1.201 0 .212 0 .99-.209 1.201-.209.212 0 .848.07.99 0 .07-.07.494.07.636 0 .07-.07.423.07.494 0 .07-.07.283-.14.353-.07.071.21.354.28.495.28.141 0 .636-.07.848-.07.212 0 .777-.07.918 0 .142 0 .636-.07.707-.07.141-.07.565-.07.777-.14.212-.07.848.21.919.28.14.07.282-.28.353-.35h.07l.283.14c.283-.07.565-.209.636-.209.141.07.353.14.494.14l.142-.07c.141 0 .353 0 .424-.07.07-.07.494 0 .636.07h.282c.142 0 .424-.07.566-.07.211 0 .847 0 1.06.14l.282-.21c.141-.14.495.07.707-.14 0 0 .14.07.282.07l.424.07c.495-.07.919-.14 1.06-.21.141-.069.494.07.565 0 .07-.069.424.14.495.14.07 0 .282 0 .494.07.212.07.919-.14 1.272-.14l.283.21h.07c.071 0 .283 0 .354-.14.07-.07.282-.14.494-.14.142 0 .848 0 1.201.07l.212-.07c.07-.069.353 0 .495 0l.282-.139c.283.14.566.21.636.21.071 0 .495-.07.636 0l.142.07c.14.07.211-.28.423-.07 0 0 .212-.07.354-.07h.212c.212.07.424.07.494.14h.777c.283 0 .919-.21.99-.21.07 0 .424.21.565.28l.212-.21.283-.349c.423.14.918.28 1.13.349.141 0 .919-.21 1.06-.28.141-.069.636-.069.848-.139l.141.07.141.07c.142.14.283.14.424 0l.142-.07c.07 0 .212 0 .282.07.07.07.353.14.495.07.07-.07.777-.07.989 0 .141.07.494 0 .636.07.141 0 .424-.07.565-.07.141 0 .565-.07.706-.14.142-.07.778.14 1.06.21l.212-.21h.212l.424.07c.424.07.919 0 1.13-.07.213-.07.92.14 1.202.14l.212-.07.212-.07c.212 0 .565-.07.777-.07.212-.07.777.21.848.21h.07l.566-.21c.636 0 1.342.07 1.483.07.142 0 .778.07.99.21l.212-.35.07-.14c.283.07.565.21.636.28.07.07.495-.14.565-.14.142 0 .495.14.566.14l.07-.07.283-.21c.283.14.636.21.777.28.212 0 .707-.07.848-.14.141-.07.565.07.636.07.07 0 .282-.14.353-.21.07-.069.353.07.424-.069l.212.07.212.07c.353-.07.848-.14 1.06-.21.212-.07.848.07.918.07.07 0 .495 0 .707.07h.211c.071-.07.213-.07.213 0s.212.349.353.279l.707-.349c.14-.07.918-.07 1.06 0 .14 0 .565-.14.777-.21.14 0 .777 0 .918.07.141.07.919 0 1.343 0l.211-.139.212-.14c.142.07.283.21.354.28.07.07.636-.07.989-.14.282-.07 1.272-.07 1.342 0 .142.07.636.07.778 0 .212 0 .777-.07.989-.07.212 0 .706-.14.777-.14.07-.07.353.14.424.14.141-.07.353-.14.494-.14.142 0 .283.07.495.07h.212c.212 0 .565-.07.707-.07.14 0 .494.14.565.07l.07-.07h.071c.07 0 .353 0 .565.07.212.07 1.343-.07 1.484-.07l.141.07.212.07c.142-.07.424-.14.566-.07l.14-.07.213-.07c.212-.139.494-.209.636-.139.141.07.565 0 .777 0 .141-.07.495 0 .636-.07.141 0 .494.07.636.07h.494c.07.07.353.14.495.07.212-.07 1.342 0 1.766-.07.424 0 1.13-.209 1.272-.209l.212.07.353.07h1.13l.142-.07.212-.07c.283 0 .636 0 .777.07h1.06c.141 0 .495 0 .848-.07l.353-.07.283-.07c.282-.07.565-.07.636-.07 0 0 .212.07.353.07s.706.07.848.07c.141.07.494.14.565.14.071-.07.283-.14.424-.14.071 0 .494-.14.706-.21.212 0 1.06 0 1.414-.069.353 0 1.342.07 1.483.07.142 0 .636-.14.707-.14.07 0 .282 0 .353.07.071 0 .565-.07.989-.14l.354.07h.282c.212-.07.565-.14.777-.07h.424c.212-.07.566-.07.707.07.141.07.777-.279 1.13-.279l.283.21s.141 0 .141-.07l.071-.07c0-.07.141-.14.283-.21.141 0 .494.14.635.14.142.07.707 0 .848.07.142.07.424 0 .565 0 .142 0 .566.07.778.07.212 0 .918-.14 1.13-.07l.071-.07c.282-.21.353.14.565.07l.212-.07c.212-.14.424-.279.636-.279.141 0 .777 0 .918.07h.848c.142-.07.707.07.848.07.141.07.707 0 .989-.07l.283.07c.212.07.494.07.636-.14l.636-.07c.636.21 1.271.14 1.907 0 .212-.07.495.28.707 0 .071-.07.494-.07.706 0h.142c.141.07.353.07.424.07.07 0 .282-.07.424-.21.141-.07.494.21.636.21.141 0 .423-.14.494-.14.071 0 .353.14.495.21h.141c.141 0 .283-.07.424-.14l.212-.07c.212.07.494.14.565.14.071 0 .283-.07.353-.07.071-.07.354.07.495.07h.071c.07-.07.141-.14.212-.14.141 0 .353.14.494.07.212 0 .424-.14.565-.14h.212c.212 0 .495 0 .636-.07l.142.14.07.07c.142 0 .495.07.777.07.212 0 .99-.14 1.131-.07.141.07 1.06 0 1.625.07l.565-.21a.788.788 0 01.565 0l.283.14c.212-.07.565-.21.707-.279h.141c.141 0 .283.07.424.14l.07.07c.071.07.495.14.99.14.494 0 1.625-.28 1.695-.28.071 0 .071.07.142.07.07 0 .424 0 .636-.07.212 0 .918-.07 1.13-.07.212 0 .848.21.989.28.142.07.707-.07.777 0 .142.07.707-.21.919-.28l.283.21.141.07c.353-.07.989-.14 1.342-.21h.636c.353.07.848 0 1.06-.14l.283.21c.212.14.494-.28.847-.07.283.21.495.14.707-.07h.071l.212.07c.212 0 .494.07.636.07.07 0 .494-.14.706-.14h.565c.424 0 1.06 0 1.484-.07h.565c.283.07.566.14.707.14.141 0 .424-.07.565-.07.071 0 .424.14.495.14l.212-.28c-.354.42.353.559.424.629z" fill="#6FB2A5"/><path d="M161.326 60.28c.07.07.282 0 .423-.14.142.21.283-.07.354 0 .212.14.353.14.565 0 .071-.07.353.21.495.21h.141c.212-.07.424-.07.565-.07.141 0 .707.14.989.209l.212-.14h.142c.211.07.494.21.706.21h.212c.212-.14.283 0 .283.21l.353-.28.283-.21c.282.14.706.14.918.07.212-.07.848.28 1.06.21.212 0 .989.21 1.201.279v-.28l.141-.069.283.21c.353-.07.706 0 .848.07.141.069.565-.14.706-.07.142.07.566.139.707.07.141-.07.989-.07 1.413 0l.424.139c.141.07.353-.14.565-.14h.141c.142.07.354.07.424 0l.354.28c.424-.14.847-.14.918.069.071.21.424.628.495.628.07 0 .353 0 .353.07s-.071.279-.212.349c-.141.07-.141.697-.424.977l.071.418v.07c0 .14-.071.21-.142.21-.07-.07-.211-.07-.282.07.424.139-.071.418.141.627v.14l-.282.14c0 .209-.354.418-.707.488l-.353-.28-.071-.07c-.212.07-.565.14-.777.21-.212 0-.919-.07-1.131 0h-.424c-.212 0-.423-.07-.494-.07h-.495c-.07 0-.777.07-1.342.07-.495 0-2.12 0-2.402-.07-.283 0-1.06.21-1.131.21h-.424c-.424-.07-.918-.07-1.13-.07-.212.07-.848-.07-.989-.07-.142 0-.707.07-.919 0-.212-.07-1.13.07-1.554.07h-1.696c-.283 0-.636.07-.707 0-.212-.21-.424.07-.565-.14 0-.07-.212-.07-.282 0-.212 0-.495.14-.566.07l-.282-.21c-.212.14-.495.21-.636.14-.142-.07-.424-.07-.636-.14-.141-.069-.636.14-.848.07-.141-.07-.636.21-.777.21-.141 0-.777-.21-1.06-.28l-.283.21-.141.28c-.424-.07-.848-.14-.989-.21-.071-.07-.495-.07-.707-.14-.212-.07-1.059.28-1.483.42l-.283-.35s-.212-.07-.283 0c-.282.21-.635-.14-.989.07-.07.07-.282.07-.424.07-.282 0-.494-.14-.777-.14h-.212c-.282.07-.565.14-.706.07-.142 0-.636 0-.778-.07-.141-.07-.565.14-.777.21-.141.07-.565-.21-.706-.14-.142.07-.848 0-1.131 0h-.212c-.212 0-.494.07-.706.07h-.424c-.495-.07-1.272-.07-1.767-.07l-.424.14-.353.07a8.796 8.796 0 00-1.413-.14h-5.087c-.283.07-.495.14-.565.14-.071 0-.424-.07-.707-.07-.282-.07-1.907.07-2.049 0-.141-.07-.424 0-.565-.07-.141 0-.707.14-.989.14h-4.946c-.283 0-1.272 0-2.049.07-.848 0-3.25.208-3.603.278l-.071-.07-.212-.14c-.141.14-.495.14-.707 0l-.282.21c-.141.07-.495 0-.777 0h-.424c-.424 0-.989 0-1.201.07-.212.07-.848-.14-1.06-.28l-.142.21-.212.28c-.141-.14-.494-.28-.706-.21-.212 0-.989.07-1.201.07-.212 0-.919.07-1.201.07h-.566c-.353 0-.777.07-.989.07-.212.07-.706.07-.989.209l-.353-.07c-.283-.07-.636 0-.919 0h-.353c-.353 0-.777.07-.989.14h-.283c-.212-.07-.918-.14-1.695-.07-.778 0-2.827.209-2.968.348l-.212-.209c-.07-.07-.353.07-.565.07h-.212c-.212 0-.495-.07-.707-.21-.212-.139-.847.21-1.06.21h-1.13c-.212 0-.99.07-1.201.07h-.212c-.212 0-.424-.07-.636-.07h-1.908c-.353 0-1.483.14-1.766.14h-.494c-.354.07-.778.07-.919 0-.141-.07-.777.209-.99.209H86.29c-.282 0-1.413 0-1.978.07s-2.473.07-3.038.07-2.12 0-2.261.07c-.141.069-.636-.07-.777-.14-.142 0-.707.209-.99.209H75.48c-.424 0-1.907 0-2.331.07-.424.07-2.261.07-3.038.07h-3.675l-.14.14c-.142.139-.284-.28-.566 0l-.07.069c-.213 0-.495 0-.637.07-.141.07-.777-.14-1.13-.07h-2.826c-2.756 0-5.229-.07-5.582-.14l-.283.21-.07.07c-.142 0-.354-.07-.566-.07-.212 0-.777 0-.847.07-.071.07-.354-.07-.495-.07-.07 0-.495.07-.706.07h-.212l-.707-.14h-.212c-.212 0-.424-.07-.424-.14-.07-.07-.424.07-.636.07h-.141c-.07 0-.212-.07-.212-.07l-.707.28c-.777-.07-1.978-.14-2.755-.14h-2.473c-.424 0-.99 0-1.201-.07-.212 0-.99.28-1.343.419l-.212-.35c0-.069-.212-.069-.282 0l-.353.21c-.354-.07-.919-.14-1.343-.07h-6.147c-.353 0-.918 0-1.201-.07-.283-.07-1.13.21-1.201.14-.07-.07-.777-.07-1.201-.07-.424 0-1.767.14-1.908.14-.141 0-.636 0-.777-.07-.141-.07-.636.14-.777.14-.142 0-.636-.14-.848-.07-.212.07-.848.07-1.06.14-.212 0-.777-.14-.918-.07-.142 0-.778.07-1.131.07s-1.766 0-2.402-.07l-.495.279-.07.07c-.142 0-.495-.07-.848 0l-.212-.07-.424-.419c-.212.14-.566.21-.777.14l-.212.07-.283.07c-.353 0-.707-.07-.848 0-.141 0-1.13-.21-2.049-.28l-.706.35-.283.139c-.283-.07-.707-.07-.848-.07h-1.06c-.212 0-.636-.07-.706-.07h-.777c-.212 0-1.06 0-1.272-.07h-.99c-.14-.07-.565.14-.635.14-.07-.07-.283-.14-.354-.07-.07.07-.423.14-.635.14H3.766c-.07-.14-.212-.21-.212-.21s-.141.07-.141.14-.495.07-.848 0H2.07c-.283 0-.494 0-.424-.07.07 0 .141-.14.07-.21-.07-.069-.14-.418-.07-.558.07-.07.07-.348-.07-.348-.142 0-.354.07-.354.07v.209c-.07 0-.212-.07-.353-.14-.07-.07-.636-.279-.707-.349-.07-.14-.282-.488-.07-.558.212-.07.424.419.565.558h.141c.071 0 .142-.07.142-.14 0-.069-.071-.139-.071-.139-.07 0-.212 0-.212-.07s.141-.279.353-.349c.212-.07.777-.279.777-.348 0-.07.071-.35.142-.28.07.14.424.35.565.21l.07-.14c.071-.14.071-.14.213-.07l.07.07h.848c.353 0 1.06-.279.99-.279-.071 0 .14-.21.706-.349l.565.21c.141.07.212.07.353.07h.071c.141-.07.212-.14.07-.21-.07-.07-.211-.349-.14-.349h.07c.07 0 .212.14.283.07l.353-.14c.212.21.424.35.495.35.07 0 .423 0 .282-.07-.07-.07 0-.21.141-.35.142-.139.707-.139.848-.139h.707c.141 0 .636 0 .848.07.212.07.636-.35.777-.35.141 0 .353.21.353.28 0 .07.141.07.141 0v-.488c.354.07.848.209 1.131.279l.283-.14.282-.14c.354-.07.777-.139.99-.209.14-.07.494.21.565.14v-.07l.07-.07c.07 0 .283 0 .495.07h.424c.282-.07.565-.14.706-.14.142 0 .636-.07.848-.07.212 0 .99-.07 1.201 0 .212 0 .99-.209 1.201-.209.212 0 .848.07.99 0 .07-.07.494.07.636 0 .07-.07.423.07.494 0 .07-.07.283-.14.353-.07.071.21.354.28.495.28.141 0 .636-.07.848-.07.212 0 .777-.07.918 0 .142 0 .636-.07.707-.07.141-.07.565-.07.777-.14.212-.07.848.21.919.28.14.07.282-.28.353-.35h.07l.283.14c.283-.07.565-.209.636-.209.141.07.353.14.494.14l.142-.07c.141 0 .353 0 .424-.07.07-.07.494 0 .636.07h.282c.142 0 .424-.07.566-.07.211 0 .847 0 1.06.14l.282-.21c.141-.14.495.07.707-.14 0 0 .14.07.282.07l.424.07c.495-.07.919-.14 1.06-.21.141-.069.494.07.565 0 .07-.069.424.14.495.14.07 0 .282 0 .494.07.212.07.919-.14 1.272-.14l.283.21h.07c.071 0 .283 0 .354-.14.07-.07.282-.14.494-.14.142 0 .848 0 1.201.07l.212-.07c.07-.069.353 0 .495 0l.282-.139c.283.14.566.21.636.21.071 0 .495-.07.636 0l.142.07c.14.07.211-.28.423-.07 0 0 .212-.07.354-.07h.212c.212.07.424.07.494.14h.777c.283 0 .919-.21.99-.21.07 0 .424.21.565.28l.212-.21.283-.349c.423.14.918.28 1.13.349.141 0 .919-.21 1.06-.28.141-.069.636-.069.848-.139l.141.07.141.07c.142.14.283.14.424 0l.142-.07c.07 0 .212 0 .282.07.07.07.353.14.495.07.07-.07.777-.07.989 0 .141.07.494 0 .636.07.141 0 .424-.07.565-.07.141 0 .565-.07.706-.14.142-.07.778.14 1.06.21l.212-.21h.212l.424.07c.424.07.919 0 1.13-.07.213-.07.92.14 1.202.14l.212-.07.212-.07c.212 0 .565-.07.777-.07.212-.07.777.21.848.21h.07l.566-.21c.636 0 1.342.07 1.483.07.142 0 .778.07.99.21l.212-.35.07-.14c.283.07.565.21.636.28.07.07.495-.14.565-.14.142 0 .495.14.566.14l.07-.07.283-.21c.283.14.636.21.777.28.212 0 .707-.07.848-.14.141-.07.565.07.636.07.07 0 .282-.14.353-.21.07-.069.353.07.424-.069l.212.07.212.07c.353-.07.848-.14 1.06-.21.212-.07.848.07.918.07.07 0 .495 0 .707.07h.211c.071-.07.213-.07.213 0s.212.349.353.279l.707-.349c.14-.07.918-.07 1.06 0 .14 0 .565-.14.777-.21.14 0 .777 0 .918.07.141.07.919 0 1.343 0l.211-.139.212-.14c.142.07.283.21.354.28.07.07.636-.07.989-.14.282-.07 1.272-.07 1.342 0 .142.07.636.07.778 0 .212 0 .777-.07.989-.07.212 0 .706-.14.777-.14.07-.07.353.14.424.14.141-.07.353-.14.494-.14.142 0 .283.07.495.07h.212c.212 0 .565-.07.707-.07.14 0 .494.14.565.07l.07-.07h.071c.07 0 .353 0 .565.07.212.07 1.343-.07 1.484-.07l.141.07.212.07c.142-.07.424-.14.566-.07l.14-.07.213-.07c.212-.139.494-.209.636-.139.141.07.565 0 .777 0 .141-.07.495 0 .636-.07.141 0 .494.07.636.07h.494c.07.07.353.14.495.07.212-.07 1.342 0 1.766-.07.424 0 1.13-.209 1.272-.209l.212.07.353.07h1.13l.142-.07.212-.07c.283 0 .636 0 .777.07h1.06c.141 0 .495 0 .848-.07l.353-.07.283-.07c.282-.07.565-.07.636-.07 0 0 .212.07.353.07s.706.07.848.07c.141.07.494.14.565.14.071-.07.283-.14.424-.14.071 0 .494-.14.706-.21.212 0 1.06 0 1.414-.069.353 0 1.342.07 1.483.07.142 0 .636-.14.707-.14.07 0 .282 0 .353.07.071 0 .565-.07.989-.14l.354.07h.282c.212-.07.565-.14.777-.07h.424c.212-.07.566-.07.707.07.141.07.777-.279 1.13-.279l.283.21s.141 0 .141-.07l.071-.07c0-.07.141-.14.283-.21.141 0 .494.14.635.14.142.07.707 0 .848.07.142.07.424 0 .565 0 .142 0 .566.07.778.07.212 0 .918-.14 1.13-.07l.071-.07c.282-.21.353.14.565.07l.212-.07c.212-.14.424-.279.636-.279.141 0 .777 0 .918.07h.848c.142-.07.707.07.848.07.141.07.707 0 .989-.07l.283.07c.212.07.494.07.636-.14l.636-.07c.636.21 1.271.14 1.907 0 .212-.07.495.28.707 0 .071-.07.494-.07.706 0h.142c.141.07.353.07.424.07.07 0 .282-.07.424-.21.141-.07.494.21.636.21.141 0 .423-.14.494-.14.071 0 .353.14.495.21h.141c.141 0 .283-.07.424-.14l.212-.07c.212.07.494.14.565.14.071 0 .283-.07.353-.07.071-.07.354.07.495.07h.071c.07-.07.141-.14.212-.14.141 0 .353.14.494.07.212 0 .424-.14.565-.14h.212c.212 0 .495 0 .636-.07l.142.14.07.07c.142 0 .495.07.777.07.212 0 .99-.14 1.131-.07.141.07 1.06 0 1.625.07l.565-.21a.788.788 0 01.565 0l.283.14c.212-.07.565-.21.707-.279h.141c.141 0 .283.07.424.14l.07.07c.071.07.495.14.99.14.494 0 1.625-.28 1.695-.28.071 0 .071.07.142.07.07 0 .424 0 .636-.07.212 0 .918-.07 1.13-.07.212 0 .848.21.989.28.142.07.707-.07.777 0 .142.07.707-.21.919-.28l.283.21.141.07c.353-.07.989-.14 1.342-.21h.636c.353.07.848 0 1.06-.14l.283.21c.212.14.494-.28.847-.07.283.21.495.14.707-.07h.071l.212.07c.212 0 .494.07.636.07.07 0 .494-.14.706-.14h.565c.424 0 1.06 0 1.484-.07h.565c.283.07.566.14.707.14.141 0 .424-.07.565-.07.071 0 .424.14.495.14l.212-.28c-.354.42.353.559.424.629z" fill="#D9D9D9"/><path d="M161.326 60.28c.07.07.282 0 .423-.14.142.21.283-.07.354 0 .212.14.353.14.565 0 .071-.07.353.21.495.21h.141c.212-.07.424-.07.565-.07.141 0 .707.14.989.209l.212-.14h.142c.211.07.494.21.706.21h.212c.212-.14.283 0 .283.21l.353-.28.283-.21c.282.14.706.14.918.07.212-.07.848.28 1.06.21.212 0 .989.21 1.201.279v-.28l.141-.069.283.21c.353-.07.706 0 .848.07.141.069.565-.14.706-.07.142.07.566.139.707.07.141-.07.989-.07 1.413 0l.424.139c.141.07.353-.14.565-.14h.141c.142.07.354.07.424 0l.354.28c.424-.14.847-.14.918.069.071.21.424.628.495.628.07 0 .353 0 .353.07s-.071.279-.212.349c-.141.07-.141.697-.424.977l.071.418v.07c0 .14-.071.21-.142.21-.07-.07-.211-.07-.282.07.424.139-.071.418.141.627v.14l-.282.14c0 .209-.354.418-.707.488l-.353-.28-.071-.07c-.212.07-.565.14-.777.21-.212 0-.919-.07-1.131 0h-.424c-.212 0-.423-.07-.494-.07h-.495c-.07 0-.777.07-1.342.07-.495 0-2.12 0-2.402-.07-.283 0-1.06.21-1.131.21h-.424c-.424-.07-.918-.07-1.13-.07-.212.07-.848-.07-.989-.07-.142 0-.707.07-.919 0-.212-.07-1.13.07-1.554.07h-1.696c-.283 0-.636.07-.707 0-.212-.21-.424.07-.565-.14 0-.07-.212-.07-.282 0-.212 0-.495.14-.566.07l-.282-.21c-.212.14-.495.21-.636.14-.142-.07-.424-.07-.636-.14-.141-.069-.636.14-.848.07-.141-.07-.636.21-.777.21-.141 0-.777-.21-1.06-.28l-.283.21-.141.28c-.424-.07-.848-.14-.989-.21-.071-.07-.495-.07-.707-.14-.212-.07-1.059.28-1.483.42l-.283-.35s-.212-.07-.283 0c-.282.21-.635-.14-.989.07-.07.07-.282.07-.424.07-.282 0-.494-.14-.777-.14h-.212c-.282.07-.565.14-.706.07-.142 0-.636 0-.778-.07-.141-.07-.565.14-.777.21-.141.07-.565-.21-.706-.14-.142.07-.848 0-1.131 0h-.212c-.212 0-.494.07-.706.07h-.424c-.495-.07-1.272-.07-1.767-.07l-.424.14-.353.07a8.796 8.796 0 00-1.413-.14h-5.087c-.283.07-.495.14-.565.14-.071 0-.424-.07-.707-.07-.282-.07-1.907.07-2.049 0-.141-.07-.424 0-.565-.07-.141 0-.707.14-.989.14h-4.946c-.283 0-1.272 0-2.049.07-.848 0-3.25.208-3.603.278l-.071-.07-.212-.14c-.141.14-.495.14-.707 0l-.282.21c-.141.07-.495 0-.777 0h-.424c-.424 0-.989 0-1.201.07-.212.07-.848-.14-1.06-.28l-.142.21-.212.28c-.141-.14-.494-.28-.706-.21-.212 0-.989.07-1.201.07-.212 0-.919.07-1.201.07h-.566c-.353 0-.777.07-.989.07-.212.07-.706.07-.989.209l-.353-.07c-.283-.07-.636 0-.919 0h-.353c-.353 0-.777.07-.989.14h-.283c-.212-.07-.918-.14-1.695-.07-.778 0-2.827.209-2.968.348l-.212-.209c-.07-.07-.353.07-.565.07h-.212c-.212 0-.495-.07-.707-.21-.212-.139-.847.21-1.06.21h-1.13c-.212 0-.99.07-1.201.07h-.212c-.212 0-.424-.07-.636-.07h-1.908c-.353 0-1.483.14-1.766.14h-.494c-.354.07-.778.07-.919 0-.141-.07-.777.209-.99.209H86.29c-.282 0-1.413 0-1.978.07s-2.473.07-3.038.07-2.12 0-2.261.07c-.141.069-.636-.07-.777-.14-.142 0-.707.209-.99.209H75.48c-.424 0-1.907 0-2.331.07-.424.07-2.261.07-3.038.07h-3.675l-.14.14c-.142.139-.284-.28-.566 0l-.07.069c-.213 0-.495 0-.637.07-.141.07-.777-.14-1.13-.07h-2.826c-2.756 0-5.229-.07-5.582-.14l-.283.21-.07.07c-.142 0-.354-.07-.566-.07-.212 0-.777 0-.847.07-.071.07-.354-.07-.495-.07-.07 0-.495.07-.706.07h-.212l-.707-.14h-.212c-.212 0-.424-.07-.424-.14-.07-.07-.424.07-.636.07h-.141c-.07 0-.212-.07-.212-.07l-.707.28c-.777-.07-1.978-.14-2.755-.14h-2.473c-.424 0-.99 0-1.201-.07-.212 0-.99.28-1.343.419l-.212-.35c0-.069-.212-.069-.282 0l-.353.21c-.354-.07-.919-.14-1.343-.07h-6.147c-.353 0-.918 0-1.201-.07-.283-.07-1.13.21-1.201.14-.07-.07-.777-.07-1.201-.07-.424 0-1.767.14-1.908.14-.141 0-.636 0-.777-.07-.141-.07-.636.14-.777.14-.142 0-.636-.14-.848-.07-.212.07-.848.07-1.06.14-.212 0-.777-.14-.918-.07-.142 0-.778.07-1.131.07s-1.766 0-2.402-.07l-.495.279-.07.07c-.142 0-.495-.07-.848 0l-.212-.07-.424-.419c-.212.14-.566.21-.777.14l-.212.07-.283.07c-.353 0-.707-.07-.848 0-.141 0-1.13-.21-2.049-.28l-.706.35-.283.139c-.283-.07-.707-.07-.848-.07h-1.06c-.212 0-.636-.07-.706-.07h-.777c-.212 0-1.06 0-1.272-.07h-.99c-.14-.07-.565.14-.635.14-.07-.07-.283-.14-.354-.07-.07.07-.423.14-.635.14H3.766c-.07-.14-.212-.21-.212-.21s-.141.07-.141.14-.495.07-.848 0H2.07c-.283 0-.494 0-.424-.07.07 0 .141-.14.07-.21-.07-.069-.14-.418-.07-.558.07-.07.07-.348-.07-.348-.142 0-.354.07-.354.07v.209c-.07 0-.212-.07-.353-.14-.07-.07-.636-.279-.707-.349-.07-.14-.282-.488-.07-.558.212-.07.424.419.565.558h.141c.071 0 .142-.07.142-.14 0-.069-.071-.139-.071-.139-.07 0-.212 0-.212-.07s.141-.279.353-.349c.212-.07.777-.279.777-.348 0-.07.071-.35.142-.28.07.14.424.35.565.21l.07-.14c.071-.14.071-.14.213-.07l.07.07h.848c.353 0 1.06-.279.99-.279-.071 0 .14-.21.706-.349l.565.21c.141.07.212.07.353.07h.071c.141-.07.212-.14.07-.21-.07-.07-.211-.349-.14-.349h.07c.07 0 .212.14.283.07l.353-.14c.212.21.424.35.495.35.07 0 .423 0 .282-.07-.07-.07 0-.21.141-.35.142-.139.707-.139.848-.139h.707c.141 0 .636 0 .848.07.212.07.636-.35.777-.35.141 0 .353.21.353.28 0 .07.141.07.141 0v-.488c.354.07.848.209 1.131.279l.283-.14.282-.14c.354-.07.777-.139.99-.209.14-.07.494.21.565.14v-.07l.07-.07c.07 0 .283 0 .495.07h.424c.282-.07.565-.14.706-.14.142 0 .636-.07.848-.07.212 0 .99-.07 1.201 0 .212 0 .99-.209 1.201-.209.212 0 .848.07.99 0 .07-.07.494.07.636 0 .07-.07.423.07.494 0 .07-.07.283-.14.353-.07.071.21.354.28.495.28.141 0 .636-.07.848-.07.212 0 .777-.07.918 0 .142 0 .636-.07.707-.07.141-.07.565-.07.777-.14.212-.07.848.21.919.28.14.07.282-.28.353-.35h.07l.283.14c.283-.07.565-.209.636-.209.141.07.353.14.494.14l.142-.07c.141 0 .353 0 .424-.07.07-.07.494 0 .636.07h.282c.142 0 .424-.07.566-.07.211 0 .847 0 1.06.14l.282-.21c.141-.14.495.07.707-.14 0 0 .14.07.282.07l.424.07c.495-.07.919-.14 1.06-.21.141-.069.494.07.565 0 .07-.069.424.14.495.14.07 0 .282 0 .494.07.212.07.919-.14 1.272-.14l.283.21h.07c.071 0 .283 0 .354-.14.07-.07.282-.14.494-.14.142 0 .848 0 1.201.07l.212-.07c.07-.069.353 0 .495 0l.282-.139c.283.14.566.21.636.21.071 0 .495-.07.636 0l.142.07c.14.07.211-.28.423-.07 0 0 .212-.07.354-.07h.212c.212.07.424.07.494.14h.777c.283 0 .919-.21.99-.21.07 0 .424.21.565.28l.212-.21.283-.349c.423.14.918.28 1.13.349.141 0 .919-.21 1.06-.28.141-.069.636-.069.848-.139l.141.07.141.07c.142.14.283.14.424 0l.142-.07c.07 0 .212 0 .282.07.07.07.353.14.495.07.07-.07.777-.07.989 0 .141.07.494 0 .636.07.141 0 .424-.07.565-.07.141 0 .565-.07.706-.14.142-.07.778.14 1.06.21l.212-.21h.212l.424.07c.424.07.919 0 1.13-.07.213-.07.92.14 1.202.14l.212-.07.212-.07c.212 0 .565-.07.777-.07.212-.07.777.21.848.21h.07l.566-.21c.636 0 1.342.07 1.483.07.142 0 .778.07.99.21l.212-.35.07-.14c.283.07.565.21.636.28.07.07.495-.14.565-.14.142 0 .495.14.566.14l.07-.07.283-.21c.283.14.636.21.777.28.212 0 .707-.07.848-.14.141-.07.565.07.636.07.07 0 .282-.14.353-.21.07-.069.353.07.424-.069l.212.07.212.07c.353-.07.848-.14 1.06-.21.212-.07.848.07.918.07.07 0 .495 0 .707.07h.211c.071-.07.213-.07.213 0s.212.349.353.279l.707-.349c.14-.07.918-.07 1.06 0 .14 0 .565-.14.777-.21.14 0 .777 0 .918.07.141.07.919 0 1.343 0l.211-.139.212-.14c.142.07.283.21.354.28.07.07.636-.07.989-.14.282-.07 1.272-.07 1.342 0 .142.07.636.07.778 0 .212 0 .777-.07.989-.07.212 0 .706-.14.777-.14.07-.07.353.14.424.14.141-.07.353-.14.494-.14.142 0 .283.07.495.07h.212c.212 0 .565-.07.707-.07.14 0 .494.14.565.07l.07-.07h.071c.07 0 .353 0 .565.07.212.07 1.343-.07 1.484-.07l.141.07.212.07c.142-.07.424-.14.566-.07l.14-.07.213-.07c.212-.139.494-.209.636-.139.141.07.565 0 .777 0 .141-.07.495 0 .636-.07.141 0 .494.07.636.07h.494c.07.07.353.14.495.07.212-.07 1.342 0 1.766-.07.424 0 1.13-.209 1.272-.209l.212.07.353.07h1.13l.142-.07.212-.07c.283 0 .636 0 .777.07h1.06c.141 0 .495 0 .848-.07l.353-.07.283-.07c.282-.07.565-.07.636-.07 0 0 .212.07.353.07s.706.07.848.07c.141.07.494.14.565.14.071-.07.283-.14.424-.14.071 0 .494-.14.706-.21.212 0 1.06 0 1.414-.069.353 0 1.342.07 1.483.07.142 0 .636-.14.707-.14.07 0 .282 0 .353.07.071 0 .565-.07.989-.14l.354.07h.282c.212-.07.565-.14.777-.07h.424c.212-.07.566-.07.707.07.141.07.777-.279 1.13-.279l.283.21s.141 0 .141-.07l.071-.07c0-.07.141-.14.283-.21.141 0 .494.14.635.14.142.07.707 0 .848.07.142.07.424 0 .565 0 .142 0 .566.07.778.07.212 0 .918-.14 1.13-.07l.071-.07c.282-.21.353.14.565.07l.212-.07c.212-.14.424-.279.636-.279.141 0 .777 0 .918.07h.848c.142-.07.707.07.848.07.141.07.707 0 .989-.07l.283.07c.212.07.494.07.636-.14l.636-.07c.636.21 1.271.14 1.907 0 .212-.07.495.28.707 0 .071-.07.494-.07.706 0h.142c.141.07.353.07.424.07.07 0 .282-.07.424-.21.141-.07.494.21.636.21.141 0 .423-.14.494-.14.071 0 .353.14.495.21h.141c.141 0 .283-.07.424-.14l.212-.07c.212.07.494.14.565.14.071 0 .283-.07.353-.07.071-.07.354.07.495.07h.071c.07-.07.141-.14.212-.14.141 0 .353.14.494.07.212 0 .424-.14.565-.14h.212c.212 0 .495 0 .636-.07l.142.14.07.07c.142 0 .495.07.777.07.212 0 .99-.14 1.131-.07.141.07 1.06 0 1.625.07l.565-.21a.788.788 0 01.565 0l.283.14c.212-.07.565-.21.707-.279h.141c.141 0 .283.07.424.14l.07.07c.071.07.495.14.99.14.494 0 1.625-.28 1.695-.28.071 0 .071.07.142.07.07 0 .424 0 .636-.07.212 0 .918-.07 1.13-.07.212 0 .848.21.989.28.142.07.707-.07.777 0 .142.07.707-.21.919-.28l.283.21.141.07c.353-.07.989-.14 1.342-.21h.636c.353.07.848 0 1.06-.14l.283.21c.212.14.494-.28.847-.07.283.21.495.14.707-.07h.071l.212.07c.212 0 .494.07.636.07.07 0 .494-.14.706-.14h.565c.424 0 1.06 0 1.484-.07h.565c.283.07.566.14.707.14.141 0 .424-.07.565-.07.071 0 .424.14.495.14l.212-.28c-.354.42.353.559.424.629z" fill="#FCFBF0"/><path d="M161.326 60.28c.07.07.282 0 .423-.14.142.21.283-.07.354 0 .212.14.353.14.565 0 .071-.07.353.21.495.21h.141c.212-.07.424-.07.565-.07.141 0 .707.14.989.209l.212-.14h.142c.211.07.494.21.706.21h.212c.212-.14.283 0 .283.21l.353-.28.283-.21c.282.14.706.14.918.07.212-.07.848.28 1.06.21.212 0 .989.21 1.201.279v-.28l.141-.069.283.21c.353-.07.706 0 .848.07.141.069.565-.14.706-.07.142.07.566.139.707.07.141-.07.989-.07 1.413 0l.424.139c.141.07.353-.14.565-.14h.141c.142.07.354.07.424 0l.354.28c.424-.14.847-.14.918.069.071.21.424.628.495.628.07 0 .353 0 .353.07s-.071.279-.212.349c-.141.07-.141.697-.424.977l.071.418v.07c0 .14-.071.21-.142.21-.07-.07-.211-.07-.282.07.424.139-.071.418.141.627v.14l-.282.14c0 .209-.354.418-.707.488l-.353-.28-.071-.07c-.212.07-.565.14-.777.21-.212 0-.919-.07-1.131 0h-.424c-.212 0-.423-.07-.494-.07h-.495c-.07 0-.777.07-1.342.07-.495 0-2.12 0-2.402-.07-.283 0-1.06.21-1.131.21h-.424c-.424-.07-.918-.07-1.13-.07-.212.07-.848-.07-.989-.07-.142 0-.707.07-.919 0-.212-.07-1.13.07-1.554.07h-1.696c-.283 0-.636.07-.707 0-.212-.21-.424.07-.565-.14 0-.07-.212-.07-.282 0-.212 0-.495.14-.566.07l-.282-.21c-.212.14-.495.21-.636.14-.142-.07-.424-.07-.636-.14-.141-.069-.636.14-.848.07-.141-.07-.636.21-.777.21-.141 0-.777-.21-1.06-.28l-.283.21-.141.28c-.424-.07-.848-.14-.989-.21-.071-.07-.495-.07-.707-.14-.212-.07-1.059.28-1.483.42l-.283-.35s-.212-.07-.283 0c-.282.21-.635-.14-.989.07-.07.07-.282.07-.424.07-.282 0-.494-.14-.777-.14h-.212c-.282.07-.565.14-.706.07-.142 0-.636 0-.778-.07-.141-.07-.565.14-.777.21-.141.07-.565-.21-.706-.14-.142.07-.848 0-1.131 0h-.212c-.212 0-.494.07-.706.07h-.424c-.495-.07-1.272-.07-1.767-.07l-.424.14-.353.07a8.796 8.796 0 00-1.413-.14h-5.087c-.283.07-.495.14-.565.14-.071 0-.424-.07-.707-.07-.282-.07-1.907.07-2.049 0-.141-.07-.424 0-.565-.07-.141 0-.707.14-.989.14h-4.946c-.283 0-1.272 0-2.049.07-.848 0-3.25.208-3.603.278l-.071-.07-.212-.14c-.141.14-.495.14-.707 0l-.282.21c-.141.07-.495 0-.777 0h-.424c-.424 0-.989 0-1.201.07-.212.07-.848-.14-1.06-.28l-.142.21-.212.28c-.141-.14-.494-.28-.706-.21-.212 0-.989.07-1.201.07-.212 0-.919.07-1.201.07h-.566c-.353 0-.777.07-.989.07-.212.07-.706.07-.989.209l-.353-.07c-.283-.07-.636 0-.919 0h-.353c-.353 0-.777.07-.989.14h-.283c-.212-.07-.918-.14-1.695-.07-.778 0-2.827.209-2.968.348l-.212-.209c-.07-.07-.353.07-.565.07h-.212c-.212 0-.495-.07-.707-.21-.212-.139-.847.21-1.06.21h-1.13c-.212 0-.99.07-1.201.07h-.212c-.212 0-.424-.07-.636-.07h-1.908c-.353 0-1.483.14-1.766.14h-.494c-.354.07-.778.07-.919 0-.141-.07-.777.209-.99.209H86.29c-.282 0-1.413 0-1.978.07s-2.473.07-3.038.07-2.12 0-2.261.07c-.141.069-.636-.07-.777-.14-.142 0-.707.209-.99.209H75.48c-.424 0-1.907 0-2.331.07-.424.07-2.261.07-3.038.07h-3.675l-.14.14c-.142.139-.284-.28-.566 0l-.07.069c-.213 0-.495 0-.637.07-.141.07-.777-.14-1.13-.07h-2.826c-2.756 0-5.229-.07-5.582-.14l-.283.21-.07.07c-.142 0-.354-.07-.566-.07-.212 0-.777 0-.847.07-.071.07-.354-.07-.495-.07-.07 0-.495.07-.706.07h-.212l-.707-.14h-.212c-.212 0-.424-.07-.424-.14-.07-.07-.424.07-.636.07h-.141c-.07 0-.212-.07-.212-.07l-.707.28c-.777-.07-1.978-.14-2.755-.14h-2.473c-.424 0-.99 0-1.201-.07-.212 0-.99.28-1.343.419l-.212-.35c0-.069-.212-.069-.282 0l-.353.21c-.354-.07-.919-.14-1.343-.07h-6.147c-.353 0-.918 0-1.201-.07-.283-.07-1.13.21-1.201.14-.07-.07-.777-.07-1.201-.07-.424 0-1.767.14-1.908.14-.141 0-.636 0-.777-.07-.141-.07-.636.14-.777.14-.142 0-.636-.14-.848-.07-.212.07-.848.07-1.06.14-.212 0-.777-.14-.918-.07-.142 0-.778.07-1.131.07s-1.766 0-2.402-.07l-.495.279-.07.07c-.142 0-.495-.07-.848 0l-.212-.07-.424-.419c-.212.14-.566.21-.777.14l-.212.07-.283.07c-.353 0-.707-.07-.848 0-.141 0-1.13-.21-2.049-.28l-.706.35-.283.139c-.283-.07-.707-.07-.848-.07h-1.06c-.212 0-.636-.07-.706-.07h-.777c-.212 0-1.06 0-1.272-.07h-.99c-.14-.07-.565.14-.635.14-.07-.07-.283-.14-.354-.07-.07.07-.423.14-.635.14H3.766c-.07-.14-.212-.21-.212-.21s-.141.07-.141.14-.495.07-.848 0H2.07c-.283 0-.494 0-.424-.07.07 0 .141-.14.07-.21-.07-.069-.14-.418-.07-.558.07-.07.07-.348-.07-.348-.142 0-.354.07-.354.07v.209c-.07 0-.212-.07-.353-.14-.07-.07-.636-.279-.707-.349-.07-.14-.282-.488-.07-.558.212-.07.424.419.565.558h.141c.071 0 .142-.07.142-.14 0-.069-.071-.139-.071-.139-.07 0-.212 0-.212-.07s.141-.279.353-.349c.212-.07.777-.279.777-.348 0-.07.071-.35.142-.28.07.14.424.35.565.21l.07-.14c.071-.14.071-.14.213-.07l.07.07h.848c.353 0 1.06-.279.99-.279-.071 0 .14-.21.706-.349l.565.21c.141.07.212.07.353.07h.071c.141-.07.212-.14.07-.21-.07-.07-.211-.349-.14-.349h.07c.07 0 .212.14.283.07l.353-.14c.212.21.424.35.495.35.07 0 .423 0 .282-.07-.07-.07 0-.21.141-.35.142-.139.707-.139.848-.139h.707c.141 0 .636 0 .848.07.212.07.636-.35.777-.35.141 0 .353.21.353.28 0 .07.141.07.141 0v-.488c.354.07.848.209 1.131.279l.283-.14.282-.14c.354-.07.777-.139.99-.209.14-.07.494.21.565.14v-.07l.07-.07c.07 0 .283 0 .495.07h.424c.282-.07.565-.14.706-.14.142 0 .636-.07.848-.07.212 0 .99-.07 1.201 0 .212 0 .99-.209 1.201-.209.212 0 .848.07.99 0 .07-.07.494.07.636 0 .07-.07.423.07.494 0 .07-.07.283-.14.353-.07.071.21.354.28.495.28.141 0 .636-.07.848-.07.212 0 .777-.07.918 0 .142 0 .636-.07.707-.07.141-.07.565-.07.777-.14.212-.07.848.21.919.28.14.07.282-.28.353-.35h.07l.283.14c.283-.07.565-.209.636-.209.141.07.353.14.494.14l.142-.07c.141 0 .353 0 .424-.07.07-.07.494 0 .636.07h.282c.142 0 .424-.07.566-.07.211 0 .847 0 1.06.14l.282-.21c.141-.14.495.07.707-.14 0 0 .14.07.282.07l.424.07c.495-.07.919-.14 1.06-.21.141-.069.494.07.565 0 .07-.069.424.14.495.14.07 0 .282 0 .494.07.212.07.919-.14 1.272-.14l.283.21h.07c.071 0 .283 0 .354-.14.07-.07.282-.14.494-.14.142 0 .848 0 1.201.07l.212-.07c.07-.069.353 0 .495 0l.282-.139c.283.14.566.21.636.21.071 0 .495-.07.636 0l.142.07c.14.07.211-.28.423-.07 0 0 .212-.07.354-.07h.212c.212.07.424.07.494.14h.777c.283 0 .919-.21.99-.21.07 0 .424.21.565.28l.212-.21.283-.349c.423.14.918.28 1.13.349.141 0 .919-.21 1.06-.28.141-.069.636-.069.848-.139l.141.07.141.07c.142.14.283.14.424 0l.142-.07c.07 0 .212 0 .282.07.07.07.353.14.495.07.07-.07.777-.07.989 0 .141.07.494 0 .636.07.141 0 .424-.07.565-.07.141 0 .565-.07.706-.14.142-.07.778.14 1.06.21l.212-.21h.212l.424.07c.424.07.919 0 1.13-.07.213-.07.92.14 1.202.14l.212-.07.212-.07c.212 0 .565-.07.777-.07.212-.07.777.21.848.21h.07l.566-.21c.636 0 1.342.07 1.483.07.142 0 .778.07.99.21l.212-.35.07-.14c.283.07.565.21.636.28.07.07.495-.14.565-.14.142 0 .495.14.566.14l.07-.07.283-.21c.283.14.636.21.777.28.212 0 .707-.07.848-.14.141-.07.565.07.636.07.07 0 .282-.14.353-.21.07-.069.353.07.424-.069l.212.07.212.07c.353-.07.848-.14 1.06-.21.212-.07.848.07.918.07.07 0 .495 0 .707.07h.211c.071-.07.213-.07.213 0s.212.349.353.279l.707-.349c.14-.07.918-.07 1.06 0 .14 0 .565-.14.777-.21.14 0 .777 0 .918.07.141.07.919 0 1.343 0l.211-.139.212-.14c.142.07.283.21.354.28.07.07.636-.07.989-.14.282-.07 1.272-.07 1.342 0 .142.07.636.07.778 0 .212 0 .777-.07.989-.07.212 0 .706-.14.777-.14.07-.07.353.14.424.14.141-.07.353-.14.494-.14.142 0 .283.07.495.07h.212c.212 0 .565-.07.707-.07.14 0 .494.14.565.07l.07-.07h.071c.07 0 .353 0 .565.07.212.07 1.343-.07 1.484-.07l.141.07.212.07c.142-.07.424-.14.566-.07l.14-.07.213-.07c.212-.139.494-.209.636-.139.141.07.565 0 .777 0 .141-.07.495 0 .636-.07.141 0 .494.07.636.07h.494c.07.07.353.14.495.07.212-.07 1.342 0 1.766-.07.424 0 1.13-.209 1.272-.209l.212.07.353.07h1.13l.142-.07.212-.07c.283 0 .636 0 .777.07h1.06c.141 0 .495 0 .848-.07l.353-.07.283-.07c.282-.07.565-.07.636-.07 0 0 .212.07.353.07s.706.07.848.07c.141.07.494.14.565.14.071-.07.283-.14.424-.14.071 0 .494-.14.706-.21.212 0 1.06 0 1.414-.069.353 0 1.342.07 1.483.07.142 0 .636-.14.707-.14.07 0 .282 0 .353.07.071 0 .565-.07.989-.14l.354.07h.282c.212-.07.565-.14.777-.07h.424c.212-.07.566-.07.707.07.141.07.777-.279 1.13-.279l.283.21s.141 0 .141-.07l.071-.07c0-.07.141-.14.283-.21.141 0 .494.14.635.14.142.07.707 0 .848.07.142.07.424 0 .565 0 .142 0 .566.07.778.07.212 0 .918-.14 1.13-.07l.071-.07c.282-.21.353.14.565.07l.212-.07c.212-.14.424-.279.636-.279.141 0 .777 0 .918.07h.848c.142-.07.707.07.848.07.141.07.707 0 .989-.07l.283.07c.212.07.494.07.636-.14l.636-.07c.636.21 1.271.14 1.907 0 .212-.07.495.28.707 0 .071-.07.494-.07.706 0h.142c.141.07.353.07.424.07.07 0 .282-.07.424-.21.141-.07.494.21.636.21.141 0 .423-.14.494-.14.071 0 .353.14.495.21h.141c.141 0 .283-.07.424-.14l.212-.07c.212.07.494.14.565.14.071 0 .283-.07.353-.07.071-.07.354.07.495.07h.071c.07-.07.141-.14.212-.14.141 0 .353.14.494.07.212 0 .424-.14.565-.14h.212c.212 0 .495 0 .636-.07l.142.14.07.07c.142 0 .495.07.777.07.212 0 .99-.14 1.131-.07.141.07 1.06 0 1.625.07l.565-.21a.788.788 0 01.565 0l.283.14c.212-.07.565-.21.707-.279h.141c.141 0 .283.07.424.14l.07.07c.071.07.495.14.99.14.494 0 1.625-.28 1.695-.28.071 0 .071.07.142.07.07 0 .424 0 .636-.07.212 0 .918-.07 1.13-.07.212 0 .848.21.989.28.142.07.707-.07.777 0 .142.07.707-.21.919-.28l.283.21.141.07c.353-.07.989-.14 1.342-.21h.636c.353.07.848 0 1.06-.14l.283.21c.212.14.494-.28.847-.07.283.21.495.14.707-.07h.071l.212.07c.212 0 .494.07.636.07.07 0 .494-.14.706-.14h.565c.424 0 1.06 0 1.484-.07h.565c.283.07.566.14.707.14.141 0 .424-.07.565-.07.071 0 .424.14.495.14l.212-.28c-.354.42.353.559.424.629z" fill="#A7BE71"/><defs><clipPath id="clip0_94_2199"><path fill="#fff" transform="translate(13.18 .834)" d="M0 0h151.687v46.435H0z"/></clipPath></defs></svg>