<?xml version="1.0" encoding="utf-8"?><svg viewBox="0 0 48 42" xmlns="http://www.w3.org/2000/svg" xmlns:xlink="http://www.w3.org/1999/xlink"><style>:root>svg{display:none}:root>svg:target{display:block}</style><svg fill="none" viewBox="0 0 14 26" id="icon-arrow-right" xmlns="http://www.w3.org/2000/svg"><path fill-rule="evenodd" clip-rule="evenodd" d="M.711 24.914a.938.938 0 010-1.328L11.299 13 .711 2.414a.939.939 0 011.327-1.328l11.25 11.25a.938.938 0 010 1.328l-11.25 11.25a.936.936 0 01-1.327 0z" fill="currentColor"/></svg><svg fill="none" viewBox="0 0 18 10" id="icon-caret" xmlns="http://www.w3.org/2000/svg"><path fill-rule="evenodd" clip-rule="evenodd" d="M1.058.807a.625.625 0 01.885 0L9 7.867l7.058-7.06a.626.626 0 01.885.885l-7.5 7.5a.625.625 0 01-.885 0l-7.5-7.5a.625.625 0 010-.885z" fill="#fff"/></svg><svg fill="none" viewBox="0 0 18 10" id="icon-caret-black" xmlns="http://www.w3.org/2000/svg"><path fill-rule="evenodd" clip-rule="evenodd" d="M1.058.807a.625.625 0 01.885 0L9 7.867l7.058-7.06a.626.626 0 01.885.885l-7.5 7.5a.625.625 0 01-.885 0l-7.5-7.5a.625.625 0 010-.885z" fill="#000"/><path fill-rule="evenodd" clip-rule="evenodd" d="M1.058.807a.625.625 0 01.885 0L9 7.867l7.058-7.06a.626.626 0 01.885.885l-7.5 7.5a.625.625 0 01-.885 0l-7.5-7.5a.625.625 0 010-.885z" fill="#5D576B"/></svg><svg fill="none" viewBox="0 0 14 8" id="icon-caret-green" xmlns="http://www.w3.org/2000/svg"><path fill-rule="evenodd" clip-rule="evenodd" d="M.647.646a.5.5 0 01.708 0L7 6.293 12.647.646a.501.501 0 01.708.708l-6 6a.5.5 0 01-.708 0l-6-6a.5.5 0 010-.708z" fill="#000"/><path fill-rule="evenodd" clip-rule="evenodd" d="M.647.646a.5.5 0 01.708 0L7 6.293 12.647.646a.501.501 0 01.708.708l-6 6a.5.5 0 01-.708 0l-6-6a.5.5 0 010-.708z" fill="#A7BE71"/></svg><svg fill="none" viewBox="0 0 18 10" id="icon-caret-scroll" xmlns="http://www.w3.org/2000/svg"><path fill-rule="evenodd" clip-rule="evenodd" d="M1.058.807a.625.625 0 01.885 0L9 7.867l7.058-7.06a.626.626 0 01.885.885l-7.5 7.5a.625.625 0 01-.885 0l-7.5-7.5a.625.625 0 010-.885z" fill="currentColor"/></svg><svg fill="none" viewBox="0 0 30 30" id="icon-close" xmlns="http://www.w3.org/2000/svg"><path d="M4.024 5.351a.938.938 0 111.327-1.327l9.65 9.65 9.648-9.65a.938.938 0 111.328 1.327L16.326 15l9.65 9.649a.94.94 0 01-1.327 1.327L15 16.326l-9.649 9.65a.939.939 0 11-1.327-1.327L13.674 15l-9.65-9.649z" fill="#646F41"/><path d="M4.024 5.351a.938.938 0 111.327-1.327l9.65 9.65 9.648-9.65a.938.938 0 111.328 1.327L16.326 15l9.65 9.649a.94.94 0 01-1.327 1.327L15 16.326l-9.649 9.65a.939.939 0 11-1.327-1.327L13.674 15l-9.65-9.649z" fill="#5D576B"/></svg><svg fill="none" viewBox="0 0 29 9" id="icon-dropdown" xmlns="http://www.w3.org/2000/svg"><g opacity=".55" fill-rule="evenodd" clip-rule="evenodd"><path d="M.397.822A1.094 1.094 0 011.863.335L14.5 6.65 27.135.332a1.093 1.093 0 11.98 1.956L14.99 8.851a1.094 1.094 0 01-.98 0L.885 2.288A1.094 1.094 0 01.397.822z" fill="#000"/><path d="M.397.822A1.094 1.094 0 011.863.335L14.5 6.65 27.135.332a1.093 1.093 0 11.98 1.956L14.99 8.851a1.094 1.094 0 01-.98 0L.885 2.288A1.094 1.094 0 01.397.822z" fill="#5D576B"/></g></svg><svg fill="none" viewBox="0 0 30 30" id="icon-email" xmlns="http://www.w3.org/2000/svg"><path d="M0 7.5a3.75 3.75 0 013.75-3.75h22.5A3.75 3.75 0 0130 7.5v15a3.75 3.75 0 01-3.75 3.75H3.75A3.75 3.75 0 010 22.5v-15zm3.75-1.875A1.875 1.875 0 001.875 7.5v.407L15 15.782l13.125-7.875V7.5a1.875 1.875 0 00-1.875-1.875H3.75zm24.375 4.468l-8.828 5.297 8.828 5.432V10.093zm-.064 12.893l-10.575-6.509L15 17.968l-2.486-1.49-10.575 6.506a1.875 1.875 0 001.811 1.391h22.5a1.875 1.875 0 001.811-1.39zM1.875 20.822l8.828-5.432-8.828-5.297v10.729z" fill="#000"/><path d="M0 7.5a3.75 3.75 0 013.75-3.75h22.5A3.75 3.75 0 0130 7.5v15a3.75 3.75 0 01-3.75 3.75H3.75A3.75 3.75 0 010 22.5v-15zm3.75-1.875A1.875 1.875 0 001.875 7.5v.407L15 15.782l13.125-7.875V7.5a1.875 1.875 0 00-1.875-1.875H3.75zm24.375 4.468l-8.828 5.297 8.828 5.432V10.093zm-.064 12.893l-10.575-6.509L15 17.968l-2.486-1.49-10.575 6.506a1.875 1.875 0 001.811 1.391h22.5a1.875 1.875 0 001.811-1.39zM1.875 20.822l8.828-5.432-8.828-5.297v10.729z" fill="#646F41"/><path d="M0 7.5a3.75 3.75 0 013.75-3.75h22.5A3.75 3.75 0 0130 7.5v15a3.75 3.75 0 01-3.75 3.75H3.75A3.75 3.75 0 010 22.5v-15zm3.75-1.875A1.875 1.875 0 001.875 7.5v.407L15 15.782l13.125-7.875V7.5a1.875 1.875 0 00-1.875-1.875H3.75zm24.375 4.468l-8.828 5.297 8.828 5.432V10.093zm-.064 12.893l-10.575-6.509L15 17.968l-2.486-1.49-10.575 6.506a1.875 1.875 0 001.811 1.391h22.5a1.875 1.875 0 001.811-1.39zM1.875 20.822l8.828-5.432-8.828-5.297v10.729z" fill="#A7BE71"/></svg><svg fill="none" viewBox="0 0 35 35" id="icon-facebook" xmlns="http://www.w3.org/2000/svg"><path d="M35 17.607C35 7.882 27.166-.002 17.5-.002 7.832 0-.004 7.882-.004 17.61c0 8.787 6.4 16.071 14.766 17.392V22.698h-4.44V17.61h4.444v-3.883c0-4.412 2.614-6.85 6.61-6.85 1.917 0 3.918.344 3.918.344v4.331h-2.207c-2.172 0-2.85 1.359-2.85 2.752v3.303h4.852l-.774 5.088h-4.08V35C28.6 33.68 35 26.395 35 17.607z" fill="currentColor"/></svg><svg fill="none" viewBox="0 0 35 35" id="icon-instagram" xmlns="http://www.w3.org/2000/svg"><path d="M17.5 0c-4.75 0-5.346.022-7.212.105-1.866.088-3.137.38-4.25.814a8.568 8.568 0 00-3.1 2.019 8.59 8.59 0 00-2.02 3.1C.487 7.147.19 8.421.106 10.28.022 12.151 0 12.747 0 17.502c0 4.751.022 5.346.105 7.212.088 1.864.38 3.135.814 4.248a8.596 8.596 0 002.019 3.1 8.54 8.54 0 003.097 2.02c1.116.432 2.385.728 4.248.813 1.869.083 2.464.105 7.217.105s5.346-.022 7.214-.105c1.862-.088 3.137-.38 4.25-.814a8.565 8.565 0 003.098-2.019 8.595 8.595 0 002.02-3.1c.43-1.113.725-2.384.813-4.248.083-1.866.105-2.46.105-7.214 0-4.753-.022-5.348-.105-7.217-.088-1.861-.383-3.134-.814-4.245a8.587 8.587 0 00-2.019-3.1 8.555 8.555 0 00-3.1-2.02C27.848.487 26.575.19 24.712.106 22.844.022 22.252 0 17.496 0h.006-.002zm-1.568 3.154h1.57c4.673 0 5.226.016 7.07.101 1.706.077 2.634.363 3.25.602a5.43 5.43 0 012.013 1.31 5.406 5.406 0 011.308 2.012c.241.615.525 1.543.602 3.249.085 1.844.103 2.397.103 7.068 0 4.67-.018 5.226-.103 7.07-.077 1.706-.363 2.631-.602 3.248a5.402 5.402 0 01-1.31 2.01 5.406 5.406 0 01-2.012 1.308c-.613.241-1.54.525-3.249.604-1.844.083-2.397.103-7.07.103-4.672 0-5.228-.02-7.072-.103-1.706-.079-2.632-.363-3.248-.604a5.422 5.422 0 01-2.013-1.308 5.425 5.425 0 01-1.312-2.012c-.239-.615-.525-1.542-.602-3.249-.083-1.844-.1-2.397-.1-7.072 0-4.672.017-5.223.1-7.068.079-1.706.363-2.633.604-3.25a5.43 5.43 0 011.31-2.013 5.407 5.407 0 012.013-1.308c.616-.24 1.542-.525 3.248-.604 1.614-.074 2.24-.096 5.502-.098v.004zm10.91 2.905a2.1 2.1 0 100 4.2 2.1 2.1 0 000-4.2zm-9.34 2.455a8.989 8.989 0 10-.28 17.975 8.989 8.989 0 00.28-17.975zm0 3.152a5.834 5.834 0 110 11.668 5.834 5.834 0 010-11.668z" fill="currentColor"/></svg><svg fill="none" viewBox="0 0 30 30" id="icon-location" xmlns="http://www.w3.org/2000/svg"><g clip-path="url(#kclip0_94_2468)"><path d="M22.811 16.762c-.982 1.992-2.314 3.976-3.675 5.757A59.078 59.078 0 0115 27.338a59.02 59.02 0 01-4.136-4.82c-1.362-1.78-2.693-3.764-3.675-5.756-.994-2.011-1.564-3.896-1.564-5.512a9.375 9.375 0 0118.75 0c0 1.616-.572 3.5-1.564 5.512zM15 30s11.25-10.661 11.25-18.75a11.25 11.25 0 00-22.5 0C3.75 19.339 15 30 15 30z" fill="#646F41"/><path d="M22.811 16.762c-.982 1.992-2.314 3.976-3.675 5.757A59.078 59.078 0 0115 27.338a59.02 59.02 0 01-4.136-4.82c-1.362-1.78-2.693-3.764-3.675-5.756-.994-2.011-1.564-3.896-1.564-5.512a9.375 9.375 0 0118.75 0c0 1.616-.572 3.5-1.564 5.512zM15 30s11.25-10.661 11.25-18.75a11.25 11.25 0 00-22.5 0C3.75 19.339 15 30 15 30z" fill="#A7BE71"/><path d="M15 15a3.75 3.75 0 110-7.5 3.75 3.75 0 010 7.5zm0 1.875a5.625 5.625 0 100-11.25 5.625 5.625 0 000 11.25z" fill="#646F41"/><path d="M15 15a3.75 3.75 0 110-7.5 3.75 3.75 0 010 7.5zm0 1.875a5.625 5.625 0 100-11.25 5.625 5.625 0 000 11.25z" fill="#A7BE71"/></g><defs><clipPath id="kclip0_94_2468"><path fill="#fff" d="M0 0h30v30H0z"/></clipPath></defs></svg><svg fill="none" viewBox="0 0 12 9" id="icon-more" xmlns="http://www.w3.org/2000/svg"><path d="M6 9l5.196-9H.804L6 9z" fill="currentColor"/></svg><svg fill="none" viewBox="0 0 30 30" id="icon-phone" xmlns="http://www.w3.org/2000/svg"><g clip-path="url(#mclip0_94_2463)"><path d="M6.851 2.49a1.271 1.271 0 00-1.903-.118l-1.939 1.94c-.905.908-1.24 2.192-.843 3.32a32.94 32.94 0 007.815 12.39 32.942 32.942 0 0012.39 7.814c1.126.396 2.41.062 3.318-.843l1.939-1.94a1.27 1.27 0 00-.118-1.902l-4.326-3.364a1.274 1.274 0 00-1.087-.229l-4.107 1.026a3.272 3.272 0 01-3.106-.86l-4.605-4.608a3.271 3.271 0 01-.863-3.107l1.028-4.106a1.272 1.272 0 00-.23-1.087L6.852 2.49zM3.532.958a3.272 3.272 0 014.898.306l3.364 4.324c.617.793.834 1.826.59 2.8l-1.025 4.107a1.27 1.27 0 00.333 1.206l4.607 4.607a1.272 1.272 0 001.208.333l4.104-1.025a3.27 3.27 0 012.801.59l4.324 3.364a3.271 3.271 0 01.306 4.896l-1.939 1.938c-1.388 1.388-3.461 1.997-5.394 1.317a34.938 34.938 0 01-13.144-8.288A34.939 34.939 0 01.277 8.291C-.4 6.361.208 4.284 1.596 2.897L3.534.958h-.002z" fill="#646F41"/><path d="M6.851 2.49a1.271 1.271 0 00-1.903-.118l-1.939 1.94c-.905.908-1.24 2.192-.843 3.32a32.94 32.94 0 007.815 12.39 32.942 32.942 0 0012.39 7.814c1.126.396 2.41.062 3.318-.843l1.939-1.94a1.27 1.27 0 00-.118-1.902l-4.326-3.364a1.274 1.274 0 00-1.087-.229l-4.107 1.026a3.272 3.272 0 01-3.106-.86l-4.605-4.608a3.271 3.271 0 01-.863-3.107l1.028-4.106a1.272 1.272 0 00-.23-1.087L6.852 2.49zM3.532.958a3.272 3.272 0 014.898.306l3.364 4.324c.617.793.834 1.826.59 2.8l-1.025 4.107a1.27 1.27 0 00.333 1.206l4.607 4.607a1.272 1.272 0 001.208.333l4.104-1.025a3.27 3.27 0 012.801.59l4.324 3.364a3.271 3.271 0 01.306 4.896l-1.939 1.938c-1.388 1.388-3.461 1.997-5.394 1.317a34.938 34.938 0 01-13.144-8.288A34.939 34.939 0 01.277 8.291C-.4 6.361.208 4.284 1.596 2.897L3.534.958h-.002z" fill="#A7BE71"/></g><defs><clipPath id="mclip0_94_2463"><path fill="#fff" d="M0 0h30v30H0z"/></clipPath></defs></svg><svg fill="none" viewBox="0 0 48 42" id="icon-quote" xmlns="http://www.w3.org/2000/svg"><path d="M12.185 24.554c1.943.538 3.429 1.562 4.457 3.07 1.143 1.4 1.714 3.122 1.714 5.168 0 2.585-.857 4.685-2.571 6.3-1.714 1.616-3.829 2.423-6.343 2.423-2.743 0-4.971-.807-6.686-2.423-1.6-1.723-2.4-3.823-2.4-6.3 0-1.292.115-2.53.343-3.715.343-1.292.972-3.123 1.886-5.492l7.2-22.293h8.229l-5.829 23.262zm29.143 0c1.943.538 3.428 1.562 4.457 3.07 1.143 1.4 1.714 3.122 1.714 5.168 0 2.585-.857 4.685-2.571 6.3-1.714 1.616-3.829 2.423-6.343 2.423-2.743 0-4.971-.807-6.686-2.423-1.6-1.723-2.4-3.823-2.4-6.3 0-1.292.115-2.53.343-3.715.343-1.292.972-3.123 1.886-5.492l7.2-22.293h8.228l-5.828 23.262z" fill="#333"/><path d="M12.185 24.554c1.943.538 3.429 1.562 4.457 3.07 1.143 1.4 1.714 3.122 1.714 5.168 0 2.585-.857 4.685-2.571 6.3-1.714 1.616-3.829 2.423-6.343 2.423-2.743 0-4.971-.807-6.686-2.423-1.6-1.723-2.4-3.823-2.4-6.3 0-1.292.115-2.53.343-3.715.343-1.292.972-3.123 1.886-5.492l7.2-22.293h8.229l-5.829 23.262zm29.143 0c1.943.538 3.428 1.562 4.457 3.07 1.143 1.4 1.714 3.122 1.714 5.168 0 2.585-.857 4.685-2.571 6.3-1.714 1.616-3.829 2.423-6.343 2.423-2.743 0-4.971-.807-6.686-2.423-1.6-1.723-2.4-3.823-2.4-6.3 0-1.292.115-2.53.343-3.715.343-1.292.972-3.123 1.886-5.492l7.2-22.293h8.228l-5.828 23.262z" fill="#fff"/></svg><svg fill="none" viewBox="0 0 42 13" id="icon-scroll" xmlns="http://www.w3.org/2000/svg"><path fill-rule="evenodd" clip-rule="evenodd" d="M.853 1.175A1.563 1.563 0 012.947.478L21 9.5 39.05.475a1.562 1.562 0 111.4 2.794L21.7 12.644a1.564 1.564 0 01-1.4 0L1.55 3.269a1.562 1.562 0 01-.697-2.094z" fill="currentColor"/></svg><svg fill="none" viewBox="0 0 12 9" id="icon-select" xmlns="http://www.w3.org/2000/svg"><path d="M6 9l5.196-9H.804L6 9z" fill="#FFF"/></svg><svg fill="none" viewBox="0 0 35 35" id="icon-twitter" xmlns="http://www.w3.org/2000/svg"><path d="M10.994 32.813c13.209 0 20.434-10.945 20.434-20.419 0-.306 0-.616-.013-.923A14.624 14.624 0 0035 7.748c-1.314.58-2.706.961-4.132 1.133a7.22 7.22 0 003.165-3.974 14.29 14.29 0 01-4.565 1.734 7.188 7.188 0 00-12.241 6.55A20.399 20.399 0 012.424 5.69a7.195 7.195 0 002.227 9.585 7.27 7.27 0 01-3.251-.892v.098a7.192 7.192 0 005.758 7.04 7.004 7.004 0 01-1.893.251c-.45.002-.9-.04-1.343-.124a7.182 7.182 0 006.71 4.98 14.411 14.411 0 01-8.926 3.078c-.57.003-1.14-.03-1.706-.098a20.44 20.44 0 0010.994 3.205z" fill="currentColor"/></svg></svg>