<svg width="254" height="12" fill="none" xmlns="http://www.w3.org/2000/svg"><path d="M230.203 1.504c.101.101.403 0 .605-.201.202.302.403-.101.504 0 .303.201.504.201.807 0 .101-.101.504.302.706.302h.201c.303-.1.605-.1.807-.1.202 0 1.008.2 1.412.302l.302-.202h.202c.302.1.706.303 1.008.303h.303c.302-.202.403 0 .403.302l.504-.403.404-.303c.403.202 1.008.202 1.311.101.302-.1 1.21.403 1.512.303.303 0 1.412.302 1.714.403v-.403l.202-.101.403.302c.504-.1 1.009 0 1.21.101.202.101.807-.202 1.009-.1.201.1.806.201 1.008.1.202-.1 1.412-.1 2.017 0l.605.202c.201.1.504-.202.806-.202h.202c.202.101.504.101.605 0l.504.403c.605-.201 1.21-.201 1.311.101.101.303.605.908.706.908.101 0 .504 0 .504.1 0 .102-.101.404-.303.505-.201.1-.201 1.008-.605 1.412l.101.605v.1c0 .202-.101.303-.201.303-.101-.1-.303-.1-.404.1.605.203-.101.606.202.909v.201l-.403.202c0 .302-.505.605-1.009.706l-.504-.404-.101-.1c-.302.1-.806.201-1.109.302-.302 0-1.311-.1-1.613 0h-.605c-.303 0-.605-.1-.706-.1h-.706c-.101 0-1.109.1-1.916.1-.706 0-3.025 0-3.428-.1-.403 0-1.513.302-1.613.302h-.606c-.604-.101-1.31-.101-1.613-.101-.302.1-1.21-.1-1.412-.1-.201 0-1.008.1-1.31 0-.303-.102-1.614.1-2.219.1h-2.42c-.403 0-.907.1-1.008 0-.303-.303-.605.1-.807-.202 0-.1-.302-.1-.403 0-.303 0-.706.202-.807.101l-.403-.302c-.303.201-.706.302-.908.201-.201-.1-.605-.1-.907-.201-.202-.101-.908.201-1.21.1-.202-.1-.908.303-1.109.303-.202 0-1.109-.303-1.513-.403l-.403.302-.202.403c-.605-.1-1.21-.201-1.411-.302-.101-.1-.706-.1-1.009-.202-.302-.1-1.512.404-2.117.605l-.404-.504s-.302-.1-.403 0c-.403.303-.907-.202-1.412.1-.1.102-.403.102-.605.102-.403 0-.705-.202-1.109-.202h-.302c-.404.1-.807.202-1.009.1-.201 0-.907 0-1.109-.1-.201-.1-.806.202-1.109.303-.202.1-.807-.303-1.008-.202-.202.1-1.21 0-1.614 0h-.302c-.303 0-.706.1-1.008.1h-.605c-.706-.1-1.815-.1-2.521-.1l-.605.202-.504.1c-.505-.1-1.412-.201-2.017-.201h-7.26c-.403.1-.706.201-.807.201-.101 0-.605-.1-1.008-.1-.403-.101-2.723.1-2.924 0-.202-.101-.605 0-.807-.101-.202 0-1.008.201-1.412.201h-7.058c-.403 0-1.815 0-2.924.101-1.21 0-4.639.303-5.143.404l-.101-.101-.302-.202c-.202.202-.706.202-1.008 0l-.404.303c-.201.1-.706 0-1.109 0h-.605c-.605 0-1.412 0-1.714.1-.303.101-1.21-.201-1.513-.403l-.201.303-.303.403c-.201-.202-.706-.403-1.008-.303-.303 0-1.412.101-1.714.101-.303 0-1.311.101-1.714.101h-.807c-.504 0-1.109.101-1.412.101-.302.1-1.008.1-1.411.303l-.505-.101c-.403-.101-.907 0-1.31 0h-.505c-.504 0-1.109.1-1.411.201h-.404c-.302-.1-1.31-.201-2.42-.1-1.109 0-4.033.302-4.235.504l-.302-.303c-.101-.1-.504.101-.807.101h-.302c-.303 0-.706-.1-1.009-.302-.302-.202-1.21.302-1.512.302h-1.613c-.303 0-1.412.1-1.715.1h-.302c-.303 0-.605-.1-.908-.1h-2.722c-.504 0-2.118.202-2.521.202h-.706c-.504.1-1.109.1-1.311 0-.201-.101-1.109.302-1.411.302h-1.916c-.404 0-2.017 0-2.824.101-.806.1-3.529.1-4.335.1-.807 0-3.025 0-3.227.102-.202.1-.908-.101-1.109-.202-.202 0-1.009.303-1.412.303h-2.521c-.605 0-2.722 0-3.327.1-.605.101-3.227.101-4.336.101h-5.243l-.202.202c-.202.202-.403-.403-.807 0l-.1.1c-.303 0-.706 0-.908.102-.202.1-1.11-.202-1.614-.101H87.12c-3.932 0-7.462-.101-7.966-.202l-.403.303-.1.1c-.203 0-.505-.1-.807-.1-.303 0-1.11 0-1.21.1-.101.101-.505-.1-.706-.1-.101 0-.706.1-1.009.1h-.302l-1.008-.201h-.303c-.302 0-.605-.101-.605-.202-.1-.1-.605.101-.908.101h-.201c-.101 0-.303-.1-.303-.1l-1.008.402c-1.11-.1-2.823-.201-3.933-.201H62.82c-.605 0-1.411 0-1.714-.101-.302 0-1.412.403-1.916.605l-.302-.504c0-.101-.303-.101-.404 0l-.504.302c-.504-.1-1.31-.201-1.916-.1h-8.772c-.504 0-1.311 0-1.714-.101-.404-.101-1.614.302-1.715.201-.1-.1-1.109-.1-1.714-.1s-2.52.201-2.722.201c-.202 0-.908 0-1.11-.1-.201-.102-.907.201-1.108.201-.202 0-.908-.202-1.21-.1-.303.1-1.21.1-1.513.2-.303 0-1.11-.2-1.31-.1-.203 0-1.11.1-1.614.1s-2.521 0-3.428-.1l-.706.403-.101.101c-.202 0-.706-.1-1.21 0l-.303-.1-.605-.606c-.302.202-.806.303-1.109.202l-.302.1-.404.102c-.504 0-1.008-.101-1.21 0-.201 0-1.613-.303-2.924-.404l-1.008.505-.404.201c-.403-.1-1.008-.1-1.21-.1h-1.512c-.303 0-.908-.101-1.008-.101h-1.11c-.302 0-1.512 0-1.815-.101H9.781c-.202-.101-.807.201-.908.201-.1-.1-.403-.201-.504-.1-.1.1-.605.201-.907.201H5.344a.75.75 0 00-.302-.302s-.202.1-.202.201-.706.101-1.21 0h-.706c-.403 0-.706 0-.605-.1.1 0 .202-.202.1-.303-.1-.1-.2-.605-.1-.807.1-.1.1-.504-.1-.504-.202 0-.505.1-.505.1v.303c-.1 0-.302-.1-.504-.201-.1-.101-.908-.404-1.008-.504C.1 10.58-.202 10.076.1 9.975c.302-.101.605.605.806.807h.202c.1 0 .202-.101.202-.202s-.101-.202-.101-.202c-.1 0-.303 0-.303-.1 0-.101.202-.404.505-.505.302-.1 1.109-.403 1.109-.504 0-.1.1-.504.201-.403.101.201.605.504.807.302l.1-.202c.102-.201.102-.201.303-.1l.101.1h1.21c.504 0 1.513-.403 1.412-.403-.1 0 .202-.302 1.008-.504l.807.302c.202.101.302.101.504.101h.1c.203-.1.303-.201.102-.302-.101-.101-.303-.505-.202-.505h.1c.102 0 .303.202.404.101l.504-.201c.303.302.605.504.706.504.101 0 .605 0 .404-.101-.101-.1 0-.303.201-.504.202-.202 1.009-.202 1.21-.202h1.009c.201 0 .907 0 1.21.101.302.1.907-.504 1.109-.504.201 0 .504.302.504.403 0 .101.202.101.202 0v-.706c.504.101 1.21.303 1.613.404l.403-.202.404-.202c.504-.1 1.109-.201 1.411-.302.202-.101.706.302.807.201v-.1l.1-.101c.102 0 .404 0 .707.1h.605c.403-.1.806-.201 1.008-.201.202 0 .908-.1 1.21-.1.303 0 1.412-.102 1.714 0 .303 0 1.412-.303 1.714-.303.303 0 1.21.1 1.412 0 .1-.101.706.1.907 0 .101-.101.605.1.706 0 .101-.101.404-.202.505-.101.1.302.504.403.705.403.202 0 .908-.1 1.21-.1.303 0 1.11-.102 1.311 0 .202 0 .908-.102 1.009-.102.201-.1.806-.1 1.109-.201.302-.101 1.21.302 1.31.403.202.1.404-.403.505-.504h.1l.404.202c.403-.101.806-.303.907-.303.202.1.505.202.706.202l.202-.101c.202 0 .504 0 .605-.101.1-.1.706 0 .907.1h.404c.201 0 .605-.1.806-.1.303 0 1.21 0 1.513.202l.403-.303c.202-.202.706.101 1.009-.202 0 0 .201.101.403.101l.605.101c.706-.1 1.31-.202 1.512-.302.202-.101.706.1.807 0 .1-.101.605.201.706.201.1 0 .403 0 .706.101.302.101 1.31-.202 1.815-.202l.403.303h.1c.102 0 .404 0 .505-.202.1-.1.403-.201.706-.201.202 0 1.21 0 1.714.1l.303-.1c.1-.101.504 0 .705 0l.404-.202c.403.202.806.302.907.302.101 0 .706-.1.908 0l.201.101c.202.101.303-.403.605-.1 0 0 .303-.101.505-.101h.302c.303.1.605.1.706.201h1.11c.402 0 1.31-.302 1.41-.302.102 0 .606.302.807.403l.303-.302.403-.505c.605.202 1.311.404 1.614.505.201 0 1.31-.303 1.512-.404.202-.1.908-.1 1.21-.201l.202.1.202.101c.201.202.403.202.604 0l.202-.1c.101 0 .303 0 .403.1.101.101.505.202.706.101.101-.1 1.11-.1 1.412 0 .202.101.706 0 .907.101.202 0 .605-.1.807-.1.202 0 .807-.102 1.008-.203.202-.1 1.11.202 1.513.303l.302-.303h.303l.605.101c.605.101 1.31 0 1.613-.1.303-.101 1.311.201 1.715.201l.302-.1.303-.102c.302 0 .806-.1 1.109-.1.302-.101 1.109.302 1.21.302h.1l.807-.302c.908 0 1.916.1 2.118.1.201 0 1.109.101 1.411.303l.303-.504.1-.202c.404.1.807.303.908.403.101.101.706-.201.807-.201.202 0 .706.201.806.201l.101-.1.404-.303c.403.202.907.303 1.109.403.302 0 1.008-.1 1.21-.201.201-.101.806.1.907.1.101 0 .404-.201.504-.302.101-.1.505.1.605-.1l.303.1.303.1c.504-.1 1.21-.2 1.512-.302.303-.1 1.21.101 1.311.101.101 0 .706 0 1.008.101h.304c.101-.1.302-.1.302 0s.303.504.504.403l1.009-.504c.201-.1 1.311-.1 1.512 0 .202 0 .807-.201 1.109-.302.202 0 1.11 0 1.311.1.202.101 1.311 0 1.916 0l.303-.201.302-.202c.202.101.403.303.504.404.101.1.908-.101 1.412-.202.403-.101 1.815-.101 1.916 0 .201.1.907.1 1.109 0 .302 0 1.109-.101 1.412-.101.302 0 1.008-.202 1.109-.202.101-.1.504.202.605.202.201-.1.504-.202.706-.202.201 0 .403.101.705.101h.303c.302 0 .807-.1 1.008-.1.202 0 .706.201.807.1l.101-.1h.101c.1 0 .504 0 .806.1.303.101 1.916-.1 2.118-.1l.201.1.303.101c.202-.1.605-.202.807-.1l.201-.102.303-.1c.302-.202.706-.303.907-.202.202.1.807 0 1.109 0 .202-.101.706 0 .908-.101.202 0 .706.1.907.1h.706c.101.102.504.203.706.102.303-.101 1.916 0 2.521-.101.605 0 1.613-.303 1.815-.303l.303.101.504.101h1.613l.202-.1.302-.102c.404 0 .908 0 1.109.101h1.513c.202 0 .706 0 1.21-.1l.504-.102.403-.1c.404-.101.807-.101.908-.101 0 0 .302.1.504.1s1.008.101 1.21.101c.202.101.706.202.807.202.101-.1.403-.202.605-.202.101 0 .706-.201 1.008-.302.303 0 1.513 0 2.017-.1.504 0 1.916.1 2.117.1.202 0 .908-.202 1.009-.202.1 0 .403 0 .504.101.101 0 .806-.1 1.411-.202l.505.101h.403c.302-.1.807-.201 1.109-.1h.605c.303-.101.807-.101 1.008.1.202.101 1.11-.403 1.614-.403l.403.302s.202 0 .202-.1l.101-.101c0-.101.201-.202.403-.303.202 0 .706.202.907.202.202.1 1.009 0 1.21.1.202.102.605 0 .807 0 .202 0 .807.102 1.109.102.303 0 1.311-.202 1.614-.101l.1-.101c.404-.303.505.202.807.1l.303-.1c.302-.202.605-.403.907-.403.202 0 1.109 0 1.311.1h1.21c.202-.1 1.008.101 1.21.101.202.101 1.008 0 1.412-.1l.403.1c.302.101.706.101.907-.201l.908-.101c.907.302 1.815.201 2.722 0 .303-.101.706.403 1.009 0 .101-.101.706-.101 1.008 0h.202c.201.1.504.1.605.1.101 0 .403-.1.605-.302.201-.1.706.303.907.303.202 0 .605-.202.706-.202.101 0 .504.202.706.302h.202c.201 0 .403-.1.605-.201l.302-.101c.303.1.706.202.807.202.101 0 .403-.101.504-.101.101-.101.504.1.706.1h.101c.101-.1.201-.201.302-.201.202 0 .504.202.706.1.303 0 .605-.201.807-.201h.302c.303 0 .706 0 .908-.1l.201.2.101.102c.202 0 .706.1 1.109.1.303 0 1.412-.201 1.614-.1.201.1 1.512 0 2.319.1l.807-.302c.201-.1.605-.1.806 0l.404.202a10.53 10.53 0 001.008-.404h.202c.201 0 .403.101.605.202l.1.1c.101.102.706.203 1.412.203s2.319-.404 2.42-.404c.101 0 .101.101.202.101s.605 0 .907-.1c.303 0 1.311-.102 1.614-.102.302 0 1.21.303 1.411.404.202.1 1.009-.101 1.109 0 .202.1 1.009-.303 1.311-.404l.404.303.201.1c.504-.1 1.412-.201 1.916-.302h.908c.504.101 1.21 0 1.512-.201l.403.302c.303.202.706-.403 1.21-.1.404.302.706.2 1.009-.102h.101l.302.101c.303 0 .706.101.908.101.1 0 .705-.202 1.008-.202h.807c.605 0 1.512 0 2.117-.1h.807c.403.1.806.201 1.008.201.202 0 .605-.1.807-.1.101 0 .605.201.706.201l.302-.403c-.504.605.504.806.605.907z" fill="#6FB2A5"/><path d="M230.203 1.504c.101.101.403 0 .605-.201.202.302.403-.101.504 0 .303.201.504.201.807 0 .101-.101.504.302.706.302h.201c.303-.1.605-.1.807-.1.202 0 1.008.2 1.412.302l.302-.202h.202c.302.1.706.303 1.008.303h.303c.302-.202.403 0 .403.302l.504-.403.404-.303c.403.202 1.008.202 1.311.101.302-.1 1.21.403 1.512.303.303 0 1.412.302 1.714.403v-.403l.202-.101.403.302c.504-.1 1.009 0 1.21.101.202.101.807-.202 1.009-.1.201.1.806.201 1.008.1.202-.1 1.412-.1 2.017 0l.605.202c.201.1.504-.202.806-.202h.202c.202.101.504.101.605 0l.504.403c.605-.201 1.21-.201 1.311.101.101.303.605.908.706.908.101 0 .504 0 .504.1 0 .102-.101.404-.303.505-.201.1-.201 1.008-.605 1.412l.101.605v.1c0 .202-.101.303-.201.303-.101-.1-.303-.1-.404.1.605.203-.101.606.202.909v.201l-.403.202c0 .302-.505.605-1.009.706l-.504-.404-.101-.1c-.302.1-.806.201-1.109.302-.302 0-1.311-.1-1.613 0h-.605c-.303 0-.605-.1-.706-.1h-.706c-.101 0-1.109.1-1.916.1-.706 0-3.025 0-3.428-.1-.403 0-1.513.302-1.613.302h-.606c-.604-.101-1.31-.101-1.613-.101-.302.1-1.21-.1-1.412-.1-.201 0-1.008.1-1.31 0-.303-.102-1.614.1-2.219.1h-2.42c-.403 0-.907.1-1.008 0-.303-.303-.605.1-.807-.202 0-.1-.302-.1-.403 0-.303 0-.706.202-.807.101l-.403-.302c-.303.201-.706.302-.908.201-.201-.1-.605-.1-.907-.201-.202-.101-.908.201-1.21.1-.202-.1-.908.303-1.109.303-.202 0-1.109-.303-1.513-.403l-.403.302-.202.403c-.605-.1-1.21-.201-1.411-.302-.101-.1-.706-.1-1.009-.202-.302-.1-1.512.404-2.117.605l-.404-.504s-.302-.1-.403 0c-.403.303-.907-.202-1.412.1-.1.102-.403.102-.605.102-.403 0-.705-.202-1.109-.202h-.302c-.404.1-.807.202-1.009.1-.201 0-.907 0-1.109-.1-.201-.1-.806.202-1.109.303-.202.1-.807-.303-1.008-.202-.202.1-1.21 0-1.614 0h-.302c-.303 0-.706.1-1.008.1h-.605c-.706-.1-1.815-.1-2.521-.1l-.605.202-.504.1c-.505-.1-1.412-.201-2.017-.201h-7.26c-.403.1-.706.201-.807.201-.101 0-.605-.1-1.008-.1-.403-.101-2.723.1-2.924 0-.202-.101-.605 0-.807-.101-.202 0-1.008.201-1.412.201h-7.058c-.403 0-1.815 0-2.924.101-1.21 0-4.639.303-5.143.404l-.101-.101-.302-.202c-.202.202-.706.202-1.008 0l-.404.303c-.201.1-.706 0-1.109 0h-.605c-.605 0-1.412 0-1.714.1-.303.101-1.21-.201-1.513-.403l-.201.303-.303.403c-.201-.202-.706-.403-1.008-.303-.303 0-1.412.101-1.714.101-.303 0-1.311.101-1.714.101h-.807c-.504 0-1.109.101-1.412.101-.302.1-1.008.1-1.411.303l-.505-.101c-.403-.101-.907 0-1.31 0h-.505c-.504 0-1.109.1-1.411.201h-.404c-.302-.1-1.31-.201-2.42-.1-1.109 0-4.033.302-4.235.504l-.302-.303c-.101-.1-.504.101-.807.101h-.302c-.303 0-.706-.1-1.009-.302-.302-.202-1.21.302-1.512.302h-1.613c-.303 0-1.412.1-1.715.1h-.302c-.303 0-.605-.1-.908-.1h-2.722c-.504 0-2.118.202-2.521.202h-.706c-.504.1-1.109.1-1.311 0-.201-.101-1.109.302-1.411.302h-1.916c-.404 0-2.017 0-2.824.101-.806.1-3.529.1-4.335.1-.807 0-3.025 0-3.227.102-.202.1-.908-.101-1.109-.202-.202 0-1.009.303-1.412.303h-2.521c-.605 0-2.722 0-3.327.1-.605.101-3.227.101-4.336.101h-5.243l-.202.202c-.202.202-.403-.403-.807 0l-.1.1c-.303 0-.706 0-.908.102-.202.1-1.11-.202-1.614-.101H87.12c-3.932 0-7.462-.101-7.966-.202l-.403.303-.1.1c-.203 0-.505-.1-.807-.1-.303 0-1.11 0-1.21.1-.101.101-.505-.1-.706-.1-.101 0-.706.1-1.009.1h-.302l-1.008-.201h-.303c-.302 0-.605-.101-.605-.202-.1-.1-.605.101-.908.101h-.201c-.101 0-.303-.1-.303-.1l-1.008.402c-1.11-.1-2.823-.201-3.933-.201H62.82c-.605 0-1.411 0-1.714-.101-.302 0-1.412.403-1.916.605l-.302-.504c0-.101-.303-.101-.404 0l-.504.302c-.504-.1-1.31-.201-1.916-.1h-8.772c-.504 0-1.311 0-1.714-.101-.404-.101-1.614.302-1.715.201-.1-.1-1.109-.1-1.714-.1s-2.52.201-2.722.201c-.202 0-.908 0-1.11-.1-.201-.102-.907.201-1.108.201-.202 0-.908-.202-1.21-.1-.303.1-1.21.1-1.513.2-.303 0-1.11-.2-1.31-.1-.203 0-1.11.1-1.614.1s-2.521 0-3.428-.1l-.706.403-.101.101c-.202 0-.706-.1-1.21 0l-.303-.1-.605-.606c-.302.202-.806.303-1.109.202l-.302.1-.404.102c-.504 0-1.008-.101-1.21 0-.201 0-1.613-.303-2.924-.404l-1.008.505-.404.201c-.403-.1-1.008-.1-1.21-.1h-1.512c-.303 0-.908-.101-1.008-.101h-1.11c-.302 0-1.512 0-1.815-.101H9.781c-.202-.101-.807.201-.908.201-.1-.1-.403-.201-.504-.1-.1.1-.605.201-.907.201H5.344a.75.75 0 00-.302-.302s-.202.1-.202.201-.706.101-1.21 0h-.706c-.403 0-.706 0-.605-.1.1 0 .202-.202.1-.303-.1-.1-.2-.605-.1-.807.1-.1.1-.504-.1-.504-.202 0-.505.1-.505.1v.303c-.1 0-.302-.1-.504-.201-.1-.101-.908-.404-1.008-.504C.1 10.58-.202 10.076.1 9.975c.302-.101.605.605.806.807h.202c.1 0 .202-.101.202-.202s-.101-.202-.101-.202c-.1 0-.303 0-.303-.1 0-.101.202-.404.505-.505.302-.1 1.109-.403 1.109-.504 0-.1.1-.504.201-.403.101.201.605.504.807.302l.1-.202c.102-.201.102-.201.303-.1l.101.1h1.21c.504 0 1.513-.403 1.412-.403-.1 0 .202-.302 1.008-.504l.807.302c.202.101.302.101.504.101h.1c.203-.1.303-.201.102-.302-.101-.101-.303-.505-.202-.505h.1c.102 0 .303.202.404.101l.504-.201c.303.302.605.504.706.504.101 0 .605 0 .404-.101-.101-.1 0-.303.201-.504.202-.202 1.009-.202 1.21-.202h1.009c.201 0 .907 0 1.21.101.302.1.907-.504 1.109-.504.201 0 .504.302.504.403 0 .101.202.101.202 0v-.706c.504.101 1.21.303 1.613.404l.403-.202.404-.202c.504-.1 1.109-.201 1.411-.302.202-.101.706.302.807.201v-.1l.1-.101c.102 0 .404 0 .707.1h.605c.403-.1.806-.201 1.008-.201.202 0 .908-.1 1.21-.1.303 0 1.412-.102 1.714 0 .303 0 1.412-.303 1.714-.303.303 0 1.21.1 1.412 0 .1-.101.706.1.907 0 .101-.101.605.1.706 0 .101-.101.404-.202.505-.101.1.302.504.403.705.403.202 0 .908-.1 1.21-.1.303 0 1.11-.102 1.311 0 .202 0 .908-.102 1.009-.102.201-.1.806-.1 1.109-.201.302-.101 1.21.302 1.31.403.202.1.404-.403.505-.504h.1l.404.202c.403-.101.806-.303.907-.303.202.1.505.202.706.202l.202-.101c.202 0 .504 0 .605-.101.1-.1.706 0 .907.1h.404c.201 0 .605-.1.806-.1.303 0 1.21 0 1.513.202l.403-.303c.202-.202.706.101 1.009-.202 0 0 .201.101.403.101l.605.101c.706-.1 1.31-.202 1.512-.302.202-.101.706.1.807 0 .1-.101.605.201.706.201.1 0 .403 0 .706.101.302.101 1.31-.202 1.815-.202l.403.303h.1c.102 0 .404 0 .505-.202.1-.1.403-.201.706-.201.202 0 1.21 0 1.714.1l.303-.1c.1-.101.504 0 .705 0l.404-.202c.403.202.806.302.907.302.101 0 .706-.1.908 0l.201.101c.202.101.303-.403.605-.1 0 0 .303-.101.505-.101h.302c.303.1.605.1.706.201h1.11c.402 0 1.31-.302 1.41-.302.102 0 .606.302.807.403l.303-.302.403-.505c.605.202 1.311.404 1.614.505.201 0 1.31-.303 1.512-.404.202-.1.908-.1 1.21-.201l.202.1.202.101c.201.202.403.202.604 0l.202-.1c.101 0 .303 0 .403.1.101.101.505.202.706.101.101-.1 1.11-.1 1.412 0 .202.101.706 0 .907.101.202 0 .605-.1.807-.1.202 0 .807-.102 1.008-.203.202-.1 1.11.202 1.513.303l.302-.303h.303l.605.101c.605.101 1.31 0 1.613-.1.303-.101 1.311.201 1.715.201l.302-.1.303-.102c.302 0 .806-.1 1.109-.1.302-.101 1.109.302 1.21.302h.1l.807-.302c.908 0 1.916.1 2.118.1.201 0 1.109.101 1.411.303l.303-.504.1-.202c.404.1.807.303.908.403.101.101.706-.201.807-.201.202 0 .706.201.806.201l.101-.1.404-.303c.403.202.907.303 1.109.403.302 0 1.008-.1 1.21-.201.201-.101.806.1.907.1.101 0 .404-.201.504-.302.101-.1.505.1.605-.1l.303.1.303.1c.504-.1 1.21-.2 1.512-.302.303-.1 1.21.101 1.311.101.101 0 .706 0 1.008.101h.304c.101-.1.302-.1.302 0s.303.504.504.403l1.009-.504c.201-.1 1.311-.1 1.512 0 .202 0 .807-.201 1.109-.302.202 0 1.11 0 1.311.1.202.101 1.311 0 1.916 0l.303-.201.302-.202c.202.101.403.303.504.404.101.1.908-.101 1.412-.202.403-.101 1.815-.101 1.916 0 .201.1.907.1 1.109 0 .302 0 1.109-.101 1.412-.101.302 0 1.008-.202 1.109-.202.101-.1.504.202.605.202.201-.1.504-.202.706-.202.201 0 .403.101.705.101h.303c.302 0 .807-.1 1.008-.1.202 0 .706.201.807.1l.101-.1h.101c.1 0 .504 0 .806.1.303.101 1.916-.1 2.118-.1l.201.1.303.101c.202-.1.605-.202.807-.1l.201-.102.303-.1c.302-.202.706-.303.907-.202.202.1.807 0 1.109 0 .202-.101.706 0 .908-.101.202 0 .706.1.907.1h.706c.101.102.504.203.706.102.303-.101 1.916 0 2.521-.101.605 0 1.613-.303 1.815-.303l.303.101.504.101h1.613l.202-.1.302-.102c.404 0 .908 0 1.109.101h1.513c.202 0 .706 0 1.21-.1l.504-.102.403-.1c.404-.101.807-.101.908-.101 0 0 .302.1.504.1s1.008.101 1.21.101c.202.101.706.202.807.202.101-.1.403-.202.605-.202.101 0 .706-.201 1.008-.302.303 0 1.513 0 2.017-.1.504 0 1.916.1 2.117.1.202 0 .908-.202 1.009-.202.1 0 .403 0 .504.101.101 0 .806-.1 1.411-.202l.505.101h.403c.302-.1.807-.201 1.109-.1h.605c.303-.101.807-.101 1.008.1.202.101 1.11-.403 1.614-.403l.403.302s.202 0 .202-.1l.101-.101c0-.101.201-.202.403-.303.202 0 .706.202.907.202.202.1 1.009 0 1.21.1.202.102.605 0 .807 0 .202 0 .807.102 1.109.102.303 0 1.311-.202 1.614-.101l.1-.101c.404-.303.505.202.807.1l.303-.1c.302-.202.605-.403.907-.403.202 0 1.109 0 1.311.1h1.21c.202-.1 1.008.101 1.21.101.202.101 1.008 0 1.412-.1l.403.1c.302.101.706.101.907-.201l.908-.101c.907.302 1.815.201 2.722 0 .303-.101.706.403 1.009 0 .101-.101.706-.101 1.008 0h.202c.201.1.504.1.605.1.101 0 .403-.1.605-.302.201-.1.706.303.907.303.202 0 .605-.202.706-.202.101 0 .504.202.706.302h.202c.201 0 .403-.1.605-.201l.302-.101c.303.1.706.202.807.202.101 0 .403-.101.504-.101.101-.101.504.1.706.1h.101c.101-.1.201-.201.302-.201.202 0 .504.202.706.1.303 0 .605-.201.807-.201h.302c.303 0 .706 0 .908-.1l.201.2.101.102c.202 0 .706.1 1.109.1.303 0 1.412-.201 1.614-.1.201.1 1.512 0 2.319.1l.807-.302c.201-.1.605-.1.806 0l.404.202a10.53 10.53 0 001.008-.404h.202c.201 0 .403.101.605.202l.1.1c.101.102.706.203 1.412.203s2.319-.404 2.42-.404c.101 0 .101.101.202.101s.605 0 .907-.1c.303 0 1.311-.102 1.614-.102.302 0 1.21.303 1.411.404.202.1 1.009-.101 1.109 0 .202.1 1.009-.303 1.311-.404l.404.303.201.1c.504-.1 1.412-.201 1.916-.302h.908c.504.101 1.21 0 1.512-.201l.403.302c.303.202.706-.403 1.21-.1.404.302.706.2 1.009-.102h.101l.302.101c.303 0 .706.101.908.101.1 0 .705-.202 1.008-.202h.807c.605 0 1.512 0 2.117-.1h.807c.403.1.806.201 1.008.201.202 0 .605-.1.807-.1.101 0 .605.201.706.201l.302-.403c-.504.605.504.806.605.907z" fill="#646F41"/><path d="M230.203 1.504c.101.101.403 0 .605-.201.202.302.403-.101.504 0 .303.201.504.201.807 0 .101-.101.504.302.706.302h.201c.303-.1.605-.1.807-.1.202 0 1.008.2 1.412.302l.302-.202h.202c.302.1.706.303 1.008.303h.303c.302-.202.403 0 .403.302l.504-.403.404-.303c.403.202 1.008.202 1.311.101.302-.1 1.21.403 1.512.303.303 0 1.412.302 1.714.403v-.403l.202-.101.403.302c.504-.1 1.009 0 1.21.101.202.101.807-.202 1.009-.1.201.1.806.201 1.008.1.202-.1 1.412-.1 2.017 0l.605.202c.201.1.504-.202.806-.202h.202c.202.101.504.101.605 0l.504.403c.605-.201 1.21-.201 1.311.101.101.303.605.908.706.908.101 0 .504 0 .504.1 0 .102-.101.404-.303.505-.201.1-.201 1.008-.605 1.412l.101.605v.1c0 .202-.101.303-.201.303-.101-.1-.303-.1-.404.1.605.203-.101.606.202.909v.201l-.403.202c0 .302-.505.605-1.009.706l-.504-.404-.101-.1c-.302.1-.806.201-1.109.302-.302 0-1.311-.1-1.613 0h-.605c-.303 0-.605-.1-.706-.1h-.706c-.101 0-1.109.1-1.916.1-.706 0-3.025 0-3.428-.1-.403 0-1.513.302-1.613.302h-.606c-.604-.101-1.31-.101-1.613-.101-.302.1-1.21-.1-1.412-.1-.201 0-1.008.1-1.31 0-.303-.102-1.614.1-2.219.1h-2.42c-.403 0-.907.1-1.008 0-.303-.303-.605.1-.807-.202 0-.1-.302-.1-.403 0-.303 0-.706.202-.807.101l-.403-.302c-.303.201-.706.302-.908.201-.201-.1-.605-.1-.907-.201-.202-.101-.908.201-1.21.1-.202-.1-.908.303-1.109.303-.202 0-1.109-.303-1.513-.403l-.403.302-.202.403c-.605-.1-1.21-.201-1.411-.302-.101-.1-.706-.1-1.009-.202-.302-.1-1.512.404-2.117.605l-.404-.504s-.302-.1-.403 0c-.403.303-.907-.202-1.412.1-.1.102-.403.102-.605.102-.403 0-.705-.202-1.109-.202h-.302c-.404.1-.807.202-1.009.1-.201 0-.907 0-1.109-.1-.201-.1-.806.202-1.109.303-.202.1-.807-.303-1.008-.202-.202.1-1.21 0-1.614 0h-.302c-.303 0-.706.1-1.008.1h-.605c-.706-.1-1.815-.1-2.521-.1l-.605.202-.504.1c-.505-.1-1.412-.201-2.017-.201h-7.26c-.403.1-.706.201-.807.201-.101 0-.605-.1-1.008-.1-.403-.101-2.723.1-2.924 0-.202-.101-.605 0-.807-.101-.202 0-1.008.201-1.412.201h-7.058c-.403 0-1.815 0-2.924.101-1.21 0-4.639.303-5.143.404l-.101-.101-.302-.202c-.202.202-.706.202-1.008 0l-.404.303c-.201.1-.706 0-1.109 0h-.605c-.605 0-1.412 0-1.714.1-.303.101-1.21-.201-1.513-.403l-.201.303-.303.403c-.201-.202-.706-.403-1.008-.303-.303 0-1.412.101-1.714.101-.303 0-1.311.101-1.714.101h-.807c-.504 0-1.109.101-1.412.101-.302.1-1.008.1-1.411.303l-.505-.101c-.403-.101-.907 0-1.31 0h-.505c-.504 0-1.109.1-1.411.201h-.404c-.302-.1-1.31-.201-2.42-.1-1.109 0-4.033.302-4.235.504l-.302-.303c-.101-.1-.504.101-.807.101h-.302c-.303 0-.706-.1-1.009-.302-.302-.202-1.21.302-1.512.302h-1.613c-.303 0-1.412.1-1.715.1h-.302c-.303 0-.605-.1-.908-.1h-2.722c-.504 0-2.118.202-2.521.202h-.706c-.504.1-1.109.1-1.311 0-.201-.101-1.109.302-1.411.302h-1.916c-.404 0-2.017 0-2.824.101-.806.1-3.529.1-4.335.1-.807 0-3.025 0-3.227.102-.202.1-.908-.101-1.109-.202-.202 0-1.009.303-1.412.303h-2.521c-.605 0-2.722 0-3.327.1-.605.101-3.227.101-4.336.101h-5.243l-.202.202c-.202.202-.403-.403-.807 0l-.1.1c-.303 0-.706 0-.908.102-.202.1-1.11-.202-1.614-.101H87.12c-3.932 0-7.462-.101-7.966-.202l-.403.303-.1.1c-.203 0-.505-.1-.807-.1-.303 0-1.11 0-1.21.1-.101.101-.505-.1-.706-.1-.101 0-.706.1-1.009.1h-.302l-1.008-.201h-.303c-.302 0-.605-.101-.605-.202-.1-.1-.605.101-.908.101h-.201c-.101 0-.303-.1-.303-.1l-1.008.402c-1.11-.1-2.823-.201-3.933-.201H62.82c-.605 0-1.411 0-1.714-.101-.302 0-1.412.403-1.916.605l-.302-.504c0-.101-.303-.101-.404 0l-.504.302c-.504-.1-1.31-.201-1.916-.1h-8.772c-.504 0-1.311 0-1.714-.101-.404-.101-1.614.302-1.715.201-.1-.1-1.109-.1-1.714-.1s-2.52.201-2.722.201c-.202 0-.908 0-1.11-.1-.201-.102-.907.201-1.108.201-.202 0-.908-.202-1.21-.1-.303.1-1.21.1-1.513.2-.303 0-1.11-.2-1.31-.1-.203 0-1.11.1-1.614.1s-2.521 0-3.428-.1l-.706.403-.101.101c-.202 0-.706-.1-1.21 0l-.303-.1-.605-.606c-.302.202-.806.303-1.109.202l-.302.1-.404.102c-.504 0-1.008-.101-1.21 0-.201 0-1.613-.303-2.924-.404l-1.008.505-.404.201c-.403-.1-1.008-.1-1.21-.1h-1.512c-.303 0-.908-.101-1.008-.101h-1.11c-.302 0-1.512 0-1.815-.101H9.781c-.202-.101-.807.201-.908.201-.1-.1-.403-.201-.504-.1-.1.1-.605.201-.907.201H5.344a.75.75 0 00-.302-.302s-.202.1-.202.201-.706.101-1.21 0h-.706c-.403 0-.706 0-.605-.1.1 0 .202-.202.1-.303-.1-.1-.2-.605-.1-.807.1-.1.1-.504-.1-.504-.202 0-.505.1-.505.1v.303c-.1 0-.302-.1-.504-.201-.1-.101-.908-.404-1.008-.504C.1 10.58-.202 10.076.1 9.975c.302-.101.605.605.806.807h.202c.1 0 .202-.101.202-.202s-.101-.202-.101-.202c-.1 0-.303 0-.303-.1 0-.101.202-.404.505-.505.302-.1 1.109-.403 1.109-.504 0-.1.1-.504.201-.403.101.201.605.504.807.302l.1-.202c.102-.201.102-.201.303-.1l.101.1h1.21c.504 0 1.513-.403 1.412-.403-.1 0 .202-.302 1.008-.504l.807.302c.202.101.302.101.504.101h.1c.203-.1.303-.201.102-.302-.101-.101-.303-.505-.202-.505h.1c.102 0 .303.202.404.101l.504-.201c.303.302.605.504.706.504.101 0 .605 0 .404-.101-.101-.1 0-.303.201-.504.202-.202 1.009-.202 1.21-.202h1.009c.201 0 .907 0 1.21.101.302.1.907-.504 1.109-.504.201 0 .504.302.504.403 0 .101.202.101.202 0v-.706c.504.101 1.21.303 1.613.404l.403-.202.404-.202c.504-.1 1.109-.201 1.411-.302.202-.101.706.302.807.201v-.1l.1-.101c.102 0 .404 0 .707.1h.605c.403-.1.806-.201 1.008-.201.202 0 .908-.1 1.21-.1.303 0 1.412-.102 1.714 0 .303 0 1.412-.303 1.714-.303.303 0 1.21.1 1.412 0 .1-.101.706.1.907 0 .101-.101.605.1.706 0 .101-.101.404-.202.505-.101.1.302.504.403.705.403.202 0 .908-.1 1.21-.1.303 0 1.11-.102 1.311 0 .202 0 .908-.102 1.009-.102.201-.1.806-.1 1.109-.201.302-.101 1.21.302 1.31.403.202.1.404-.403.505-.504h.1l.404.202c.403-.101.806-.303.907-.303.202.1.505.202.706.202l.202-.101c.202 0 .504 0 .605-.101.1-.1.706 0 .907.1h.404c.201 0 .605-.1.806-.1.303 0 1.21 0 1.513.202l.403-.303c.202-.202.706.101 1.009-.202 0 0 .201.101.403.101l.605.101c.706-.1 1.31-.202 1.512-.302.202-.101.706.1.807 0 .1-.101.605.201.706.201.1 0 .403 0 .706.101.302.101 1.31-.202 1.815-.202l.403.303h.1c.102 0 .404 0 .505-.202.1-.1.403-.201.706-.201.202 0 1.21 0 1.714.1l.303-.1c.1-.101.504 0 .705 0l.404-.202c.403.202.806.302.907.302.101 0 .706-.1.908 0l.201.101c.202.101.303-.403.605-.1 0 0 .303-.101.505-.101h.302c.303.1.605.1.706.201h1.11c.402 0 1.31-.302 1.41-.302.102 0 .606.302.807.403l.303-.302.403-.505c.605.202 1.311.404 1.614.505.201 0 1.31-.303 1.512-.404.202-.1.908-.1 1.21-.201l.202.1.202.101c.201.202.403.202.604 0l.202-.1c.101 0 .303 0 .403.1.101.101.505.202.706.101.101-.1 1.11-.1 1.412 0 .202.101.706 0 .907.101.202 0 .605-.1.807-.1.202 0 .807-.102 1.008-.203.202-.1 1.11.202 1.513.303l.302-.303h.303l.605.101c.605.101 1.31 0 1.613-.1.303-.101 1.311.201 1.715.201l.302-.1.303-.102c.302 0 .806-.1 1.109-.1.302-.101 1.109.302 1.21.302h.1l.807-.302c.908 0 1.916.1 2.118.1.201 0 1.109.101 1.411.303l.303-.504.1-.202c.404.1.807.303.908.403.101.101.706-.201.807-.201.202 0 .706.201.806.201l.101-.1.404-.303c.403.202.907.303 1.109.403.302 0 1.008-.1 1.21-.201.201-.101.806.1.907.1.101 0 .404-.201.504-.302.101-.1.505.1.605-.1l.303.1.303.1c.504-.1 1.21-.2 1.512-.302.303-.1 1.21.101 1.311.101.101 0 .706 0 1.008.101h.304c.101-.1.302-.1.302 0s.303.504.504.403l1.009-.504c.201-.1 1.311-.1 1.512 0 .202 0 .807-.201 1.109-.302.202 0 1.11 0 1.311.1.202.101 1.311 0 1.916 0l.303-.201.302-.202c.202.101.403.303.504.404.101.1.908-.101 1.412-.202.403-.101 1.815-.101 1.916 0 .201.1.907.1 1.109 0 .302 0 1.109-.101 1.412-.101.302 0 1.008-.202 1.109-.202.101-.1.504.202.605.202.201-.1.504-.202.706-.202.201 0 .403.101.705.101h.303c.302 0 .807-.1 1.008-.1.202 0 .706.201.807.1l.101-.1h.101c.1 0 .504 0 .806.1.303.101 1.916-.1 2.118-.1l.201.1.303.101c.202-.1.605-.202.807-.1l.201-.102.303-.1c.302-.202.706-.303.907-.202.202.1.807 0 1.109 0 .202-.101.706 0 .908-.101.202 0 .706.1.907.1h.706c.101.102.504.203.706.102.303-.101 1.916 0 2.521-.101.605 0 1.613-.303 1.815-.303l.303.101.504.101h1.613l.202-.1.302-.102c.404 0 .908 0 1.109.101h1.513c.202 0 .706 0 1.21-.1l.504-.102.403-.1c.404-.101.807-.101.908-.101 0 0 .302.1.504.1s1.008.101 1.21.101c.202.101.706.202.807.202.101-.1.403-.202.605-.202.101 0 .706-.201 1.008-.302.303 0 1.513 0 2.017-.1.504 0 1.916.1 2.117.1.202 0 .908-.202 1.009-.202.1 0 .403 0 .504.101.101 0 .806-.1 1.411-.202l.505.101h.403c.302-.1.807-.201 1.109-.1h.605c.303-.101.807-.101 1.008.1.202.101 1.11-.403 1.614-.403l.403.302s.202 0 .202-.1l.101-.101c0-.101.201-.202.403-.303.202 0 .706.202.907.202.202.1 1.009 0 1.21.1.202.102.605 0 .807 0 .202 0 .807.102 1.109.102.303 0 1.311-.202 1.614-.101l.1-.101c.404-.303.505.202.807.1l.303-.1c.302-.202.605-.403.907-.403.202 0 1.109 0 1.311.1h1.21c.202-.1 1.008.101 1.21.101.202.101 1.008 0 1.412-.1l.403.1c.302.101.706.101.907-.201l.908-.101c.907.302 1.815.201 2.722 0 .303-.101.706.403 1.009 0 .101-.101.706-.101 1.008 0h.202c.201.1.504.1.605.1.101 0 .403-.1.605-.302.201-.1.706.303.907.303.202 0 .605-.202.706-.202.101 0 .504.202.706.302h.202c.201 0 .403-.1.605-.201l.302-.101c.303.1.706.202.807.202.101 0 .403-.101.504-.101.101-.101.504.1.706.1h.101c.101-.1.201-.201.302-.201.202 0 .504.202.706.1.303 0 .605-.201.807-.201h.302c.303 0 .706 0 .908-.1l.201.2.101.102c.202 0 .706.1 1.109.1.303 0 1.412-.201 1.614-.1.201.1 1.512 0 2.319.1l.807-.302c.201-.1.605-.1.806 0l.404.202a10.53 10.53 0 001.008-.404h.202c.201 0 .403.101.605.202l.1.1c.101.102.706.203 1.412.203s2.319-.404 2.42-.404c.101 0 .101.101.202.101s.605 0 .907-.1c.303 0 1.311-.102 1.614-.102.302 0 1.21.303 1.411.404.202.1 1.009-.101 1.109 0 .202.1 1.009-.303 1.311-.404l.404.303.201.1c.504-.1 1.412-.201 1.916-.302h.908c.504.101 1.21 0 1.512-.201l.403.302c.303.202.706-.403 1.21-.1.404.302.706.2 1.009-.102h.101l.302.101c.303 0 .706.101.908.101.1 0 .705-.202 1.008-.202h.807c.605 0 1.512 0 2.117-.1h.807c.403.1.806.201 1.008.201.202 0 .605-.1.807-.1.101 0 .605.201.706.201l.302-.403c-.504.605.504.806.605.907z" fill="#FBF9EA"/></svg>