<svg width="437" height="20" fill="none" xmlns="http://www.w3.org/2000/svg"><path d="M396.059 1.632c.173.177.693 0 1.04-.353.347.53.694-.176.868 0 .52.353.867.353 1.388 0 .173-.176.867.53 1.214.53h.347c.52-.177 1.041-.177 1.388-.177s1.735.353 2.429.53l.52-.353h.347c.52.176 1.214.53 1.735.53h.52c.521-.354.694 0 .694.529l.868-.706.694-.53c.693.353 1.734.353 2.255.177.52-.177 2.082.706 2.602.53.52 0 2.429.529 2.949.705v-.706l.347-.176.694.53c.867-.177 1.735 0 2.082.176.347.176 1.388-.353 1.735-.177.347.177 1.388.353 1.734.177.347-.177 2.429-.177 3.47 0l1.041.353c.347.176.867-.353 1.388-.353h.347c.347.176.867.176 1.041 0l.867.706c1.041-.353 2.082-.353 2.255.176.174.53 1.041 1.588 1.215 1.588.173 0 .867 0 .867.177 0 .176-.173.706-.52.882-.347.177-.347 1.765-1.041 2.47l.173 1.06v.176c0 .353-.173.53-.347.53-.173-.177-.52-.177-.694.176 1.041.353-.173 1.059.347 1.588v.353l-.694.353c0 .53-.867 1.059-1.734 1.235l-.868-.706-.173-.176c-.521.176-1.388.353-1.909.53-.52 0-2.255-.177-2.775 0h-1.041c-.521 0-1.041-.177-1.215-.177h-1.214c-.173 0-1.908.176-3.296.176-1.214 0-5.205 0-5.898-.176-.694 0-2.603.53-2.776.53h-1.041c-1.041-.177-2.255-.177-2.776-.177-.52.176-2.081-.177-2.428-.177s-1.735.177-2.256 0c-.52-.176-2.775.177-3.816.177h-4.164c-.694 0-1.561.176-1.735 0-.52-.53-1.041.176-1.388-.353 0-.177-.52-.177-.693 0-.521 0-1.215.353-1.388.176l-.694-.529c-.521.353-1.215.53-1.562.353-.347-.177-1.04-.177-1.561-.353-.347-.176-1.561.353-2.082.176-.347-.176-1.561.53-1.908.53s-1.908-.53-2.602-.706l-.694.53-.347.705c-1.041-.176-2.082-.353-2.429-.53-.173-.176-1.214-.176-1.735-.352-.52-.177-2.602.706-3.643 1.059l-.694-.883s-.52-.176-.694 0c-.694.53-1.561-.353-2.428.177-.174.176-.694.176-1.041.176-.694 0-1.215-.353-1.909-.353h-.52c-.694.177-1.388.353-1.735.177-.347 0-1.561 0-1.908-.177-.347-.176-1.388.353-1.908.53-.347.176-1.388-.53-1.735-.353-.347.176-2.082 0-2.776 0h-.52c-.521 0-1.215.176-1.735.176h-1.041c-1.214-.176-3.123-.176-4.337-.176l-1.041.353-.867.176c-.868-.176-2.429-.353-3.47-.353h-12.491c-.694.177-1.214.353-1.388.353-.173 0-1.04-.176-1.734-.176-.694-.177-4.684.176-5.031 0-.347-.177-1.041 0-1.388-.177-.347 0-1.735.353-2.429.353h-12.144c-.694 0-3.122 0-5.031.177-2.081 0-7.98.53-8.847.706l-.174-.177-.52-.353c-.347.353-1.214.353-1.735 0l-.694.53c-.347.176-1.214 0-1.908 0h-1.041c-1.041 0-2.429 0-2.949.176-.521.177-2.082-.353-2.602-.706l-.347.53-.521.705c-.347-.352-1.214-.705-1.735-.529-.52 0-2.428.177-2.949.177-.52 0-2.255.176-2.949.176h-1.388c-.867 0-1.908.176-2.429.176-.52.177-1.734.177-2.428.53l-.868-.177c-.694-.176-1.561 0-2.255 0h-.867c-.868 0-1.909.177-2.429.353h-.694c-.521-.176-2.255-.353-4.164-.176-1.908 0-6.939.53-7.286.882l-.52-.53c-.174-.176-.868.177-1.388.177h-.521c-.52 0-1.214-.176-1.734-.53-.521-.352-2.082.53-2.603.53h-2.775c-.521 0-2.429.177-2.95.177h-.52c-.52 0-1.041-.177-1.561-.177h-4.684c-.868 0-3.643.353-4.337.353h-1.215c-.867.177-1.908.177-2.255 0-.347-.176-1.908.53-2.429.53h-3.296c-.694 0-3.47 0-4.857.176-1.388.177-6.072.177-7.46.177s-5.205 0-5.552.176c-.346.177-1.561-.176-1.908-.353-.347 0-1.735.53-2.429.53h-4.337c-1.04 0-4.684 0-5.724.176-1.041.176-5.552.176-7.46.176h-9.021l-.347.353c-.347.353-.694-.706-1.388 0l-.174.177c-.52 0-1.214 0-1.561.176-.347.177-1.908-.353-2.776-.176h-6.939c-6.766 0-12.837-.177-13.705-.353l-.694.53-.173.176c-.347 0-.868-.177-1.388-.177-.521 0-1.908 0-2.082.177-.173.176-.867-.177-1.214-.177-.174 0-1.215.177-1.735.177h-.521l-1.734-.353h-.521c-.52 0-1.041-.177-1.041-.353-.173-.177-1.041.176-1.561.176h-.347c-.173 0-.52-.176-.52-.176l-1.735.706c-1.909-.177-4.858-.353-6.766-.353h-6.072c-1.041 0-2.429 0-2.949-.177-.521 0-2.429.706-3.296 1.06l-.521-.883c0-.177-.52-.177-.694 0l-.867.53c-.867-.177-2.255-.354-3.296-.177H81.363c-.867 0-2.255 0-2.95-.177-.693-.176-2.775.53-2.948.353-.174-.176-1.909-.176-2.95-.176-1.04 0-4.337.353-4.684.353-.347 0-1.56 0-1.908-.177-.347-.176-1.561.353-1.908.353s-1.562-.353-2.082-.176c-.52.176-2.082.176-2.602.353-.52 0-1.909-.353-2.255-.177-.347 0-1.909.177-2.776.177-.868 0-4.337 0-5.898-.177l-1.215.706-.173.177c-.347 0-1.215-.177-2.082 0l-.52-.177-1.041-1.059c-.52.353-1.388.53-1.909.353l-.52.177-.694.176c-.868 0-1.735-.176-2.082 0-.347 0-2.776-.53-5.03-.706l-1.736.883-.694.353c-.694-.177-1.735-.177-2.081-.177h-2.603c-.52 0-1.561-.176-1.734-.176h-1.909c-.52 0-2.602 0-3.122-.177h-2.43c-.346-.176-1.387.353-1.56.353-.174-.176-.694-.353-.868-.176-.173.176-1.04.353-1.561.353H9.195a1.305 1.305 0 00-.52-.53s-.348.177-.348.353c0 .177-1.214.177-2.082 0H5.032c-.695 0-1.215 0-1.042-.176.174 0 .347-.353.174-.53-.174-.176-.347-1.059-.174-1.412.174-.176.174-.882-.173-.882s-.868.177-.868.177v.529c-.173 0-.52-.177-.867-.353-.174-.176-1.561-.706-1.735-.882-.173-.353-.694-1.236-.173-1.412.52-.177 1.04 1.059 1.387 1.412h.347c.174 0 .347-.177.347-.353 0-.177-.173-.353-.173-.353-.174 0-.52 0-.52-.177 0-.176.346-.706.867-.882.52-.177 1.908-.706 1.908-.882 0-.177.174-.883.347-.706.174.353 1.041.882 1.388.53l.173-.354c.174-.353.174-.353.52-.176l.174.176h2.082c.868 0 2.602-.706 2.429-.706-.174 0 .347-.529 1.735-.882l1.388.53c.346.176.52.176.867.176h.174c.346-.177.52-.353.173-.53-.174-.176-.52-.882-.347-.882h.174c.173 0 .52.353.693.177l.868-.353c.52.53 1.04.882 1.214.882.174 0 1.041 0 .694-.176-.173-.177 0-.53.347-.883s1.735-.353 2.082-.353h1.735c.347 0 1.561 0 2.081.177.52.176 1.562-.883 1.909-.883s.867.53.867.706c0 .177.347.177.347 0v-1.235c.867.176 2.082.53 2.776.706l.694-.353.694-.353c.867-.176 1.908-.353 2.428-.53.347-.176 1.215.53 1.388.354v-.177l.174-.176c.173 0 .694 0 1.214.176h1.041c.694-.176 1.388-.353 1.735-.353.347 0 1.561-.176 2.082-.176.52 0 2.428-.177 2.949 0 .52 0 2.428-.53 2.949-.53.52 0 2.082.177 2.429 0 .173-.176 1.214.177 1.561 0 .174-.176 1.04.177 1.214 0 .174-.176.694-.353.868-.176.173.53.867.706 1.214.706s1.562-.177 2.082-.177c.52 0 1.908-.176 2.255 0 .347 0 1.562-.176 1.735-.176.347-.177 1.388-.177 1.908-.353.52-.177 2.082.53 2.256.706.347.176.694-.706.867-.883h.174l.693.353c.694-.176 1.388-.53 1.562-.53.347.177.867.354 1.214.354l.347-.177c.347 0 .868 0 1.041-.176.173-.177 1.214 0 1.561.176h.694c.347 0 1.041-.176 1.388-.176.52 0 2.082 0 2.602.353l.694-.53c.347-.353 1.215.177 1.735-.353 0 0 .347.177.694.177l1.04.176c1.215-.176 2.256-.353 2.603-.53.347-.176 1.214.177 1.388 0 .173-.176 1.04.354 1.214.354.174 0 .694 0 1.215.176.52.177 2.255-.353 3.122-.353l.694.53h.174c.173 0 .694 0 .867-.353.174-.177.694-.353 1.214-.353.347 0 2.082 0 2.95.176l.52-.176c.174-.177.868 0 1.215 0l.693-.353c.694.353 1.388.53 1.562.53.173 0 1.214-.177 1.561 0l.347.176c.347.176.521-.706 1.041-.177 0 0 .52-.176.867-.176h.521c.52.176 1.041.176 1.214.353h1.908c.694 0 2.256-.53 2.429-.53.174 0 1.041.53 1.388.706l.521-.53.693-.881c1.041.352 2.256.705 2.776.882.347 0 2.255-.53 2.602-.706.347-.176 1.562-.176 2.082-.353l.347.177.347.176c.347.353.694.353 1.041 0l.347-.176c.173 0 .52 0 .694.176.173.176.867.353 1.214.176.174-.176 1.909-.176 2.429 0 .347.177 1.214 0 1.561.177.347 0 1.041-.177 1.388-.177s1.388-.176 1.735-.352c.347-.177 1.908.352 2.602.529l.521-.53h.52l1.041.177c1.041.176 2.255 0 2.776-.176.52-.177 2.255.352 2.949.352l.52-.176.521-.176c.52 0 1.388-.177 1.908-.177.521-.176 1.908.53 2.082.53h.173l1.388-.53c1.562 0 3.296.177 3.643.177s1.909.176 2.429.529l.52-.882.174-.353c.694.176 1.388.53 1.561.706.174.176 1.215-.353 1.388-.353.347 0 1.215.353 1.388.353l.173-.177.694-.53c.694.354 1.562.53 1.909.707.52 0 1.735-.177 2.081-.353.347-.177 1.388.176 1.562.176.173 0 .694-.353.867-.53.174-.176.868.177 1.041-.176l.521.177.52.176c.867-.176 2.082-.353 2.602-.53.521-.176 2.082.177 2.255.177.174 0 1.215 0 1.735.177h.521c.173-.177.52-.177.52 0 0 .176.521.882.868.706l1.734-.883c.347-.176 2.256-.176 2.603 0 .347 0 1.387-.353 1.908-.53.347 0 1.908 0 2.255.177s2.255 0 3.296 0l.521-.353.52-.353c.347.177.694.53.868.706.173.177 1.561-.176 2.428-.353.694-.176 3.123-.176 3.297 0 .347.177 1.561.177 1.908 0 .52 0 1.908-.176 2.429-.176.52 0 1.734-.353 1.908-.353.173-.177.867.353 1.041.353.347-.177.867-.353 1.214-.353s.694.176 1.215.176h.52c.52 0 1.388-.176 1.735-.176.347 0 1.214.353 1.388.176l.173-.176h.174c.173 0 .867 0 1.387.176.521.177 3.297-.176 3.644-.176l.347.176.52.177c.347-.177 1.041-.353 1.388-.177l.347-.176.52-.177c.521-.353 1.215-.529 1.562-.353.347.177 1.387 0 1.908 0 .347-.176 1.214 0 1.561-.176.347 0 1.215.176 1.562.176h1.214c.173.177.867.353 1.214.177.521-.177 3.296 0 4.337-.177 1.041 0 2.776-.529 3.123-.529l.52.177.868.176h2.776l.346-.176.521-.177c.694 0 1.561 0 1.908.177h2.602c.347 0 1.215 0 2.082-.177l.868-.176.694-.177c.693-.176 1.387-.176 1.561-.176 0 0 .52.176.867.176s1.735.177 2.082.177c.347.176 1.214.353 1.388.353.173-.177.694-.353 1.041-.353.173 0 1.214-.353 1.735-.53.52 0 2.602 0 3.469-.176.868 0 3.296.176 3.643.176s1.562-.353 1.735-.353c.174 0 .694 0 .868.177.173 0 1.387-.177 2.428-.353l.868.176h.694c.52-.176 1.388-.353 1.908-.176h1.041c.52-.177 1.388-.177 1.735.176.347.177 1.908-.706 2.775-.706l.694.53s.347 0 .347-.177l.174-.176c0-.177.347-.353.694-.53.347 0 1.214.353 1.561.353.347.177 1.735 0 2.082.177.347.176 1.041 0 1.388 0s1.387.176 1.908.176c.52 0 2.255-.353 2.776-.176l.173-.177c.694-.529.868.353 1.388.177l.52-.177c.521-.353 1.041-.706 1.562-.706.347 0 1.908 0 2.255.177h2.082c.347-.177 1.735.176 2.082.176.347.177 1.734 0 2.428-.176l.694.176c.521.177 1.215.177 1.562-.353l1.561-.176c1.561.53 3.123.353 4.684 0 .52-.176 1.214.706 1.735 0 .173-.176 1.214-.176 1.735 0h.346c.347.176.868.176 1.041.176.174 0 .694-.176 1.041-.529.347-.176 1.215.53 1.562.53s1.041-.353 1.214-.353c.173 0 .867.352 1.214.529h.347c.347 0 .694-.177 1.041-.353l.521-.176c.52.176 1.214.352 1.388.352.173 0 .693-.176.867-.176.173-.176.867.176 1.214.176h.174c.173-.176.347-.352.52-.352.347 0 .868.352 1.215.176.52 0 1.04-.353 1.387-.353h.521c.52 0 1.214 0 1.561-.176l.347.353.174.176c.347 0 1.214.176 1.908.176.52 0 2.429-.352 2.776-.176s2.602 0 3.99.176l1.388-.529c.347-.176 1.04-.176 1.387 0l.694.353c.521-.176 1.388-.53 1.735-.706h.347c.347 0 .694.177 1.041.353l.174.177c.173.176 1.214.352 2.428.352 1.215 0 3.99-.705 4.164-.705.173 0 .173.176.347.176.173 0 1.041 0 1.561-.176.521 0 2.255-.177 2.776-.177.52 0 2.082.53 2.429.706.347.176 1.734-.176 1.908 0 .347.176 1.735-.53 2.255-.706l.694.53.347.176c.867-.176 2.429-.353 3.296-.53h1.561c.868.177 2.082 0 2.603-.352l.694.53c.52.352 1.214-.707 2.081-.177.694.529 1.215.353 1.735-.177h.174l.52.177c.521 0 1.215.176 1.562.176.173 0 1.214-.353 1.734-.353h1.388c1.041 0 2.602 0 3.643-.176h1.388c.694.176 1.388.353 1.735.353.347 0 1.041-.177 1.388-.177.173 0 1.041.353 1.214.353l.521-.706c-.868 1.059.867 1.412 1.041 1.588z" fill="#6FB2A5"/><path d="M396.059 1.632c.173.177.693 0 1.04-.353.347.53.694-.176.868 0 .52.353.867.353 1.388 0 .173-.176.867.53 1.214.53h.347c.52-.177 1.041-.177 1.388-.177s1.735.353 2.429.53l.52-.353h.347c.52.176 1.214.53 1.735.53h.52c.521-.354.694 0 .694.529l.868-.706.694-.53c.693.353 1.734.353 2.255.177.52-.177 2.082.706 2.602.53.52 0 2.429.529 2.949.705v-.706l.347-.176.694.53c.867-.177 1.735 0 2.082.176.347.176 1.388-.353 1.735-.177.347.177 1.388.353 1.734.177.347-.177 2.429-.177 3.47 0l1.041.353c.347.176.867-.353 1.388-.353h.347c.347.176.867.176 1.041 0l.867.706c1.041-.353 2.082-.353 2.255.176.174.53 1.041 1.588 1.215 1.588.173 0 .867 0 .867.177 0 .176-.173.706-.52.882-.347.177-.347 1.765-1.041 2.47l.173 1.06v.176c0 .353-.173.53-.347.53-.173-.177-.52-.177-.694.176 1.041.353-.173 1.059.347 1.588v.353l-.694.353c0 .53-.867 1.059-1.734 1.235l-.868-.706-.173-.176c-.521.176-1.388.353-1.909.53-.52 0-2.255-.177-2.775 0h-1.041c-.521 0-1.041-.177-1.215-.177h-1.214c-.173 0-1.908.176-3.296.176-1.214 0-5.205 0-5.898-.176-.694 0-2.603.53-2.776.53h-1.041c-1.041-.177-2.255-.177-2.776-.177-.52.176-2.081-.177-2.428-.177s-1.735.177-2.256 0c-.52-.176-2.775.177-3.816.177h-4.164c-.694 0-1.561.176-1.735 0-.52-.53-1.041.176-1.388-.353 0-.177-.52-.177-.693 0-.521 0-1.215.353-1.388.176l-.694-.529c-.521.353-1.215.53-1.562.353-.347-.177-1.04-.177-1.561-.353-.347-.176-1.561.353-2.082.176-.347-.176-1.561.53-1.908.53s-1.908-.53-2.602-.706l-.694.53-.347.705c-1.041-.176-2.082-.353-2.429-.53-.173-.176-1.214-.176-1.735-.352-.52-.177-2.602.706-3.643 1.059l-.694-.883s-.52-.176-.694 0c-.694.53-1.561-.353-2.428.177-.174.176-.694.176-1.041.176-.694 0-1.215-.353-1.909-.353h-.52c-.694.177-1.388.353-1.735.177-.347 0-1.561 0-1.908-.177-.347-.176-1.388.353-1.908.53-.347.176-1.388-.53-1.735-.353-.347.176-2.082 0-2.776 0h-.52c-.521 0-1.215.176-1.735.176h-1.041c-1.214-.176-3.123-.176-4.337-.176l-1.041.353-.867.176c-.868-.176-2.429-.353-3.47-.353h-12.491c-.694.177-1.214.353-1.388.353-.173 0-1.04-.176-1.734-.176-.694-.177-4.684.176-5.031 0-.347-.177-1.041 0-1.388-.177-.347 0-1.735.353-2.429.353h-12.144c-.694 0-3.122 0-5.031.177-2.081 0-7.98.53-8.847.706l-.174-.177-.52-.353c-.347.353-1.214.353-1.735 0l-.694.53c-.347.176-1.214 0-1.908 0h-1.041c-1.041 0-2.429 0-2.949.176-.521.177-2.082-.353-2.602-.706l-.347.53-.521.705c-.347-.352-1.214-.705-1.735-.529-.52 0-2.428.177-2.949.177-.52 0-2.255.176-2.949.176h-1.388c-.867 0-1.908.176-2.429.176-.52.177-1.734.177-2.428.53l-.868-.177c-.694-.176-1.561 0-2.255 0h-.867c-.868 0-1.909.177-2.429.353h-.694c-.521-.176-2.255-.353-4.164-.176-1.908 0-6.939.53-7.286.882l-.52-.53c-.174-.176-.868.177-1.388.177h-.521c-.52 0-1.214-.176-1.734-.53-.521-.352-2.082.53-2.603.53h-2.775c-.521 0-2.429.177-2.95.177h-.52c-.52 0-1.041-.177-1.561-.177h-4.684c-.868 0-3.643.353-4.337.353h-1.215c-.867.177-1.908.177-2.255 0-.347-.176-1.908.53-2.429.53h-3.296c-.694 0-3.47 0-4.857.176-1.388.177-6.072.177-7.46.177s-5.205 0-5.552.176c-.346.177-1.561-.176-1.908-.353-.347 0-1.735.53-2.429.53h-4.337c-1.04 0-4.684 0-5.724.176-1.041.176-5.552.176-7.46.176h-9.021l-.347.353c-.347.353-.694-.706-1.388 0l-.174.177c-.52 0-1.214 0-1.561.176-.347.177-1.908-.353-2.776-.176h-6.939c-6.766 0-12.837-.177-13.705-.353l-.694.53-.173.176c-.347 0-.868-.177-1.388-.177-.521 0-1.908 0-2.082.177-.173.176-.867-.177-1.214-.177-.174 0-1.215.177-1.735.177h-.521l-1.734-.353h-.521c-.52 0-1.041-.177-1.041-.353-.173-.177-1.041.176-1.561.176h-.347c-.173 0-.52-.176-.52-.176l-1.735.706c-1.909-.177-4.858-.353-6.766-.353h-6.072c-1.041 0-2.429 0-2.949-.177-.521 0-2.429.706-3.296 1.06l-.521-.883c0-.177-.52-.177-.694 0l-.867.53c-.867-.177-2.255-.354-3.296-.177H81.363c-.867 0-2.255 0-2.95-.177-.693-.176-2.775.53-2.948.353-.174-.176-1.909-.176-2.95-.176-1.04 0-4.337.353-4.684.353-.347 0-1.56 0-1.908-.177-.347-.176-1.561.353-1.908.353s-1.562-.353-2.082-.176c-.52.176-2.082.176-2.602.353-.52 0-1.909-.353-2.255-.177-.347 0-1.909.177-2.776.177-.868 0-4.337 0-5.898-.177l-1.215.706-.173.177c-.347 0-1.215-.177-2.082 0l-.52-.177-1.041-1.059c-.52.353-1.388.53-1.909.353l-.52.177-.694.176c-.868 0-1.735-.176-2.082 0-.347 0-2.776-.53-5.03-.706l-1.736.883-.694.353c-.694-.177-1.735-.177-2.081-.177h-2.603c-.52 0-1.561-.176-1.734-.176h-1.909c-.52 0-2.602 0-3.122-.177h-2.43c-.346-.176-1.387.353-1.56.353-.174-.176-.694-.353-.868-.176-.173.176-1.04.353-1.561.353H9.195a1.305 1.305 0 00-.52-.53s-.348.177-.348.353c0 .177-1.214.177-2.082 0H5.032c-.695 0-1.215 0-1.042-.176.174 0 .347-.353.174-.53-.174-.176-.347-1.059-.174-1.412.174-.176.174-.882-.173-.882s-.868.177-.868.177v.529c-.173 0-.52-.177-.867-.353-.174-.176-1.561-.706-1.735-.882-.173-.353-.694-1.236-.173-1.412.52-.177 1.04 1.059 1.387 1.412h.347c.174 0 .347-.177.347-.353 0-.177-.173-.353-.173-.353-.174 0-.52 0-.52-.177 0-.176.346-.706.867-.882.52-.177 1.908-.706 1.908-.882 0-.177.174-.883.347-.706.174.353 1.041.882 1.388.53l.173-.354c.174-.353.174-.353.52-.176l.174.176h2.082c.868 0 2.602-.706 2.429-.706-.174 0 .347-.529 1.735-.882l1.388.53c.346.176.52.176.867.176h.174c.346-.177.52-.353.173-.53-.174-.176-.52-.882-.347-.882h.174c.173 0 .52.353.693.177l.868-.353c.52.53 1.04.882 1.214.882.174 0 1.041 0 .694-.176-.173-.177 0-.53.347-.883s1.735-.353 2.082-.353h1.735c.347 0 1.561 0 2.081.177.52.176 1.562-.883 1.909-.883s.867.53.867.706c0 .177.347.177.347 0v-1.235c.867.176 2.082.53 2.776.706l.694-.353.694-.353c.867-.176 1.908-.353 2.428-.53.347-.176 1.215.53 1.388.354v-.177l.174-.176c.173 0 .694 0 1.214.176h1.041c.694-.176 1.388-.353 1.735-.353.347 0 1.561-.176 2.082-.176.52 0 2.428-.177 2.949 0 .52 0 2.428-.53 2.949-.53.52 0 2.082.177 2.429 0 .173-.176 1.214.177 1.561 0 .174-.176 1.04.177 1.214 0 .174-.176.694-.353.868-.176.173.53.867.706 1.214.706s1.562-.177 2.082-.177c.52 0 1.908-.176 2.255 0 .347 0 1.562-.176 1.735-.176.347-.177 1.388-.177 1.908-.353.52-.177 2.082.53 2.256.706.347.176.694-.706.867-.883h.174l.693.353c.694-.176 1.388-.53 1.562-.53.347.177.867.354 1.214.354l.347-.177c.347 0 .868 0 1.041-.176.173-.177 1.214 0 1.561.176h.694c.347 0 1.041-.176 1.388-.176.52 0 2.082 0 2.602.353l.694-.53c.347-.353 1.215.177 1.735-.353 0 0 .347.177.694.177l1.04.176c1.215-.176 2.256-.353 2.603-.53.347-.176 1.214.177 1.388 0 .173-.176 1.04.354 1.214.354.174 0 .694 0 1.215.176.52.177 2.255-.353 3.122-.353l.694.53h.174c.173 0 .694 0 .867-.353.174-.177.694-.353 1.214-.353.347 0 2.082 0 2.95.176l.52-.176c.174-.177.868 0 1.215 0l.693-.353c.694.353 1.388.53 1.562.53.173 0 1.214-.177 1.561 0l.347.176c.347.176.521-.706 1.041-.177 0 0 .52-.176.867-.176h.521c.52.176 1.041.176 1.214.353h1.908c.694 0 2.256-.53 2.429-.53.174 0 1.041.53 1.388.706l.521-.53.693-.881c1.041.352 2.256.705 2.776.882.347 0 2.255-.53 2.602-.706.347-.176 1.562-.176 2.082-.353l.347.177.347.176c.347.353.694.353 1.041 0l.347-.176c.173 0 .52 0 .694.176.173.176.867.353 1.214.176.174-.176 1.909-.176 2.429 0 .347.177 1.214 0 1.561.177.347 0 1.041-.177 1.388-.177s1.388-.176 1.735-.352c.347-.177 1.908.352 2.602.529l.521-.53h.52l1.041.177c1.041.176 2.255 0 2.776-.176.52-.177 2.255.352 2.949.352l.52-.176.521-.176c.52 0 1.388-.177 1.908-.177.521-.176 1.908.53 2.082.53h.173l1.388-.53c1.562 0 3.296.177 3.643.177s1.909.176 2.429.529l.52-.882.174-.353c.694.176 1.388.53 1.561.706.174.176 1.215-.353 1.388-.353.347 0 1.215.353 1.388.353l.173-.177.694-.53c.694.354 1.562.53 1.909.707.52 0 1.735-.177 2.081-.353.347-.177 1.388.176 1.562.176.173 0 .694-.353.867-.53.174-.176.868.177 1.041-.176l.521.177.52.176c.867-.176 2.082-.353 2.602-.53.521-.176 2.082.177 2.255.177.174 0 1.215 0 1.735.177h.521c.173-.177.52-.177.52 0 0 .176.521.882.868.706l1.734-.883c.347-.176 2.256-.176 2.603 0 .347 0 1.387-.353 1.908-.53.347 0 1.908 0 2.255.177s2.255 0 3.296 0l.521-.353.52-.353c.347.177.694.53.868.706.173.177 1.561-.176 2.428-.353.694-.176 3.123-.176 3.297 0 .347.177 1.561.177 1.908 0 .52 0 1.908-.176 2.429-.176.52 0 1.734-.353 1.908-.353.173-.177.867.353 1.041.353.347-.177.867-.353 1.214-.353s.694.176 1.215.176h.52c.52 0 1.388-.176 1.735-.176.347 0 1.214.353 1.388.176l.173-.176h.174c.173 0 .867 0 1.387.176.521.177 3.297-.176 3.644-.176l.347.176.52.177c.347-.177 1.041-.353 1.388-.177l.347-.176.52-.177c.521-.353 1.215-.529 1.562-.353.347.177 1.387 0 1.908 0 .347-.176 1.214 0 1.561-.176.347 0 1.215.176 1.562.176h1.214c.173.177.867.353 1.214.177.521-.177 3.296 0 4.337-.177 1.041 0 2.776-.529 3.123-.529l.52.177.868.176h2.776l.346-.176.521-.177c.694 0 1.561 0 1.908.177h2.602c.347 0 1.215 0 2.082-.177l.868-.176.694-.177c.693-.176 1.387-.176 1.561-.176 0 0 .52.176.867.176s1.735.177 2.082.177c.347.176 1.214.353 1.388.353.173-.177.694-.353 1.041-.353.173 0 1.214-.353 1.735-.53.52 0 2.602 0 3.469-.176.868 0 3.296.176 3.643.176s1.562-.353 1.735-.353c.174 0 .694 0 .868.177.173 0 1.387-.177 2.428-.353l.868.176h.694c.52-.176 1.388-.353 1.908-.176h1.041c.52-.177 1.388-.177 1.735.176.347.177 1.908-.706 2.775-.706l.694.53s.347 0 .347-.177l.174-.176c0-.177.347-.353.694-.53.347 0 1.214.353 1.561.353.347.177 1.735 0 2.082.177.347.176 1.041 0 1.388 0s1.387.176 1.908.176c.52 0 2.255-.353 2.776-.176l.173-.177c.694-.529.868.353 1.388.177l.52-.177c.521-.353 1.041-.706 1.562-.706.347 0 1.908 0 2.255.177h2.082c.347-.177 1.735.176 2.082.176.347.177 1.734 0 2.428-.176l.694.176c.521.177 1.215.177 1.562-.353l1.561-.176c1.561.53 3.123.353 4.684 0 .52-.176 1.214.706 1.735 0 .173-.176 1.214-.176 1.735 0h.346c.347.176.868.176 1.041.176.174 0 .694-.176 1.041-.529.347-.176 1.215.53 1.562.53s1.041-.353 1.214-.353c.173 0 .867.352 1.214.529h.347c.347 0 .694-.177 1.041-.353l.521-.176c.52.176 1.214.352 1.388.352.173 0 .693-.176.867-.176.173-.176.867.176 1.214.176h.174c.173-.176.347-.352.52-.352.347 0 .868.352 1.215.176.52 0 1.04-.353 1.387-.353h.521c.52 0 1.214 0 1.561-.176l.347.353.174.176c.347 0 1.214.176 1.908.176.52 0 2.429-.352 2.776-.176s2.602 0 3.99.176l1.388-.529c.347-.176 1.04-.176 1.387 0l.694.353c.521-.176 1.388-.53 1.735-.706h.347c.347 0 .694.177 1.041.353l.174.177c.173.176 1.214.352 2.428.352 1.215 0 3.99-.705 4.164-.705.173 0 .173.176.347.176.173 0 1.041 0 1.561-.176.521 0 2.255-.177 2.776-.177.52 0 2.082.53 2.429.706.347.176 1.734-.176 1.908 0 .347.176 1.735-.53 2.255-.706l.694.53.347.176c.867-.176 2.429-.353 3.296-.53h1.561c.868.177 2.082 0 2.603-.352l.694.53c.52.352 1.214-.707 2.081-.177.694.529 1.215.353 1.735-.177h.174l.52.177c.521 0 1.215.176 1.562.176.173 0 1.214-.353 1.734-.353h1.388c1.041 0 2.602 0 3.643-.176h1.388c.694.176 1.388.353 1.735.353.347 0 1.041-.177 1.388-.177.173 0 1.041.353 1.214.353l.521-.706c-.868 1.059.867 1.412 1.041 1.588z" fill="#D9D9D9"/><path d="M396.059 1.632c.173.177.693 0 1.04-.353.347.53.694-.176.868 0 .52.353.867.353 1.388 0 .173-.176.867.53 1.214.53h.347c.52-.177 1.041-.177 1.388-.177s1.735.353 2.429.53l.52-.353h.347c.52.176 1.214.53 1.735.53h.52c.521-.354.694 0 .694.529l.868-.706.694-.53c.693.353 1.734.353 2.255.177.52-.177 2.082.706 2.602.53.52 0 2.429.529 2.949.705v-.706l.347-.176.694.53c.867-.177 1.735 0 2.082.176.347.176 1.388-.353 1.735-.177.347.177 1.388.353 1.734.177.347-.177 2.429-.177 3.47 0l1.041.353c.347.176.867-.353 1.388-.353h.347c.347.176.867.176 1.041 0l.867.706c1.041-.353 2.082-.353 2.255.176.174.53 1.041 1.588 1.215 1.588.173 0 .867 0 .867.177 0 .176-.173.706-.52.882-.347.177-.347 1.765-1.041 2.47l.173 1.06v.176c0 .353-.173.53-.347.53-.173-.177-.52-.177-.694.176 1.041.353-.173 1.059.347 1.588v.353l-.694.353c0 .53-.867 1.059-1.734 1.235l-.868-.706-.173-.176c-.521.176-1.388.353-1.909.53-.52 0-2.255-.177-2.775 0h-1.041c-.521 0-1.041-.177-1.215-.177h-1.214c-.173 0-1.908.176-3.296.176-1.214 0-5.205 0-5.898-.176-.694 0-2.603.53-2.776.53h-1.041c-1.041-.177-2.255-.177-2.776-.177-.52.176-2.081-.177-2.428-.177s-1.735.177-2.256 0c-.52-.176-2.775.177-3.816.177h-4.164c-.694 0-1.561.176-1.735 0-.52-.53-1.041.176-1.388-.353 0-.177-.52-.177-.693 0-.521 0-1.215.353-1.388.176l-.694-.529c-.521.353-1.215.53-1.562.353-.347-.177-1.04-.177-1.561-.353-.347-.176-1.561.353-2.082.176-.347-.176-1.561.53-1.908.53s-1.908-.53-2.602-.706l-.694.53-.347.705c-1.041-.176-2.082-.353-2.429-.53-.173-.176-1.214-.176-1.735-.352-.52-.177-2.602.706-3.643 1.059l-.694-.883s-.52-.176-.694 0c-.694.53-1.561-.353-2.428.177-.174.176-.694.176-1.041.176-.694 0-1.215-.353-1.909-.353h-.52c-.694.177-1.388.353-1.735.177-.347 0-1.561 0-1.908-.177-.347-.176-1.388.353-1.908.53-.347.176-1.388-.53-1.735-.353-.347.176-2.082 0-2.776 0h-.52c-.521 0-1.215.176-1.735.176h-1.041c-1.214-.176-3.123-.176-4.337-.176l-1.041.353-.867.176c-.868-.176-2.429-.353-3.47-.353h-12.491c-.694.177-1.214.353-1.388.353-.173 0-1.04-.176-1.734-.176-.694-.177-4.684.176-5.031 0-.347-.177-1.041 0-1.388-.177-.347 0-1.735.353-2.429.353h-12.144c-.694 0-3.122 0-5.031.177-2.081 0-7.98.53-8.847.706l-.174-.177-.52-.353c-.347.353-1.214.353-1.735 0l-.694.53c-.347.176-1.214 0-1.908 0h-1.041c-1.041 0-2.429 0-2.949.176-.521.177-2.082-.353-2.602-.706l-.347.53-.521.705c-.347-.352-1.214-.705-1.735-.529-.52 0-2.428.177-2.949.177-.52 0-2.255.176-2.949.176h-1.388c-.867 0-1.908.176-2.429.176-.52.177-1.734.177-2.428.53l-.868-.177c-.694-.176-1.561 0-2.255 0h-.867c-.868 0-1.909.177-2.429.353h-.694c-.521-.176-2.255-.353-4.164-.176-1.908 0-6.939.53-7.286.882l-.52-.53c-.174-.176-.868.177-1.388.177h-.521c-.52 0-1.214-.176-1.734-.53-.521-.352-2.082.53-2.603.53h-2.775c-.521 0-2.429.177-2.95.177h-.52c-.52 0-1.041-.177-1.561-.177h-4.684c-.868 0-3.643.353-4.337.353h-1.215c-.867.177-1.908.177-2.255 0-.347-.176-1.908.53-2.429.53h-3.296c-.694 0-3.47 0-4.857.176-1.388.177-6.072.177-7.46.177s-5.205 0-5.552.176c-.346.177-1.561-.176-1.908-.353-.347 0-1.735.53-2.429.53h-4.337c-1.04 0-4.684 0-5.724.176-1.041.176-5.552.176-7.46.176h-9.021l-.347.353c-.347.353-.694-.706-1.388 0l-.174.177c-.52 0-1.214 0-1.561.176-.347.177-1.908-.353-2.776-.176h-6.939c-6.766 0-12.837-.177-13.705-.353l-.694.53-.173.176c-.347 0-.868-.177-1.388-.177-.521 0-1.908 0-2.082.177-.173.176-.867-.177-1.214-.177-.174 0-1.215.177-1.735.177h-.521l-1.734-.353h-.521c-.52 0-1.041-.177-1.041-.353-.173-.177-1.041.176-1.561.176h-.347c-.173 0-.52-.176-.52-.176l-1.735.706c-1.909-.177-4.858-.353-6.766-.353h-6.072c-1.041 0-2.429 0-2.949-.177-.521 0-2.429.706-3.296 1.06l-.521-.883c0-.177-.52-.177-.694 0l-.867.53c-.867-.177-2.255-.354-3.296-.177H81.363c-.867 0-2.255 0-2.95-.177-.693-.176-2.775.53-2.948.353-.174-.176-1.909-.176-2.95-.176-1.04 0-4.337.353-4.684.353-.347 0-1.56 0-1.908-.177-.347-.176-1.561.353-1.908.353s-1.562-.353-2.082-.176c-.52.176-2.082.176-2.602.353-.52 0-1.909-.353-2.255-.177-.347 0-1.909.177-2.776.177-.868 0-4.337 0-5.898-.177l-1.215.706-.173.177c-.347 0-1.215-.177-2.082 0l-.52-.177-1.041-1.059c-.52.353-1.388.53-1.909.353l-.52.177-.694.176c-.868 0-1.735-.176-2.082 0-.347 0-2.776-.53-5.03-.706l-1.736.883-.694.353c-.694-.177-1.735-.177-2.081-.177h-2.603c-.52 0-1.561-.176-1.734-.176h-1.909c-.52 0-2.602 0-3.122-.177h-2.43c-.346-.176-1.387.353-1.56.353-.174-.176-.694-.353-.868-.176-.173.176-1.04.353-1.561.353H9.195a1.305 1.305 0 00-.52-.53s-.348.177-.348.353c0 .177-1.214.177-2.082 0H5.032c-.695 0-1.215 0-1.042-.176.174 0 .347-.353.174-.53-.174-.176-.347-1.059-.174-1.412.174-.176.174-.882-.173-.882s-.868.177-.868.177v.529c-.173 0-.52-.177-.867-.353-.174-.176-1.561-.706-1.735-.882-.173-.353-.694-1.236-.173-1.412.52-.177 1.04 1.059 1.387 1.412h.347c.174 0 .347-.177.347-.353 0-.177-.173-.353-.173-.353-.174 0-.52 0-.52-.177 0-.176.346-.706.867-.882.52-.177 1.908-.706 1.908-.882 0-.177.174-.883.347-.706.174.353 1.041.882 1.388.53l.173-.354c.174-.353.174-.353.52-.176l.174.176h2.082c.868 0 2.602-.706 2.429-.706-.174 0 .347-.529 1.735-.882l1.388.53c.346.176.52.176.867.176h.174c.346-.177.52-.353.173-.53-.174-.176-.52-.882-.347-.882h.174c.173 0 .52.353.693.177l.868-.353c.52.53 1.04.882 1.214.882.174 0 1.041 0 .694-.176-.173-.177 0-.53.347-.883s1.735-.353 2.082-.353h1.735c.347 0 1.561 0 2.081.177.52.176 1.562-.883 1.909-.883s.867.53.867.706c0 .177.347.177.347 0v-1.235c.867.176 2.082.53 2.776.706l.694-.353.694-.353c.867-.176 1.908-.353 2.428-.53.347-.176 1.215.53 1.388.354v-.177l.174-.176c.173 0 .694 0 1.214.176h1.041c.694-.176 1.388-.353 1.735-.353.347 0 1.561-.176 2.082-.176.52 0 2.428-.177 2.949 0 .52 0 2.428-.53 2.949-.53.52 0 2.082.177 2.429 0 .173-.176 1.214.177 1.561 0 .174-.176 1.04.177 1.214 0 .174-.176.694-.353.868-.176.173.53.867.706 1.214.706s1.562-.177 2.082-.177c.52 0 1.908-.176 2.255 0 .347 0 1.562-.176 1.735-.176.347-.177 1.388-.177 1.908-.353.52-.177 2.082.53 2.256.706.347.176.694-.706.867-.883h.174l.693.353c.694-.176 1.388-.53 1.562-.53.347.177.867.354 1.214.354l.347-.177c.347 0 .868 0 1.041-.176.173-.177 1.214 0 1.561.176h.694c.347 0 1.041-.176 1.388-.176.52 0 2.082 0 2.602.353l.694-.53c.347-.353 1.215.177 1.735-.353 0 0 .347.177.694.177l1.04.176c1.215-.176 2.256-.353 2.603-.53.347-.176 1.214.177 1.388 0 .173-.176 1.04.354 1.214.354.174 0 .694 0 1.215.176.52.177 2.255-.353 3.122-.353l.694.53h.174c.173 0 .694 0 .867-.353.174-.177.694-.353 1.214-.353.347 0 2.082 0 2.95.176l.52-.176c.174-.177.868 0 1.215 0l.693-.353c.694.353 1.388.53 1.562.53.173 0 1.214-.177 1.561 0l.347.176c.347.176.521-.706 1.041-.177 0 0 .52-.176.867-.176h.521c.52.176 1.041.176 1.214.353h1.908c.694 0 2.256-.53 2.429-.53.174 0 1.041.53 1.388.706l.521-.53.693-.881c1.041.352 2.256.705 2.776.882.347 0 2.255-.53 2.602-.706.347-.176 1.562-.176 2.082-.353l.347.177.347.176c.347.353.694.353 1.041 0l.347-.176c.173 0 .52 0 .694.176.173.176.867.353 1.214.176.174-.176 1.909-.176 2.429 0 .347.177 1.214 0 1.561.177.347 0 1.041-.177 1.388-.177s1.388-.176 1.735-.352c.347-.177 1.908.352 2.602.529l.521-.53h.52l1.041.177c1.041.176 2.255 0 2.776-.176.52-.177 2.255.352 2.949.352l.52-.176.521-.176c.52 0 1.388-.177 1.908-.177.521-.176 1.908.53 2.082.53h.173l1.388-.53c1.562 0 3.296.177 3.643.177s1.909.176 2.429.529l.52-.882.174-.353c.694.176 1.388.53 1.561.706.174.176 1.215-.353 1.388-.353.347 0 1.215.353 1.388.353l.173-.177.694-.53c.694.354 1.562.53 1.909.707.52 0 1.735-.177 2.081-.353.347-.177 1.388.176 1.562.176.173 0 .694-.353.867-.53.174-.176.868.177 1.041-.176l.521.177.52.176c.867-.176 2.082-.353 2.602-.53.521-.176 2.082.177 2.255.177.174 0 1.215 0 1.735.177h.521c.173-.177.52-.177.52 0 0 .176.521.882.868.706l1.734-.883c.347-.176 2.256-.176 2.603 0 .347 0 1.387-.353 1.908-.53.347 0 1.908 0 2.255.177s2.255 0 3.296 0l.521-.353.52-.353c.347.177.694.53.868.706.173.177 1.561-.176 2.428-.353.694-.176 3.123-.176 3.297 0 .347.177 1.561.177 1.908 0 .52 0 1.908-.176 2.429-.176.52 0 1.734-.353 1.908-.353.173-.177.867.353 1.041.353.347-.177.867-.353 1.214-.353s.694.176 1.215.176h.52c.52 0 1.388-.176 1.735-.176.347 0 1.214.353 1.388.176l.173-.176h.174c.173 0 .867 0 1.387.176.521.177 3.297-.176 3.644-.176l.347.176.52.177c.347-.177 1.041-.353 1.388-.177l.347-.176.52-.177c.521-.353 1.215-.529 1.562-.353.347.177 1.387 0 1.908 0 .347-.176 1.214 0 1.561-.176.347 0 1.215.176 1.562.176h1.214c.173.177.867.353 1.214.177.521-.177 3.296 0 4.337-.177 1.041 0 2.776-.529 3.123-.529l.52.177.868.176h2.776l.346-.176.521-.177c.694 0 1.561 0 1.908.177h2.602c.347 0 1.215 0 2.082-.177l.868-.176.694-.177c.693-.176 1.387-.176 1.561-.176 0 0 .52.176.867.176s1.735.177 2.082.177c.347.176 1.214.353 1.388.353.173-.177.694-.353 1.041-.353.173 0 1.214-.353 1.735-.53.52 0 2.602 0 3.469-.176.868 0 3.296.176 3.643.176s1.562-.353 1.735-.353c.174 0 .694 0 .868.177.173 0 1.387-.177 2.428-.353l.868.176h.694c.52-.176 1.388-.353 1.908-.176h1.041c.52-.177 1.388-.177 1.735.176.347.177 1.908-.706 2.775-.706l.694.53s.347 0 .347-.177l.174-.176c0-.177.347-.353.694-.53.347 0 1.214.353 1.561.353.347.177 1.735 0 2.082.177.347.176 1.041 0 1.388 0s1.387.176 1.908.176c.52 0 2.255-.353 2.776-.176l.173-.177c.694-.529.868.353 1.388.177l.52-.177c.521-.353 1.041-.706 1.562-.706.347 0 1.908 0 2.255.177h2.082c.347-.177 1.735.176 2.082.176.347.177 1.734 0 2.428-.176l.694.176c.521.177 1.215.177 1.562-.353l1.561-.176c1.561.53 3.123.353 4.684 0 .52-.176 1.214.706 1.735 0 .173-.176 1.214-.176 1.735 0h.346c.347.176.868.176 1.041.176.174 0 .694-.176 1.041-.529.347-.176 1.215.53 1.562.53s1.041-.353 1.214-.353c.173 0 .867.352 1.214.529h.347c.347 0 .694-.177 1.041-.353l.521-.176c.52.176 1.214.352 1.388.352.173 0 .693-.176.867-.176.173-.176.867.176 1.214.176h.174c.173-.176.347-.352.52-.352.347 0 .868.352 1.215.176.52 0 1.04-.353 1.387-.353h.521c.52 0 1.214 0 1.561-.176l.347.353.174.176c.347 0 1.214.176 1.908.176.52 0 2.429-.352 2.776-.176s2.602 0 3.99.176l1.388-.529c.347-.176 1.04-.176 1.387 0l.694.353c.521-.176 1.388-.53 1.735-.706h.347c.347 0 .694.177 1.041.353l.174.177c.173.176 1.214.352 2.428.352 1.215 0 3.99-.705 4.164-.705.173 0 .173.176.347.176.173 0 1.041 0 1.561-.176.521 0 2.255-.177 2.776-.177.52 0 2.082.53 2.429.706.347.176 1.734-.176 1.908 0 .347.176 1.735-.53 2.255-.706l.694.53.347.176c.867-.176 2.429-.353 3.296-.53h1.561c.868.177 2.082 0 2.603-.352l.694.53c.52.352 1.214-.707 2.081-.177.694.529 1.215.353 1.735-.177h.174l.52.177c.521 0 1.215.176 1.562.176.173 0 1.214-.353 1.734-.353h1.388c1.041 0 2.602 0 3.643-.176h1.388c.694.176 1.388.353 1.735.353.347 0 1.041-.177 1.388-.177.173 0 1.041.353 1.214.353l.521-.706c-.868 1.059.867 1.412 1.041 1.588z" fill="#A7BE71"/></svg>